<?xml version="1.0"?>
<svg xmlns="http://www.w3.org/2000/svg" id="_x31__x2C_5" enable-background="new 0 0 24 24" height="512px" viewBox="0 0 24 24" width="512px" class=""><g><path d="m17.242 20.399c-.804 0-1.605-.311-2.217-.925l-3.107-3.126c-.591-.585-.918-1.373-.918-2.214s.327-1.629.922-2.219c1.145-1.171 3.238-1.184 4.422.003l.534.535c.292.293.292.768-.001 1.061-.294.292-.769.292-1.061-.002l-.534-.535c-.613-.615-1.701-.612-2.296-.005-.316.314-.486.725-.486 1.162s.17.848.479 1.154l3.109 3.129c.596.596 1.535.645 2.184.11.321-.262.793-.216 1.056.104s.216.792-.104 1.056c-.581.477-1.283.712-1.982.712z" data-original="#000000" class="active-path" data-old_color="#000000" fill="#0088CC"/><path d="m20.868 24c-.839 0-1.626-.328-2.215-.926l-.512-.514c-.292-.293-.292-.769.002-1.061s.769-.292 1.061.002l.515.517c.615.623 1.688.62 2.298.003.314-.313.484-.723.484-1.16s-.17-.848-.479-1.154l-3.109-3.129c-.306-.306-.717-.476-1.155-.476-.269 0-.666.063-1.026.362-.32.264-.792.22-1.056-.099-.265-.318-.221-.791.098-1.056 1.185-.982 3.098-.896 4.202.209l3.107 3.127c.59.587.917 1.376.917 2.216s-.327 1.629-.922 2.219c-.583.592-1.37.92-2.21.92z" data-original="#000000" class="active-path" data-old_color="#000000" fill="#0088CC"/><path d="m8.5 21c-.048 0-.095-.005-.143-.014-.083-.016-8.357-1.725-8.357-11.056v-6.18c0-.31.19-.588.479-.699l7.75-3c.174-.068.367-.068.541 0l7.75 3c.29.111.48.389.48.699v4.5c0 .414-.336.75-.75.75s-.75-.336-.75-.75v-3.986l-7-2.709-7 2.709v5.666c0 7.523 5.952 9.298 6.998 9.552.319-.08 1.15-.318 2.127-.843.366-.194.819-.058 1.016.307.196.365.059.819-.307 1.016-1.464.785-2.645 1.017-2.694 1.025-.046.008-.093.013-.14.013z" data-original="#000000" class="active-path" data-old_color="#000000" fill="#0088CC"/></g> </svg>
