<svg width="500" height="500" viewBox="0 0 500 500" fill="none" xmlns="http://www.w3.org/2000/svg">
<path d="M84 141C55.4 198 64.45 269.9 100.19 322.69C135.93 375.48 195.39 409.69 257.92 422.1C302.55 430.99 350.56 429.18 391.34 408.98C432.12 388.78 464.19 348.16 466.64 302.71C467.56 285.55 463.92 267.32 452.47 254.51C434.2 234 403 233.32 375.54 234.17C348.08 235.02 316.9 234.37 298.54 213.99C284.41 198.33 282.33 175.61 274.89 155.87C262.24 122.32 231.71 96.12 196.63 88.71C190.787 87.4806 184.848 86.7612 178.88 86.56C141.31 85.28 106.13 105 86.45 137L84 141Z" fill="#F5F5F5"/>
<path d="M448 454.89C448 455.04 359.54 455.15 250.44 455.15C141.34 455.15 52.83 455 52.83 454.89C52.83 454.78 141.27 454.63 250.4 454.63C359.53 454.63 448 454.75 448 454.89Z" fill="#263238"/>
<path d="M99.92 153.43C99.92 153.43 100.07 153.61 100.32 153.97L101.41 155.54L105.53 161.54C105.541 161.551 105.55 161.564 105.556 161.579C105.562 161.594 105.565 161.609 105.565 161.625C105.565 161.641 105.562 161.656 105.556 161.671C105.55 161.686 105.541 161.699 105.53 161.71C105.507 161.718 105.483 161.718 105.46 161.71H93.91C93.8719 161.71 93.8352 161.696 93.8073 161.67C93.7795 161.644 93.7625 161.608 93.76 161.57C93.75 161.544 93.75 161.516 93.76 161.49V161.49L94.02 161.71C90.9027 164.538 87.1174 166.527 83.02 167.49C80.6921 168.036 78.2952 168.228 75.91 168.06C73.3482 167.932 70.8248 167.384 68.44 166.44C65.902 165.457 63.5385 164.073 61.44 162.34C59.2688 160.531 57.4282 158.359 56 155.92C53.0086 150.85 51.9183 144.881 52.9241 139.081C53.9299 133.28 56.9662 128.027 61.49 124.26C65.3527 121.059 70.0908 119.097 75.0857 118.629C80.0806 118.162 85.1005 119.211 89.49 121.64C93.1005 123.675 96.1486 126.575 98.36 130.08C100.174 132.967 101.369 136.198 101.87 139.57C101.93 139.94 101.98 140.3 102.03 140.66C102.08 141.02 102.03 141.38 102.1 141.72C102.1 142.42 102.18 143.09 102.16 143.72C102.139 144.89 102.032 146.056 101.84 147.21C101.578 148.806 101.152 150.371 100.57 151.88C100.37 152.39 100.2 152.79 100.08 153.03C100.026 153.166 99.9586 153.297 99.88 153.42C99.9187 153.283 99.9689 153.149 100.03 153.02C100.13 152.75 100.29 152.36 100.47 151.84C101.003 150.326 101.395 148.766 101.64 147.18C101.813 146.035 101.904 144.878 101.91 143.72C101.91 143.08 101.85 142.42 101.83 141.72C101.83 141.38 101.83 141.03 101.75 140.67L101.58 139.59C100.913 135.317 99.1241 131.298 96.396 127.943C93.668 124.587 90.0984 122.015 86.0518 120.49C82.0051 118.965 77.6262 118.541 73.3621 119.261C69.0979 119.982 65.1013 121.82 61.78 124.59C57.5266 128.192 54.6157 133.125 53.52 138.59C52.3859 144.42 53.4132 150.463 56.41 155.59C57.819 158.025 59.6432 160.194 61.8 162C63.8508 163.686 66.1561 165.036 68.63 166C70.9785 166.957 73.4684 167.521 76 167.67C78.3467 167.842 80.706 167.664 83 167.14C87.0446 166.214 90.7881 164.277 93.88 161.51C93.895 161.493 93.9135 161.479 93.9342 161.47C93.9549 161.461 93.9773 161.456 94 161.456C94.0227 161.456 94.0451 161.461 94.0658 161.47C94.0865 161.479 94.105 161.493 94.12 161.51C94.1446 161.538 94.1582 161.573 94.1582 161.61C94.1582 161.647 94.1446 161.683 94.12 161.71V161.71L93.86 161.48C94.032 161.429 94.2108 161.406 94.39 161.41H97.23H100.23L105.46 161.47L105.36 161.66C103.62 159.01 102.26 156.95 101.36 155.52L100.36 153.92C100 153.61 99.92 153.43 99.92 153.43Z" fill="#263238"/>
<path d="M79.33 141.68C80.2815 141.26 81.089 140.57 81.6524 139.695C82.2158 138.821 82.5105 137.8 82.5 136.76C82.5 135.434 81.9732 134.162 81.0355 133.224C80.0978 132.287 78.8261 131.76 77.5 131.76C76.1739 131.76 74.9021 132.287 73.9645 133.224C73.0268 134.162 72.5 135.434 72.5 136.76C72.4745 137.815 72.7632 138.853 73.3294 139.744C73.8957 140.634 74.7139 141.336 75.68 141.76C68.01 142.91 68.36 151.24 68.36 151.24L86.49 151.33C86.49 151.33 86.93 142.82 79.33 141.68Z" fill="#407BFF"/>
<path d="M405.57 52.1001H168.67V377.71H405.57V52.1001Z" fill="#FAFAFA"/>
<path d="M365.74 217.7H264.1V234.62H365.74V217.7Z" fill="#EBEBEB"/>
<path d="M274.07 230.22C273.429 230.22 272.803 230.03 272.27 229.674C271.737 229.318 271.322 228.812 271.077 228.22C270.831 227.628 270.767 226.976 270.892 226.348C271.017 225.719 271.326 225.142 271.779 224.689C272.232 224.236 272.809 223.927 273.438 223.802C274.066 223.677 274.718 223.741 275.31 223.987C275.902 224.232 276.408 224.647 276.764 225.18C277.12 225.713 277.31 226.339 277.31 226.98C277.31 227.839 276.969 228.663 276.361 229.271C275.753 229.879 274.929 230.22 274.07 230.22V230.22ZM274.07 223.99C273.477 223.99 272.897 224.166 272.403 224.496C271.91 224.825 271.525 225.294 271.298 225.842C271.071 226.39 271.012 226.993 271.128 227.575C271.243 228.157 271.529 228.692 271.949 229.111C272.368 229.531 272.903 229.817 273.485 229.932C274.067 230.048 274.67 229.989 275.218 229.762C275.766 229.535 276.235 229.15 276.564 228.657C276.894 228.163 277.07 227.583 277.07 226.99C277.067 226.196 276.75 225.436 276.188 224.875C275.625 224.315 274.864 224 274.07 224V223.99Z" fill="#263238"/>
<path d="M344.34 227.26C344.34 227.4 330.84 227.52 314.19 227.52C297.54 227.52 284 227.4 284 227.26C284 227.12 297.5 227 314.16 227C330.82 227 344.34 227.11 344.34 227.26Z" fill="#263238"/>
<path d="M405.57 80.49H168.67V141.18H405.57V80.49Z" fill="#263238"/>
<path d="M405.57 52.1001H168.67V69.8001H405.57V52.1001Z" fill="#455A64"/>
<path d="M177.04 63.3301C178.354 63.3301 179.42 62.2645 179.42 60.9501C179.42 59.6356 178.354 58.5701 177.04 58.5701C175.726 58.5701 174.66 59.6356 174.66 60.9501C174.66 62.2645 175.726 63.3301 177.04 63.3301Z" fill="#263238"/>
<path d="M197.25 60.4401C197.25 60.9108 197.11 61.3709 196.849 61.7623C196.587 62.1537 196.216 62.4588 195.781 62.6389C195.346 62.819 194.867 62.8662 194.406 62.7743C193.944 62.6825 193.52 62.4558 193.187 62.123C192.854 61.7901 192.628 61.366 192.536 60.9044C192.444 60.4427 192.491 59.9642 192.671 59.5293C192.851 59.0944 193.156 58.7227 193.548 58.4612C193.939 58.1996 194.399 58.0601 194.87 58.0601C195.5 58.0627 196.104 58.3143 196.55 58.7601C196.996 59.2058 197.247 59.8097 197.25 60.4401V60.4401Z" fill="#263238"/>
<path d="M188.77 60.4401C188.77 60.9108 188.63 61.3709 188.369 61.7623C188.107 62.1537 187.736 62.4588 187.301 62.6389C186.866 62.819 186.387 62.8662 185.926 62.7743C185.464 62.6825 185.04 62.4558 184.707 62.123C184.374 61.7901 184.148 61.366 184.056 60.9044C183.964 60.4427 184.011 59.9642 184.191 59.5293C184.371 59.0944 184.676 58.7227 185.068 58.4612C185.459 58.1996 185.919 58.0601 186.39 58.0601C187.02 58.0627 187.624 58.3143 188.07 58.7601C188.516 59.2058 188.767 59.8097 188.77 60.4401V60.4401Z" fill="#263238"/>
<path d="M405.57 69.8H168.67V80.49H405.57V69.8Z" fill="#E0E0E0"/>
<path d="M250.09 181.22C250.09 181.36 242.16 181.48 232.38 181.48C222.6 181.48 214.66 181.36 214.66 181.22C214.66 181.08 222.59 180.96 232.38 180.96C242.17 180.96 250.09 181.07 250.09 181.22Z" fill="#263238"/>
<path d="M250.09 189.53C250.09 189.68 242.16 189.8 232.38 189.8C222.6 189.8 214.66 189.68 214.66 189.53C214.66 189.38 222.59 189.27 232.38 189.27C242.17 189.27 250.09 189.39 250.09 189.53Z" fill="#263238"/>
<path d="M234.76 196.41C231.434 196.672 228.096 196.759 224.76 196.67C221.408 196.76 218.053 196.674 214.71 196.41C218.053 196.153 221.408 196.066 224.76 196.15C228.096 196.067 231.433 196.154 234.76 196.41V196.41Z" fill="#263238"/>
<path d="M366.19 151.68H265.11V178.33H366.19V151.68Z" fill="#EBEBEB"/>
<path d="M279.32 191.15C279.322 192.191 279.015 193.21 278.438 194.076C277.86 194.943 277.039 195.618 276.078 196.018C275.116 196.417 274.058 196.522 273.036 196.32C272.015 196.117 271.077 195.616 270.341 194.88C269.604 194.143 269.103 193.205 268.901 192.184C268.698 191.163 268.803 190.104 269.202 189.143C269.602 188.181 270.277 187.36 271.144 186.782C272.011 186.205 273.029 185.898 274.07 185.9C275.462 185.9 276.798 186.453 277.782 187.438C278.767 188.422 279.32 189.758 279.32 191.15Z" fill="#E0E0E0"/>
<path d="M365.74 187.38C365.74 187.52 348.81 187.64 327.93 187.64C307.05 187.64 290.11 187.52 290.11 187.38C290.11 187.24 307.04 187.12 327.93 187.12C348.82 187.12 365.74 187.23 365.74 187.38Z" fill="#263238"/>
<path d="M329.32 194.88C329.32 195.03 320.54 195.14 309.72 195.14C298.9 195.14 290.11 195.03 290.11 194.88C290.11 194.73 298.89 194.62 309.72 194.62C320.55 194.62 329.32 194.74 329.32 194.88Z" fill="#263238"/>
<path d="M365.74 203.39H345.62V206.16H365.74V203.39Z" fill="#407BFF"/>
<path d="M365.74 267.86H345.62V270.63H365.74V267.86Z" fill="#407BFF"/>
<path d="M345.62 243.08C345.62 243.23 328.01 243.34 306.28 243.34C284.55 243.34 266.93 243.23 266.93 243.08C266.93 242.93 284.55 242.82 306.28 242.82C328.01 242.82 345.62 242.94 345.62 243.08Z" fill="#263238"/>
<path d="M345.62 249.83C345.62 249.98 328.01 250.09 306.28 250.09C284.55 250.09 266.93 249.98 266.93 249.83C266.93 249.68 284.55 249.57 306.28 249.57C328.01 249.57 345.62 249.69 345.62 249.83Z" fill="#263238"/>
<path d="M345.62 256.58C345.62 256.73 328.01 256.84 306.28 256.84C284.55 256.84 266.93 256.73 266.93 256.58C266.93 256.43 284.55 256.32 306.28 256.32C328.01 256.32 345.62 256.44 345.62 256.58Z" fill="#263238"/>
<path d="M292.22 268.74C292.22 268.88 286.73 269 279.95 269C273.17 269 267.69 268.88 267.69 268.74C267.69 268.6 273.18 268.47 279.95 268.47C286.72 268.47 292.22 268.59 292.22 268.74Z" fill="#263238"/>
<path d="M365.74 285.77H264.1V346.63H365.74V285.77Z" fill="#455A64"/>
<path d="M264.1 346.63L306.28 319.03L319.2 328.23L345.62 310.53L365.74 326.1V346.63H264.1Z" fill="#263238"/>
<path d="M322.12 313.9C326.096 313.9 329.32 310.676 329.32 306.7C329.32 302.724 326.096 299.5 322.12 299.5C318.144 299.5 314.92 302.724 314.92 306.7C314.92 310.676 318.144 313.9 322.12 313.9Z" fill="#263238"/>
<path d="M223.14 211.84H212.55V222.43H223.14V211.84Z" fill="#E0E0E0"/>
<path d="M236.03 211.84H225.44V222.43H236.03V211.84Z" fill="#EBEBEB"/>
<path d="M249.01 211.84H238.42V222.43H249.01V211.84Z" fill="#EBEBEB"/>
<path d="M223.14 224.49H212.55V235.08H223.14V224.49Z" fill="#EBEBEB"/>
<path d="M236.03 224.49H225.44V235.08H236.03V224.49Z" fill="#F5F5F5"/>
<path d="M249.01 224.49H238.42V235.08H249.01V224.49Z" fill="#E0E0E0"/>
<path d="M223.14 237.15H212.55V247.74H223.14V237.15Z" fill="#E0E0E0"/>
<path d="M236.03 237.15H225.44V247.74H236.03V237.15Z" fill="#EBEBEB"/>
<path d="M249.01 237.15H238.42V247.74H249.01V237.15Z" fill="#E0E0E0"/>
<path d="M261.501 94.0898L202.752 94.4487L203.111 153.198L261.86 152.839L261.501 94.0898Z" fill="#407BFF"/>
<path opacity="0.2" d="M244.75 124.91C244.561 125.126 244.464 125.407 244.481 125.694C244.498 125.98 244.627 126.248 244.84 126.44C245.054 126.631 245.334 126.729 245.62 126.713C245.906 126.697 246.174 126.569 246.365 126.355C246.556 126.142 246.654 125.861 246.638 125.575C246.622 125.289 246.494 125.021 246.28 124.83C246.066 124.639 245.785 124.541 245.499 124.556C245.212 124.571 244.943 124.698 244.75 124.91V124.91Z" fill="black"/>
<path opacity="0.2" d="M247.33 123.77C246.895 123.45 246.37 123.277 245.83 123.277C245.29 123.277 244.765 123.45 244.33 123.77C244.01 124.02 243.89 124.26 243.95 124.31C244.01 124.36 244.8 123.9 245.82 123.91C246.84 123.92 247.58 124.47 247.69 124.34C247.8 124.21 247.65 124 247.33 123.77Z" fill="black"/>
<path opacity="0.2" d="M235.26 125.28C235.014 125.136 234.721 125.094 234.444 125.163C234.168 125.232 233.929 125.407 233.78 125.65C233.706 125.771 233.656 125.905 233.634 126.045C233.611 126.185 233.617 126.328 233.651 126.465C233.684 126.603 233.745 126.733 233.829 126.847C233.913 126.961 234.018 127.057 234.14 127.13C234.386 127.278 234.68 127.324 234.959 127.256C235.238 127.189 235.479 127.014 235.63 126.77C235.775 126.522 235.817 126.228 235.748 125.95C235.679 125.671 235.504 125.431 235.26 125.28V125.28Z" fill="black"/>
<path opacity="0.2" d="M236.22 124.74C235.792 124.414 235.268 124.238 234.73 124.24C234.192 124.239 233.667 124.407 233.23 124.72C232.91 124.97 232.79 125.2 232.85 125.26C232.91 125.32 233.7 124.85 234.73 124.86C235.76 124.87 236.48 125.41 236.6 125.28C236.72 125.15 236.54 125 236.22 124.74Z" fill="black"/>
<path opacity="0.2" d="M242.42 130.06C241.827 128.236 241.05 126.477 240.1 124.81C240.509 126.682 241.105 128.508 241.88 130.26C242.16 130.98 242.44 131.66 242.7 132.34C242.837 132.569 242.907 132.833 242.9 133.1C242.9 133.25 242.67 133.31 242.4 133.34C241.834 133.366 241.276 133.487 240.75 133.7C241.307 133.811 241.878 133.828 242.44 133.75C242.595 133.747 242.749 133.727 242.9 133.69C243.004 133.657 243.098 133.601 243.178 133.526C243.258 133.452 243.32 133.361 243.36 133.26C243.431 132.883 243.375 132.492 243.2 132.15C243 131.47 242.69 130.78 242.42 130.06Z" fill="black"/>
<path opacity="0.1" d="M231.73 143.55C231.73 143.55 234.05 148.89 241.46 148.17V146.25C238.02 146.341 234.631 145.4 231.73 143.55V143.55Z" fill="white"/>
<path opacity="0.2" d="M247.77 116.11L247.67 116.18H247.61C244.444 117.411 240.92 117.336 237.81 115.97C233.81 114.36 229.25 113.78 228.32 114.63C227.39 115.48 227.5 119.47 223.78 120.93C223.78 120.93 224.62 128.28 221.71 128.43H221.65C221.57 126.75 221.5 125.19 221.5 125.19C221.3 125.13 221.096 125.084 220.89 125.05C220.166 124.921 219.424 124.945 218.71 125.12C217.55 125.45 216.49 126.39 216.58 128.79C216.73 132.79 219.91 132.87 221.25 132.64L222.25 153.06L241.54 152.94C241.61 151.38 241.54 150.27 241.54 148.89V148.15C234.13 148.87 231.81 143.53 231.81 143.53C234.703 145.375 238.08 146.315 241.51 146.23V146.33C241.65 146.33 248.92 145.06 248.96 137.7C248.93 132.18 248.16 121.29 247.77 116.11ZM220 130.89C219.885 130.972 219.755 131.028 219.617 131.055C219.479 131.083 219.337 131.081 219.2 131.05C218.786 130.868 218.434 130.568 218.188 130.187C217.943 129.807 217.815 129.363 217.82 128.91C217.788 128.419 217.877 127.928 218.08 127.48C218.146 127.279 218.262 127.098 218.418 126.954C218.574 126.811 218.764 126.709 218.97 126.66C219.145 126.631 219.324 126.671 219.47 126.77C219.572 126.848 219.645 126.957 219.68 127.08C219.73 127.29 219.68 127.39 219.62 127.38C219.56 127.37 219.62 127.27 219.55 127.13C219.501 127.038 219.421 126.965 219.325 126.925C219.228 126.885 219.12 126.879 219.02 126.91C218.864 126.965 218.723 127.057 218.612 127.179C218.5 127.302 218.42 127.45 218.38 127.61C218.219 128.017 218.15 128.454 218.18 128.89C218.174 129.278 218.272 129.661 218.464 129.998C218.656 130.336 218.934 130.616 219.27 130.81C219.482 130.894 219.718 130.894 219.93 130.81C220.07 130.74 220.14 130.66 220.16 130.67C220.18 130.68 220.2 130.76 220 130.89ZM245 121.56C246.46 121.48 247.48 122.2 247.35 122.44C247.22 122.68 246.24 122.53 245.06 122.6C243.88 122.67 242.9 122.94 242.76 122.68C242.62 122.42 243.51 121.63 245 121.56ZM231.36 121.79C231.36 121.49 232.42 121.35 233.64 121.3L235.18 121.22C235.56 121.22 235.82 121.22 235.9 121.31C235.98 121.4 235.81 121.7 235.39 121.93C234.857 122.18 234.278 122.319 233.69 122.34C232.32 122.39 231.3 122.07 231.32 121.79H231.36ZM235.67 126.79C235.519 127.034 235.278 127.209 234.999 127.276C234.72 127.344 234.426 127.298 234.18 127.15C234.058 127.077 233.953 126.981 233.869 126.867C233.785 126.753 233.724 126.623 233.691 126.485C233.657 126.348 233.651 126.205 233.674 126.065C233.696 125.925 233.746 125.791 233.82 125.67C233.969 125.427 234.208 125.252 234.484 125.183C234.761 125.114 235.054 125.156 235.3 125.3C235.532 125.457 235.695 125.697 235.756 125.97C235.817 126.243 235.772 126.529 235.63 126.77L235.67 126.79ZM236.67 125.3C236.55 125.43 235.82 124.88 234.8 124.88C233.78 124.88 233.03 125.41 232.92 125.28C232.81 125.15 232.98 124.99 233.3 124.74C233.737 124.427 234.262 124.259 234.8 124.26C235.338 124.258 235.862 124.434 236.29 124.76C236.54 125 236.65 125.23 236.6 125.28L236.67 125.3ZM239.46 136.36C238.1 135.9 237.46 134.82 237.62 134.76C237.78 134.7 238.44 135.48 239.62 135.87C240.364 136.039 241.119 136.156 241.88 136.22C241.51 136.452 241.087 136.584 240.651 136.605C240.215 136.626 239.781 136.535 239.39 136.34L239.46 136.36ZM243.46 133.28C243.42 133.381 243.358 133.472 243.278 133.547C243.198 133.621 243.104 133.677 243 133.71C242.849 133.747 242.695 133.767 242.54 133.77C241.978 133.848 241.407 133.831 240.85 133.72C241.376 133.507 241.934 133.386 242.5 133.36C242.77 133.36 242.98 133.27 243 133.12C243.007 132.853 242.937 132.589 242.8 132.36C242.54 131.68 242.26 131 241.98 130.28C241.205 128.528 240.609 126.702 240.2 124.83C241.15 126.497 241.927 128.256 242.52 130.08C242.79 130.8 243.05 131.49 243.3 132.17C243.437 132.517 243.458 132.9 243.36 133.26L243.46 133.28ZM246.46 126.37C246.27 126.583 246.003 126.712 245.719 126.729C245.434 126.745 245.154 126.649 244.94 126.46C244.834 126.366 244.748 126.251 244.687 126.123C244.625 125.996 244.59 125.857 244.582 125.715C244.574 125.574 244.594 125.432 244.641 125.298C244.688 125.164 244.76 125.041 244.855 124.935C244.95 124.829 245.064 124.743 245.192 124.682C245.32 124.62 245.458 124.585 245.6 124.577C245.741 124.569 245.883 124.589 246.017 124.636C246.151 124.683 246.274 124.756 246.38 124.85C246.572 125.054 246.677 125.324 246.673 125.604C246.669 125.884 246.557 126.151 246.36 126.35L246.46 126.37ZM247.8 124.37C247.69 124.5 246.96 123.94 245.93 123.94C244.9 123.94 244.17 124.47 244.06 124.34C243.95 124.21 244.12 124.05 244.44 123.8C244.875 123.48 245.4 123.308 245.94 123.308C246.48 123.308 247.005 123.48 247.44 123.8C247.65 124 247.76 124.26 247.7 124.32L247.8 124.37Z" fill="white"/>
<path opacity="0.1" d="M219.31 130.81C218.974 130.616 218.696 130.336 218.504 129.998C218.312 129.661 218.214 129.278 218.22 128.89C218.19 128.454 218.259 128.016 218.42 127.61C218.46 127.45 218.54 127.302 218.652 127.179C218.763 127.057 218.904 126.965 219.06 126.91C219.16 126.879 219.268 126.884 219.365 126.925C219.461 126.965 219.541 127.037 219.59 127.13C219.66 127.27 219.59 127.37 219.66 127.38C219.73 127.39 219.77 127.29 219.72 127.08C219.686 126.957 219.612 126.848 219.51 126.77C219.364 126.671 219.185 126.631 219.01 126.66C218.804 126.709 218.614 126.811 218.458 126.954C218.302 127.098 218.186 127.279 218.12 127.48C217.917 127.928 217.828 128.419 217.86 128.91C217.855 129.363 217.983 129.807 218.229 130.187C218.474 130.568 218.826 130.868 219.24 131.05C219.377 131.081 219.519 131.083 219.657 131.055C219.795 131.028 219.925 130.971 220.04 130.89C220.2 130.76 220.22 130.64 220.2 130.63C220.18 130.62 220.11 130.7 219.97 130.77C219.763 130.867 219.527 130.881 219.31 130.81V130.81Z" fill="white"/>
<path opacity="0.2" d="M221.15 110.47C221.26 110.39 220.77 109.63 219.75 109.32C218.73 109.01 217.89 109.32 217.95 109.49C218.01 109.66 218.74 109.55 219.6 109.82C220.46 110.09 221 110.57 221.15 110.47Z" fill="black"/>
<path opacity="0.2" d="M221.93 110.7C221.644 110.006 221.403 109.295 221.21 108.57C221.148 107.793 221.014 107.023 220.81 106.27C220.501 107.038 220.462 107.887 220.7 108.68C220.826 109.482 221.23 110.215 221.84 110.75C221.84 110.75 221.91 110.75 221.92 110.75C221.93 110.75 221.94 110.73 221.93 110.7Z" fill="black"/>
<path opacity="0.2" d="M245 122.6C246.18 122.53 247.17 122.72 247.29 122.44C247.41 122.16 246.4 121.44 244.94 121.56C243.48 121.68 242.54 122.44 242.7 122.68C242.86 122.92 243.83 122.65 245 122.6Z" fill="black"/>
<path opacity="0.2" d="M233.65 122.34C234.238 122.319 234.817 122.18 235.35 121.93C235.77 121.7 235.94 121.42 235.86 121.31C235.78 121.2 235.52 121.21 235.14 121.22L233.6 121.3C232.38 121.3 231.33 121.49 231.32 121.79C231.31 122.09 232.32 122.39 233.65 122.34Z" fill="black"/>
<path opacity="0.2" d="M237.55 134.74C237.42 134.8 238.03 135.88 239.39 136.34C239.775 136.521 240.198 136.603 240.623 136.579C241.047 136.554 241.459 136.424 241.82 136.2C241.059 136.136 240.304 136.019 239.56 135.85C238.37 135.46 237.67 134.65 237.55 134.74Z" fill="black"/>
<path opacity="0.2" d="M248.17 104C246.89 102.849 245.292 102.112 243.585 101.888C241.879 101.663 240.144 101.96 238.61 102.74C237.21 103.49 236.02 104.63 234.51 105.11C232.7 105.68 230.75 105.19 228.86 105.05C226.97 104.91 224.76 105.29 223.81 106.93C223.2 107.93 223.23 109.38 222.4 110.28C222.263 110.435 222.105 110.569 221.93 110.68C221.93 110.68 221.93 110.68 221.93 110.74C221.93 110.8 221.93 110.74 221.85 110.74C220.68 111.44 219.02 111.24 217.66 111.74C216.885 112.036 216.207 112.539 215.701 113.196C215.195 113.852 214.879 114.636 214.79 115.46C214.72 116.284 214.843 117.114 215.148 117.882C215.454 118.651 215.934 119.338 216.55 119.89C217.327 120.436 218.004 121.113 218.55 121.89C218.938 122.949 218.987 124.102 218.69 125.19C219.404 125.015 220.146 124.991 220.87 125.12C221.076 125.154 221.28 125.2 221.48 125.26C221.48 125.26 221.55 126.82 221.63 128.5H221.69C224.6 128.35 223.76 121 223.76 121C227.48 119.54 227.37 115.55 228.3 114.7C229.23 113.85 233.79 114.43 237.79 116.04C240.9 117.405 244.424 117.481 247.59 116.25H247.65L247.75 116.18L248 116L248.22 115.88C249.031 115.278 249.666 114.47 250.06 113.54C250.757 111.947 250.95 110.179 250.612 108.473C250.274 106.768 249.422 105.207 248.17 104V104Z" fill="black"/>
<path d="M405.34 52.1001L405.57 52.3401H168.7L168.97 52.0801C168.97 173.77 168.97 286.42 168.92 377.69L168.7 377.48L405.6 377.69L168.7 377.91H168.49V377.69C168.49 286.42 168.49 173.77 168.44 52.0801V51.8201H168.73H405.6H405.84V52.0501C405.7 244.67 405.61 375.58 405.6 377.66" fill="#263238"/>
<path d="M84.86 280.11L86.15 282.86C86.6874 284.478 87.3842 286.039 88.23 287.52C88.639 288.269 89.1696 288.945 89.8 289.52C90.5615 290.253 91.4194 290.879 92.35 291.38C92.5334 291.455 92.6903 291.583 92.8007 291.748C92.9111 291.913 92.97 292.107 92.97 292.305C92.97 292.503 92.9111 292.697 92.8007 292.862C92.6903 293.026 92.5334 293.155 92.35 293.23C91.49 293.44 88.99 292.48 86.86 290.23C84.73 287.98 85.06 292.86 85.14 294.65C85.22 296.44 85.25 301.99 84.72 302.46C83.94 303.14 83.07 302.46 83.02 300.64C82.97 298.82 82.46 293.49 81.51 293.58C80.56 293.67 81.16 302.78 81.16 302.78C81.16 302.78 81.6 304.71 80.51 304.86C78.51 305.11 78.65 295.38 78.68 294.45C78.68 293.81 77.68 293.87 77.68 294.57C77.68 295.27 78.46 303.64 76.47 303.93C74.94 304.14 76.47 295.93 75.36 294.27C74.25 292.61 74.82 300.63 73.36 300.77C72.82 300.83 72.36 300.77 72.72 296.15C73.08 291.53 76.06 278.65 76.06 278.65L85 280.24" fill="#FFBE9D"/>
<path d="M120.35 211.92C120.35 211.92 92.35 239.25 91.69 242.79C91.03 246.33 87 285.56 87 285.56L74.2 284.29C74.2 284.29 73 235.93 77 231C81 226.07 97 207.59 97 207.59L120.35 211.92Z" fill="#FFBE9D"/>
<path d="M78.2 236.13C78.2 236.13 78.02 236.03 77.83 235.74C77.5599 235.321 77.4271 234.828 77.45 234.33C77.4577 233.954 77.5519 233.586 77.7254 233.253C77.8988 232.92 78.1468 232.631 78.45 232.41C78.8228 232.127 79.2664 231.952 79.7321 231.904C80.1978 231.857 80.6675 231.938 81.09 232.14C81.5426 232.363 81.8982 232.743 82.09 233.21C82.2657 233.646 82.2657 234.134 82.09 234.57C82.0092 234.751 81.8918 234.913 81.7453 235.047C81.5988 235.181 81.4262 235.283 81.2385 235.347C81.0507 235.41 80.8517 235.435 80.6541 235.418C80.4565 235.401 80.2644 235.344 80.09 235.25C79.8657 235.108 79.6949 234.895 79.6044 234.645C79.5139 234.395 79.5088 234.123 79.59 233.87C79.72 233.52 79.93 233.43 79.93 233.45C79.93 233.47 79.81 233.61 79.76 233.91C79.7088 234.115 79.7239 234.331 79.8029 234.526C79.882 234.722 80.0209 234.888 80.2 235C80.3356 235.063 80.4825 235.098 80.6319 235.104C80.7814 235.109 80.9304 235.084 81.0702 235.031C81.21 234.978 81.3378 234.898 81.446 234.794C81.5541 234.691 81.6405 234.567 81.7 234.43C81.827 234.109 81.827 233.751 81.7 233.43C81.5515 233.063 81.2691 232.766 80.91 232.6C80.5582 232.429 80.1666 232.357 79.7772 232.393C79.3878 232.428 79.0153 232.569 78.7 232.8C78.4221 232.977 78.1879 233.215 78.0147 233.495C77.8416 233.776 77.734 234.092 77.7 234.42C77.6969 235.026 77.8706 235.621 78.2 236.13V236.13Z" fill="#EB996E"/>
<path d="M179.22 142.15C179.03 142.68 176.57 178.02 176.57 178.02L190.75 176.94L194.26 146.19L179.22 142.15Z" fill="#455A64"/>
<path d="M176.57 178.02L174.66 177.47L177.4 141.62L179.45 142.21L176.57 178.02Z" fill="#263238"/>
<path d="M187.34 151.41C187.798 151.41 188.17 151.038 188.17 150.58C188.17 150.122 187.798 149.75 187.34 149.75C186.882 149.75 186.51 150.122 186.51 150.58C186.51 151.038 186.882 151.41 187.34 151.41Z" fill="#263238"/>
<path d="M171.79 195.54L196.79 202.03L192.84 172.41L192.33 170.99L183.17 169.58L184.26 162.82C184.395 162.071 184.683 161.359 185.107 160.727C185.531 160.095 186.081 159.558 186.723 159.15C187.364 158.741 188.084 158.47 188.835 158.353C189.587 158.236 190.355 158.276 191.09 158.47L194.09 159.27C195.158 159.547 196.155 160.047 197.017 160.736C197.879 161.425 198.585 162.289 199.09 163.27C200.82 166.67 202.52 170.39 202.36 170.07L215.76 206.43C216.929 208.761 217.41 211.376 217.148 213.97C216.886 216.564 215.891 219.03 214.28 221.08C209.96 226.69 199.53 222.79 194.62 221.84L162.62 214.79L171.79 195.54Z" fill="#FFBE9D"/>
<path d="M121.91 159.44C122.009 159.728 122.024 160.037 121.953 160.333C121.882 160.629 121.728 160.898 121.51 161.11C121.287 161.313 121.009 161.448 120.711 161.498C120.413 161.547 120.107 161.51 119.83 161.39C118.77 160.93 118.57 159.53 118.71 158.39C118.85 157.25 119.17 156.02 118.63 155C118.124 154.284 117.494 153.664 116.77 153.17C116.204 152.651 115.765 152.008 115.488 151.292C115.21 150.576 115.102 149.805 115.17 149.04C115.258 148.278 115.555 147.556 116.028 146.952C116.501 146.349 117.131 145.888 117.85 145.62C119.33 145.11 121.21 145.47 122.27 144.33C123.03 143.49 123.01 142.2 123.59 141.22C124.48 139.71 126.53 139.37 128.28 139.51C130.03 139.65 131.83 140.11 133.52 139.6C134.92 139.17 136.03 138.11 137.33 137.43C138.75 136.681 140.369 136.396 141.959 136.614C143.549 136.831 145.032 137.541 146.199 138.644C147.365 139.746 148.157 141.187 148.464 142.762C148.771 144.338 148.577 145.97 147.91 147.43C147.474 148.498 146.678 149.379 145.66 149.92" fill="#263238"/>
<path d="M123.66 189.28L140.22 188C140.32 186.07 140.22 178.59 140.22 178.59C140.22 178.59 147.11 177.52 147.22 170.59C147.33 163.66 146.11 147.89 146.11 147.89C142.194 146.209 137.902 145.601 133.673 146.128C129.445 146.656 125.433 148.299 122.05 150.89L121.05 151.68L123.66 189.28Z" fill="#FFBE9D"/>
<path d="M144.46 159.71C144.264 159.532 144.147 159.284 144.134 159.019C144.121 158.755 144.213 158.496 144.39 158.3C144.479 158.203 144.586 158.124 144.705 158.068C144.824 158.012 144.953 157.98 145.084 157.974C145.215 157.968 145.347 157.988 145.47 158.033C145.594 158.078 145.708 158.146 145.805 158.235C145.902 158.324 145.981 158.431 146.037 158.55C146.093 158.669 146.124 158.798 146.131 158.929C146.137 159.06 146.117 159.192 146.072 159.315C146.027 159.439 145.959 159.553 145.87 159.65C145.691 159.844 145.442 159.96 145.177 159.971C144.913 159.982 144.655 159.889 144.46 159.71Z" fill="#263238"/>
<path d="M146.13 158.14C146.02 158.26 145.35 157.74 144.4 157.74C143.45 157.74 142.76 158.22 142.66 158.1C142.56 157.98 142.71 157.83 143.01 157.6C143.42 157.312 143.909 157.158 144.41 157.16C144.91 157.165 145.395 157.334 145.79 157.64C146.08 157.87 146.18 158.09 146.13 158.14Z" fill="#263238"/>
<path d="M135.2 159C135.368 159.104 135.501 159.255 135.583 159.435C135.666 159.614 135.693 159.814 135.661 160.009C135.63 160.204 135.541 160.386 135.407 160.53C135.273 160.675 135.099 160.777 134.906 160.823C134.714 160.869 134.513 160.857 134.328 160.789C134.142 160.72 133.982 160.598 133.865 160.439C133.749 160.279 133.683 160.089 133.675 159.891C133.667 159.694 133.717 159.499 133.82 159.33C133.889 159.217 133.979 159.119 134.085 159.042C134.192 158.964 134.313 158.908 134.441 158.878C134.57 158.847 134.703 158.842 134.833 158.863C134.963 158.884 135.088 158.931 135.2 159Z" fill="#263238"/>
<path d="M135.83 159C135.72 159.12 135.04 158.6 134.09 158.59C133.14 158.58 132.46 159.08 132.35 158.96C132.24 158.84 132.41 158.69 132.71 158.46C133.112 158.163 133.601 158.008 134.1 158.02C134.598 158.026 135.081 158.191 135.48 158.49C135.78 158.71 135.88 158.92 135.83 159Z" fill="#263238"/>
<path d="M139.63 166.8C140.119 166.609 140.636 166.501 141.16 166.48C141.41 166.48 141.61 166.4 141.63 166.26C141.63 166.012 141.569 165.768 141.45 165.55C141.2 164.92 140.96 164.29 140.7 163.62C139.987 161.993 139.441 160.297 139.07 158.56C139.947 160.105 140.661 161.737 141.2 163.43C141.45 164.1 141.68 164.74 141.91 165.38C142.066 165.689 142.115 166.04 142.05 166.38C142.013 166.473 141.955 166.557 141.88 166.625C141.806 166.692 141.717 166.742 141.62 166.77C141.483 166.807 141.342 166.827 141.2 166.83C140.679 166.911 140.148 166.901 139.63 166.8V166.8Z" fill="#263238"/>
<path d="M136.55 167.85C138.029 168.516 139.594 168.971 141.2 169.2C140.878 169.697 140.398 170.072 139.838 170.262C139.277 170.453 138.668 170.448 138.11 170.25C136.05 169.49 136.55 167.85 136.55 167.85Z" fill="white"/>
<path d="M140.19 178.44C137.003 178.505 133.869 177.617 131.19 175.89C131.19 175.89 133.31 180.89 140.19 180.23V178.44Z" fill="#EB996E"/>
<path d="M146.19 149.61C146.19 149.61 142.19 151.94 136.52 149.61C132.82 148.09 128.59 147.53 127.73 148.32C126.87 149.11 126.94 152.79 123.48 154.13C123.48 154.13 124.25 161.13 121.48 161.13C118.71 161.13 119.61 150.08 119.61 150.08L126.2 146.23L133.57 144.23L140.68 144.7L146.24 145.79L146.19 149.61Z" fill="#263238"/>
<path d="M121.82 158.82C121.7 158.82 117.09 157.42 117.24 162.13C117.39 166.84 122.08 165.72 122.09 165.58C122.1 165.44 121.82 158.82 121.82 158.82Z" fill="#FFBE9D"/>
<path d="M120.59 163.84C120.59 163.84 120.51 163.9 120.38 163.97C120.282 164.011 120.176 164.032 120.07 164.032C119.964 164.032 119.858 164.011 119.76 163.97C119.447 163.79 119.189 163.528 119.013 163.213C118.837 162.898 118.75 162.541 118.76 162.18C118.753 161.774 118.835 161.371 119 161C119.037 160.851 119.111 160.714 119.214 160.601C119.316 160.488 119.446 160.401 119.59 160.35C119.685 160.324 119.786 160.331 119.876 160.369C119.967 160.407 120.042 160.474 120.09 160.56C120.15 160.69 120.09 160.79 120.15 160.79C120.21 160.79 120.25 160.71 120.21 160.52C120.174 160.405 120.105 160.304 120.01 160.23C119.876 160.136 119.712 160.096 119.55 160.12C119.358 160.165 119.181 160.258 119.036 160.391C118.89 160.525 118.782 160.693 118.72 160.88C118.531 161.293 118.448 161.747 118.48 162.2C118.469 162.62 118.583 163.035 118.807 163.391C119.031 163.747 119.356 164.028 119.74 164.2C119.867 164.23 119.999 164.232 120.127 164.206C120.254 164.18 120.375 164.127 120.48 164.05C120.59 164 120.61 163.85 120.59 163.84Z" fill="#EB996E"/>
<path d="M118.62 144.23C118.57 144.1 119.35 143.76 120.3 144.06C121.25 144.36 121.7 145.06 121.59 145.15C121.48 145.24 120.94 144.8 120.14 144.56C119.34 144.32 118.66 144.37 118.62 144.23Z" fill="#263238"/>
<path d="M121.3 141.25C121.46 141.25 121.45 142.25 121.67 143.39C121.89 144.53 122.42 145.39 122.3 145.39C122.18 145.39 121.41 144.73 121.16 143.45C120.947 142.723 120.997 141.944 121.3 141.25V141.25Z" fill="#263238"/>
<path d="M141.52 156.59C141.36 156.36 142.24 155.59 143.6 155.54C144.96 155.49 145.91 156.16 145.78 156.4C145.65 156.64 144.78 156.52 143.65 156.58C142.52 156.64 141.66 156.85 141.52 156.59Z" fill="#263238"/>
<path d="M131 155.71C130.85 155.48 131.72 154.71 133.09 154.65C134.46 154.59 135.39 155.27 135.26 155.52C135.13 155.77 134.26 155.63 133.13 155.69C132 155.75 131.09 156 131 155.71Z" fill="#263238"/>
<path d="M92 446.78L90.35 453.68C90.35 453.68 79.08 468.32 75.6 467.61C73.32 467.14 76.12 463.32 80.41 452.19L81.31 447.6L92 446.78Z" fill="#455A64"/>
<path d="M75.11 465.45C75.2521 465.693 75.4602 465.89 75.71 466.02C76.0625 466.175 76.4511 466.229 76.8325 466.176C77.2138 466.123 77.573 465.965 77.87 465.72C79.8488 464.065 81.7225 462.288 83.48 460.4C85.57 458.21 87.32 456.1 88.56 454.55L90 452.7L90.39 452.19C90.4338 452.128 90.4841 452.071 90.54 452.02L90.42 452.22L90.06 452.74C89.75 453.2 89.27 453.85 88.67 454.64C87.1128 456.7 85.4436 458.673 83.67 460.55C81.9092 462.447 80.0143 464.215 78 465.84C77.6261 466.107 77.1876 466.269 76.73 466.31C76.3825 466.333 76.0356 466.257 75.73 466.09C75.5313 465.992 75.3647 465.84 75.25 465.65C75.1881 465.595 75.1401 465.527 75.11 465.45V465.45Z" fill="#263238"/>
<path d="M76.71 460.74C77.0047 460.621 77.3257 460.583 77.64 460.63C78.395 460.706 79.1214 460.96 79.76 461.37C80.4255 461.749 80.9646 462.316 81.31 463C81.4597 463.277 81.5419 463.585 81.55 463.9C81.55 463.9 81.44 463.56 81.18 463.06C80.8121 462.428 80.2844 461.904 79.65 461.54C79.0416 461.152 78.3615 460.89 77.65 460.77C77.3374 460.743 77.0236 460.733 76.71 460.74V460.74Z" fill="#263238"/>
<path d="M87.38 457.3C87.3219 457.196 87.2781 457.085 87.25 456.97C87.1441 456.653 87.0606 456.329 87 456C86.8398 454.923 87.0254 453.824 87.53 452.86C88.0224 451.887 88.8246 451.106 89.81 450.64C90.1072 450.509 90.4196 450.414 90.74 450.36C90.97 450.36 91.1 450.36 91.1 450.36C90.6788 450.473 90.2675 450.62 89.87 450.8C88.9474 451.292 88.2024 452.062 87.74 453C87.2598 453.922 87.0615 454.966 87.17 456C87.26 456.81 87.42 457.29 87.38 457.3Z" fill="#263238"/>
<path d="M91.25 448C91.25 448 91.05 449 90.83 450.2C90.749 450.949 90.5534 451.681 90.25 452.37C90.25 452.37 90.42 451.37 90.63 450.17C90.72 449.418 90.9293 448.686 91.25 448V448Z" fill="#263238"/>
<path d="M80.18 453.17C80.6538 453.034 81.1562 453.034 81.63 453.17C82.1144 453.246 82.5662 453.461 82.93 453.79C82.93 453.85 82.34 453.55 81.58 453.37C80.82 453.19 80.19 453.23 80.18 453.17Z" fill="#263238"/>
<path d="M80 454.35C80.3879 454.189 80.8203 454.171 81.22 454.3C81.6348 454.365 82.0136 454.574 82.29 454.89C82.29 454.94 81.8 454.65 81.17 454.5C80.54 454.35 80 454.41 80 454.35Z" fill="#263238"/>
<path d="M79.05 455.83C79.4374 455.625 79.8858 455.565 80.3134 455.662C80.7411 455.76 81.1196 456.007 81.38 456.36C81.0283 456.158 80.6563 455.994 80.27 455.87C79.8662 455.81 79.4568 455.797 79.05 455.83V455.83Z" fill="#263238"/>
<path d="M81 452.67C81 452.67 81.52 452.53 82.32 452.22C82.7897 452.035 83.2444 451.815 83.68 451.56C83.9389 451.414 84.1893 451.254 84.43 451.08C84.66 450.91 84.91 450.67 84.9 450.4C84.89 450.13 84.56 449.99 84.3 450.06C84.0334 450.149 83.7953 450.308 83.61 450.52C83.19 450.91 82.84 451.28 82.55 451.6C81.97 452.25 81.65 452.68 81.63 452.66C81.6733 452.539 81.7376 452.428 81.82 452.33C82.0122 452.046 82.2191 451.772 82.44 451.51C82.7504 451.114 83.0843 450.736 83.44 450.38C83.6435 450.134 83.9147 449.953 84.22 449.86C84.3108 449.831 84.4066 449.823 84.501 449.835C84.5954 449.847 84.6861 449.879 84.7668 449.93C84.8475 449.98 84.9164 450.047 84.9688 450.127C85.0211 450.206 85.0556 450.296 85.07 450.39C85.0512 450.567 84.9906 450.738 84.8933 450.887C84.7959 451.037 84.6646 451.161 84.51 451.25C84.25 451.43 83.99 451.59 83.74 451.73C83.2875 451.977 82.816 452.188 82.33 452.36C82.0027 452.471 81.6687 452.561 81.33 452.63C81.2219 452.656 81.1112 452.669 81 452.67Z" fill="#263238"/>
<path d="M81.55 452.53C81.55 452.53 81.47 452.04 81.34 451.27C81.2782 450.834 81.1641 450.408 81 450C80.8889 449.76 80.7478 449.535 80.58 449.33C80.41 449.14 80.14 448.97 79.94 449.1C79.74 449.23 79.7 449.53 79.73 449.78C79.7713 450.041 79.8452 450.297 79.95 450.54C80.1353 450.951 80.3814 451.332 80.68 451.67C81.21 452.25 81.61 452.53 81.59 452.56C81.4802 452.518 81.3786 452.457 81.29 452.38C81.0291 452.203 80.7878 451.998 80.57 451.77C80.2411 451.43 79.9707 451.038 79.77 450.61C79.6514 450.356 79.5706 450.087 79.53 449.81C79.4888 449.647 79.4952 449.476 79.5483 449.316C79.6015 449.157 79.6992 449.016 79.83 448.91C79.9907 448.85 80.1672 448.845 80.3306 448.898C80.494 448.951 80.6348 449.057 80.73 449.2C80.913 449.416 81.0614 449.659 81.17 449.92C81.3535 450.354 81.4747 450.812 81.53 451.28C81.58 451.67 81.59 451.99 81.6 452.21C81.5981 452.318 81.5813 452.426 81.55 452.53V452.53Z" fill="#263238"/>
<path d="M148 450.27V441.07L130.78 440.87L130.56 454.32L131.63 454.4C136.38 454.72 155.8 455.7 158.99 454.77C162.62 453.74 148 450.27 148 450.27Z" fill="#455A64"/>
<path d="M130.39 453.92H130.69L131.54 453.99L134.67 454.16C137.31 454.29 140.96 454.42 145 454.47C149.04 454.52 152.69 454.47 155.34 454.47L158.47 454.38H159.32H159.62H158.47H155.34C152.69 454.38 149.04 454.38 145 454.38C140.96 454.38 137.32 454.21 134.67 454.12L131.54 454.01H130.69L130.39 453.92Z" fill="#263238"/>
<path d="M153.59 454.69C153.731 454.172 153.932 453.671 154.19 453.2C154.502 452.762 154.868 452.365 155.28 452.02C154.738 452.201 154.287 452.584 154.02 453.09C153.683 453.551 153.53 454.122 153.59 454.69V454.69Z" fill="#263238"/>
<path d="M148.54 452C148.59 452 148.84 451.74 149.09 451.35C149.34 450.96 149.52 450.61 149.47 450.58C149.42 450.55 149.17 450.84 148.92 451.24C148.67 451.64 148.49 452 148.54 452Z" fill="#263238"/>
<path d="M147.16 451.29C147.16 451.29 147.47 451.15 147.77 450.89C148.07 450.63 148.28 450.38 148.24 450.34C148.2 450.3 147.93 450.47 147.63 450.73C147.33 450.99 147.12 451.25 147.16 451.29Z" fill="#263238"/>
<path d="M146.3 449.65C146.3 449.71 146.7 449.77 147.19 449.78C147.492 449.815 147.799 449.788 148.09 449.7C148.09 449.64 147.69 449.58 147.2 449.57C146.898 449.528 146.59 449.555 146.3 449.65V449.65Z" fill="#263238"/>
<path d="M146 448.5C146.293 448.705 146.643 448.813 147 448.81C147.339 448.87 147.688 448.825 148 448.68C147.67 448.623 147.335 448.596 147 448.6C146.671 448.534 146.336 448.5 146 448.5V448.5Z" fill="#263238"/>
<path d="M149.14 450.55C149.508 450.611 149.883 450.611 150.25 450.55C150.65 450.501 151.045 450.417 151.43 450.3C151.667 450.239 151.896 450.148 152.11 450.03C152.242 449.955 152.342 449.834 152.39 449.69C152.409 449.609 152.404 449.524 152.375 449.446C152.347 449.368 152.296 449.3 152.23 449.25C151.812 449.03 151.329 448.966 150.868 449.069C150.406 449.171 149.996 449.434 149.71 449.81C149.539 450.026 149.414 450.274 149.34 450.54C149.29 450.73 149.29 450.84 149.34 450.84C149.459 450.501 149.631 450.184 149.85 449.9C150.12 449.609 150.467 449.401 150.85 449.3C151.065 449.231 151.291 449.205 151.516 449.224C151.741 449.243 151.96 449.306 152.16 449.41C152.34 449.54 152.27 449.75 152.07 449.86C151.87 449.969 151.659 450.056 151.44 450.12C151.069 450.245 150.687 450.339 150.3 450.4C149.57 450.52 149.14 450.52 149.14 450.55Z" fill="#263238"/>
<path d="M149.43 450.61C149.569 450.379 149.619 450.105 149.57 449.84C149.535 449.552 149.436 449.275 149.28 449.03C149.188 448.864 149.055 448.723 148.894 448.622C148.734 448.521 148.55 448.461 148.36 448.45C148.248 448.474 148.149 448.54 148.083 448.635C148.018 448.73 147.992 448.846 148.01 448.96C148.038 449.138 148.103 449.308 148.2 449.46C148.342 449.703 148.513 449.928 148.71 450.13C148.877 450.334 149.094 450.493 149.34 450.59C149.34 450.59 149.12 450.39 148.82 450.03C148.644 449.823 148.489 449.599 148.36 449.36C148.22 449.13 148.12 448.71 148.36 448.66C148.6 448.61 148.92 448.91 149.09 449.14C149.241 449.355 149.343 449.601 149.39 449.86C149.424 450.108 149.438 450.359 149.43 450.61V450.61Z" fill="#263238"/>
<path d="M130.8 449.21C130.8 449.21 131.3 449.21 132.08 449.27C133.089 449.408 134.043 449.815 134.84 450.45C135.622 451.102 136.21 451.956 136.54 452.92C136.8 453.67 136.81 454.16 136.85 454.16C136.89 454.16 136.85 454.03 136.85 453.81C136.782 453.128 136.579 452.466 136.255 451.862C135.931 451.258 135.491 450.724 134.96 450.29C134.139 449.62 133.135 449.213 132.08 449.12C131.748 449.084 131.412 449.084 131.08 449.12C130.983 449.139 130.889 449.169 130.8 449.21Z" fill="#263238"/>
<path d="M132.68 442.07C132.487 444.421 132.427 446.782 132.5 449.14C132.707 446.789 132.767 444.428 132.68 442.07V442.07Z" fill="#263238"/>
<path d="M139.07 452.61C139.891 452.809 140.735 452.903 141.58 452.89C142.424 452.938 143.27 452.881 144.1 452.72C144.1 452.66 142.97 452.72 141.58 452.72C140.19 452.72 139.07 452.55 139.07 452.61Z" fill="#263238"/>
<path d="M135.69 452.56C135.69 452.56 135.78 452.8 135.89 453.06C136 453.32 136.06 453.55 136.12 453.54C136.18 453.53 136.21 453.27 136.12 452.97C136.03 452.67 135.73 452.52 135.69 452.56Z" fill="#263238"/>
<path d="M134.44 451C134.44 451 134.51 451.22 134.68 451.4C134.85 451.58 135.03 451.7 135.08 451.66C135.13 451.62 135.01 451.44 134.83 451.26C134.65 451.08 134.48 450.92 134.44 451Z" fill="#263238"/>
<path d="M132.63 450.21C132.63 450.27 132.87 450.27 133.12 450.36C133.37 450.45 133.55 450.59 133.6 450.55C133.65 450.51 133.5 450.28 133.19 450.17C132.88 450.06 132.61 450.16 132.63 450.21Z" fill="#263238"/>
<path d="M131.34 449.85C131.34 449.91 131.41 450 131.55 450.05C131.69 450.1 131.83 450.11 131.85 450.05C131.87 449.99 131.78 449.91 131.63 449.85C131.48 449.79 131.36 449.8 131.34 449.85Z" fill="#263238"/>
<path d="M159.74 267.66L151.7 446.31L124.88 446.87L129.34 297.31L99.17 448.01H73.67L107.72 267.66" fill="#263238"/>
<path d="M80.09 445.43C80.23 445.43 80.29 445.8 80.22 446.21C80.15 446.62 79.98 446.93 79.84 446.91C79.7 446.89 79.64 446.53 79.71 446.12C79.78 445.71 80 445.4 80.09 445.43Z" fill="#455A64"/>
<path d="M81.07 439.58C81.21 439.58 81.22 440.28 81.07 441.08C80.92 441.88 80.71 442.53 80.57 442.5C80.43 442.47 80.42 441.81 80.57 441C80.72 440.19 80.93 439.56 81.07 439.58Z" fill="#455A64"/>
<path d="M82.05 433.73C82.19 433.73 82.2 434.43 82.05 435.24C81.9 436.05 81.69 436.68 81.55 436.65C81.41 436.62 81.4 435.96 81.55 435.15C81.7 434.34 81.91 433.71 82.05 433.73Z" fill="#455A64"/>
<path d="M83 427.88C83.14 427.88 83.14 428.58 83 429.39C82.86 430.2 82.64 430.83 82.49 430.8C82.34 430.77 82.35 430.11 82.49 429.3C82.63 428.49 82.89 427.86 83 427.88Z" fill="#455A64"/>
<path d="M84 422C84.14 422 84.15 422.7 84 423.5C83.85 424.3 83.64 424.95 83.5 424.92C83.36 424.89 83.35 424.23 83.5 423.42C83.65 422.61 83.88 422 84 422Z" fill="#455A64"/>
<path d="M85 416.18C85.14 416.18 85.15 416.88 85 417.68C84.85 418.48 84.64 419.13 84.5 419.1C84.36 419.07 84.35 418.41 84.5 417.6C84.65 416.79 84.87 416.15 85 416.18Z" fill="#455A64"/>
<path d="M86 410.33C86.14 410.33 86.15 411.03 86 411.83C85.85 412.63 85.64 413.28 85.49 413.25C85.34 413.22 85.35 412.56 85.49 411.75C85.63 410.94 85.86 410.3 86 410.33Z" fill="#455A64"/>
<path d="M87 404.48C87.14 404.48 87.15 405.18 87 405.99C86.85 406.8 86.64 407.43 86.5 407.41C86.36 407.39 86.35 406.71 86.5 405.9C86.65 405.09 86.85 404.45 87 404.48Z" fill="#455A64"/>
<path d="M88 398.63C88.14 398.63 88.14 399.33 88 400.14C87.86 400.95 87.63 401.58 87.49 401.55C87.35 401.52 87.35 400.86 87.49 400.05C87.63 399.24 87.85 398.61 88 398.63Z" fill="#455A64"/>
<path d="M89 392.78C89.14 392.78 89.14 393.48 89 394.29C88.86 395.1 88.63 395.73 88.49 395.71C88.35 395.69 88.34 395.01 88.49 394.2C88.64 393.39 88.85 392.76 89 392.78Z" fill="#455A64"/>
<path d="M90 386.93C90.15 386.93 90.15 387.63 90 388.44C89.85 389.25 89.63 389.88 89.49 389.86C89.35 389.84 89.35 389.16 89.49 388.35C89.63 387.54 89.85 386.91 90 386.93Z" fill="#455A64"/>
<path d="M91 381.09C91.15 381.09 91.15 381.79 91 382.59C90.85 383.39 90.64 384 90.5 384C90.36 384 90.36 383.3 90.5 382.49C90.64 381.68 90.86 381.06 91 381.09Z" fill="#455A64"/>
<path d="M92 375.24C92.14 375.24 92.14 375.94 92 376.75C91.86 377.56 91.63 378.19 91.49 378.16C91.35 378.13 91.35 377.46 91.49 376.66C91.63 375.86 91.88 375.22 92 375.24Z" fill="#455A64"/>
<path d="M93 369.4C93.14 369.4 93.14 370.09 93 370.9C92.86 371.71 92.63 372.34 92.49 372.32C92.35 372.3 92.35 371.62 92.49 370.81C92.63 370 92.9 369.37 93 369.4Z" fill="#455A64"/>
<path d="M94.07 363.55C94.21 363.55 94.21 364.25 94.07 365.06C93.93 365.87 93.69 366.5 93.55 366.47C93.41 366.44 93.41 365.77 93.55 364.97C93.69 364.17 93.93 363.53 94.07 363.55Z" fill="#455A64"/>
<path d="M95.1 357.71C95.24 357.71 95.24 358.41 95.1 359.22C94.96 360.03 94.73 360.66 94.58 360.63C94.43 360.6 94.44 359.93 94.58 359.12C94.72 358.31 95 357.68 95.1 357.71Z" fill="#455A64"/>
<path d="M96.14 351.87C96.28 351.87 96.28 352.57 96.14 353.37C96 354.17 95.76 354.81 95.62 354.79C95.48 354.77 95.48 354.09 95.62 353.28C95.76 352.47 96 351.84 96.14 351.87Z" fill="#455A64"/>
<path d="M97.19 346C97.33 346 97.33 346.7 97.19 347.5C97.05 348.3 96.81 348.94 96.67 348.92C96.53 348.9 96.53 348.22 96.67 347.41C96.81 346.6 97.05 346 97.19 346Z" fill="#455A64"/>
<path d="M98.25 340.19C98.39 340.19 98.39 340.89 98.25 341.69C98.11 342.49 97.87 343.13 97.73 343.11C97.59 343.09 97.59 342.41 97.73 341.6C97.87 340.79 98.11 340.16 98.25 340.19Z" fill="#455A64"/>
<path d="M99.31 334.35C99.46 334.35 99.45 335.05 99.31 335.86C99.17 336.67 98.93 337.3 98.79 337.27C98.65 337.24 98.65 336.57 98.79 335.76C98.93 334.95 99.17 334.33 99.31 334.35Z" fill="#455A64"/>
<path d="M100.39 328.52C100.53 328.52 100.53 329.22 100.39 330.02C100.25 330.82 100 331.46 99.86 331.43C99.72 331.4 99.73 330.73 99.86 329.93C99.99 329.13 100.25 328.49 100.39 328.52Z" fill="#455A64"/>
<path d="M101.48 322.68C101.62 322.68 101.61 323.38 101.48 324.19C101.35 325 101.09 325.63 100.95 325.6C100.81 325.57 100.82 324.9 100.95 324.09C101.08 323.28 101.33 322.66 101.48 322.68Z" fill="#455A64"/>
<path d="M102.57 316.85C102.71 316.85 102.7 317.55 102.57 318.36C102.44 319.17 102.18 319.79 102.04 319.77C101.9 319.75 101.91 319.07 102.04 318.26C102.17 317.45 102.43 316.83 102.57 316.85Z" fill="#455A64"/>
<path d="M103.68 311C103.82 311 103.81 311.7 103.68 312.51C103.55 313.32 103.28 313.94 103.14 313.92C103 313.9 103.01 313.22 103.14 312.41C103.27 311.6 103.54 311 103.68 311Z" fill="#455A64"/>
<path d="M104.8 305.2C104.94 305.2 104.93 305.9 104.8 306.7C104.67 307.5 104.41 308.14 104.27 308.11C104.13 308.08 104.14 307.41 104.27 306.6C104.4 305.79 104.66 305.17 104.8 305.2Z" fill="#455A64"/>
<path d="M105.93 299.37C106.07 299.37 106.06 300.07 105.93 300.88C105.8 301.69 105.53 302.31 105.39 302.28C105.25 302.25 105.26 301.58 105.39 300.78C105.52 299.98 105.79 299.34 105.93 299.37Z" fill="#455A64"/>
<path d="M107.07 293.55C107.21 293.55 107.2 294.25 107.07 295.05C106.94 295.85 106.67 296.49 106.53 296.46C106.39 296.43 106.4 295.76 106.53 294.95C106.66 294.14 106.93 293.52 107.07 293.55Z" fill="#455A64"/>
<path d="M108.23 287.73C108.37 287.73 108.36 288.43 108.23 289.24C108.1 290.05 107.82 290.67 107.68 290.64C107.54 290.61 107.55 289.94 107.68 289.13C107.81 288.32 108.09 287.7 108.23 287.73Z" fill="#455A64"/>
<path d="M109.4 281.91C109.55 281.91 109.53 282.62 109.4 283.42C109.27 284.22 108.99 284.85 108.85 284.82C108.71 284.79 108.72 284.12 108.85 283.32C108.98 282.52 109.26 281.88 109.4 281.91Z" fill="#455A64"/>
<path d="M110.59 276.1C110.73 276.1 110.72 276.8 110.59 277.6C110.46 278.4 110.14 279 110 279C109.86 279 109.88 278.29 110 277.49C110.12 276.69 110.45 276.07 110.59 276.1Z" fill="#455A64"/>
<path d="M111.5 271.72C111.64 271.72 111.69 272.1 111.6 272.5C111.51 272.9 111.34 273.21 111.2 273.18C111.06 273.15 111.01 272.8 111.09 272.4C111.17 272 111.36 271.69 111.5 271.72Z" fill="#455A64"/>
<path d="M129.51 445.41C129.65 445.41 129.75 445.76 129.73 446.17C129.71 446.58 129.57 446.91 129.43 446.91C129.29 446.91 129.19 446.56 129.21 446.14C129.23 445.72 129.36 445.4 129.51 445.41Z" fill="#455A64"/>
<path d="M129.75 439.46C129.9 439.46 129.99 440.13 129.96 440.96C129.93 441.79 129.78 442.44 129.64 442.43C129.5 442.42 129.4 441.76 129.44 440.94C129.48 440.12 129.61 439.45 129.75 439.46Z" fill="#455A64"/>
<path d="M129.94 433.5C130.08 433.5 130.18 434.18 130.15 435C130.12 435.82 129.99 436.48 129.85 436.48C129.71 436.48 129.61 435.81 129.63 434.98C129.65 434.15 129.79 433.5 129.94 433.5Z" fill="#455A64"/>
<path d="M130.09 427.55C130.23 427.55 130.33 428.22 130.31 429.04C130.29 429.86 130.16 430.53 130.01 430.53C129.86 430.53 129.77 429.85 129.79 429.03C129.81 428.21 129.94 427.55 130.09 427.55Z" fill="#455A64"/>
<path d="M130.23 421.59C130.37 421.59 130.47 422.27 130.45 423.09C130.43 423.91 130.3 424.58 130.16 424.57C130.02 424.56 129.91 423.9 129.93 423.08C129.95 422.26 130.08 421.59 130.23 421.59Z" fill="#455A64"/>
<path d="M130.38 415.63C130.53 415.63 130.63 416.31 130.6 417.13C130.57 417.95 130.45 418.62 130.3 418.61C130.15 418.6 130.06 417.94 130.08 417.12C130.1 416.3 130.24 415.63 130.38 415.63Z" fill="#455A64"/>
<path d="M130.58 409.68C130.72 409.68 130.82 410.35 130.79 411.18C130.76 412.01 130.62 412.66 130.47 412.65C130.32 412.64 130.24 411.98 130.27 411.16C130.3 410.34 130.44 409.67 130.58 409.68Z" fill="#455A64"/>
<path d="M130.83 403.73C130.97 403.73 131.06 404.4 131.03 405.22C131 406.04 130.85 406.71 130.71 406.7C130.57 406.69 130.47 406.02 130.51 405.2C130.55 404.38 130.69 403.72 130.83 403.73Z" fill="#455A64"/>
<path d="M131.06 397.77C131.21 397.77 131.3 398.45 131.27 399.27C131.24 400.09 131.09 400.75 130.95 400.75C130.81 400.75 130.71 400.07 130.75 399.25C130.79 398.43 130.92 397.77 131.06 397.77Z" fill="#455A64"/>
<path d="M131.27 391.82C131.41 391.82 131.51 392.49 131.48 393.32C131.45 394.15 131.31 394.8 131.17 394.8C131.03 394.8 130.93 394.12 130.96 393.3C130.99 392.48 131.13 391.81 131.27 391.82Z" fill="#455A64"/>
<path d="M131.45 385.86C131.6 385.86 131.69 386.53 131.67 387.36C131.65 388.19 131.51 388.84 131.36 388.84C131.21 388.84 131.12 388.16 131.15 387.34C131.18 386.52 131.31 385.86 131.45 385.86Z" fill="#455A64"/>
<path d="M131.61 379.91C131.75 379.91 131.85 380.58 131.83 381.4C131.81 382.22 131.68 382.89 131.53 382.88C131.38 382.87 131.29 382.21 131.31 381.39C131.33 380.57 131.46 379.9 131.61 379.91Z" fill="#455A64"/>
<path d="M131.74 374C131.88 374 131.98 374.67 131.97 375.49C131.96 376.31 131.82 376.98 131.68 376.98C131.54 376.98 131.43 376.31 131.45 375.48C131.47 374.65 131.59 374 131.74 374Z" fill="#455A64"/>
<path d="M131.84 368C131.98 368 132.09 368.68 132.07 369.5C132.05 370.32 131.93 370.98 131.79 370.98C131.65 370.98 131.54 370.31 131.55 369.49C131.56 368.67 131.69 368 131.84 368Z" fill="#455A64"/>
<path d="M131.91 362C132.05 362 132.16 362.67 132.15 363.49C132.14 364.31 132 365 131.88 365C131.76 365 131.62 364.33 131.63 363.5C131.64 362.67 131.76 362 131.91 362Z" fill="#455A64"/>
<path d="M132 356.08C132.14 356.08 132.26 356.75 132.25 357.57C132.24 358.39 132.13 359.06 131.98 359.06C131.83 359.06 131.73 358.39 131.73 357.57C131.73 356.75 131.81 356.08 132 356.08Z" fill="#455A64"/>
<path d="M132 350.13C132.15 350.13 132.26 350.79 132.26 351.61C132.26 352.43 132.14 353.1 132 353.1C131.86 353.1 131.74 352.44 131.74 351.61C131.74 350.78 131.82 350.13 132 350.13Z" fill="#455A64"/>
<path d="M132 344.17C132.14 344.17 132.26 344.83 132.26 345.66C132.26 346.49 132.15 347.15 132.01 347.15C131.87 347.15 131.75 346.48 131.74 345.66C131.73 344.84 131.8 344.17 132 344.17Z" fill="#455A64"/>
<path d="M131.9 338.21C132.04 338.21 132.17 338.88 132.17 339.7C132.17 340.52 132.07 341.19 131.93 341.19C131.79 341.19 131.66 340.53 131.65 339.7C131.64 338.87 131.76 338.21 131.9 338.21Z" fill="#455A64"/>
<path d="M131.82 332.26C131.97 332.26 132.09 332.92 132.1 333.74C132.11 334.56 132.01 335.23 131.87 335.23C131.73 335.23 131.6 334.57 131.58 333.75C131.56 332.93 131.68 332.26 131.82 332.26Z" fill="#455A64"/>
<path d="M131.72 326.3C131.86 326.3 131.99 326.96 132.01 327.79C132.03 328.62 131.92 329.28 131.77 329.28C131.62 329.28 131.5 328.62 131.49 327.8C131.48 326.98 131.57 326.31 131.72 326.3Z" fill="#455A64"/>
<path d="M131.58 320.34C131.73 320.34 131.86 321 131.88 321.83C131.9 322.66 131.8 323.32 131.66 323.32C131.52 323.32 131.38 322.66 131.36 321.84C131.34 321.02 131.44 320.35 131.58 320.34Z" fill="#455A64"/>
<path d="M131.37 314.38C131.52 314.38 131.66 315.04 131.69 315.86C131.72 316.68 131.63 317.36 131.49 317.36C131.35 317.36 131.2 316.71 131.17 315.88C131.14 315.05 131.23 314.39 131.37 314.38Z" fill="#455A64"/>
<path d="M131 308.43C131.14 308.43 131.3 309.08 131.35 309.9C131.4 310.72 131.35 311.4 131.19 311.41C131.03 311.42 130.89 310.76 130.83 309.94C130.77 309.12 130.88 308.45 131 308.43Z" fill="#455A64"/>
<path d="M130.48 302.5C130.62 302.5 130.81 303.14 130.89 303.96C130.97 304.78 130.89 305.45 130.78 305.47C130.67 305.49 130.46 304.83 130.37 304.01C130.28 303.19 130.34 302.52 130.48 302.5Z" fill="#455A64"/>
<path d="M129.9 298.07C130.05 298.07 130.21 298.37 130.27 298.78C130.33 299.19 130.27 299.54 130.12 299.56C129.97 299.58 129.81 299.26 129.75 298.85C129.69 298.44 129.76 298.1 129.9 298.07Z" fill="#455A64"/>
<path d="M133.8 269.92C133.849 270.288 133.849 270.662 133.8 271.03C133.8 271.73 133.75 272.76 133.69 274.03C133.58 276.56 133.4 280.03 133.16 283.91C133.03 285.83 132.91 287.67 132.8 289.35C132.796 290.857 132.577 292.355 132.15 293.8C131.975 294.291 131.699 294.74 131.341 295.118C130.983 295.497 130.55 295.797 130.07 296C129.81 296.107 129.531 296.162 129.25 296.16C129.06 296.16 128.96 296.16 128.96 296.11C129.303 296.05 129.638 295.953 129.96 295.82C130.824 295.371 131.475 294.598 131.77 293.67C132.137 292.25 132.312 290.787 132.29 289.32C132.39 287.63 132.5 285.8 132.61 283.88C132.85 280.02 133.09 276.53 133.3 274C133.4 272.74 133.49 271.72 133.56 271C133.603 270.633 133.683 270.271 133.8 269.92Z" fill="#455A64"/>
<path d="M131.05 272.29C131.05 272.23 131.5 272.29 131.66 272.9C131.705 273.072 131.709 273.253 131.671 273.426C131.633 273.6 131.554 273.763 131.44 273.9C131.285 274.065 131.082 274.178 130.86 274.223C130.638 274.268 130.407 274.242 130.2 274.15C130.005 274.087 129.833 273.968 129.704 273.808C129.576 273.647 129.498 273.453 129.478 273.249C129.459 273.045 129.5 272.84 129.597 272.658C129.693 272.477 129.84 272.328 130.02 272.23C130.55 271.92 130.92 272.18 130.88 272.23C130.84 272.28 130.54 272.23 130.23 272.54C130.148 272.613 130.081 272.702 130.035 272.802C129.988 272.902 129.963 273.01 129.96 273.12C129.969 273.245 130.014 273.365 130.091 273.465C130.167 273.564 130.271 273.639 130.39 273.68C130.504 273.731 130.631 273.749 130.755 273.732C130.878 273.714 130.995 273.661 131.09 273.58C131.164 273.497 131.221 273.401 131.257 273.296C131.293 273.191 131.307 273.08 131.3 272.97C131.27 272.54 131 272.36 131.05 272.29Z" fill="#455A64"/>
<path d="M105.81 276.53C105.81 276.45 106.68 276.82 108.1 277.02C109.949 277.292 111.837 277.032 113.543 276.268C115.249 275.505 116.701 274.27 117.73 272.71C118.53 271.52 118.8 270.65 118.89 270.71C118.784 271.509 118.493 272.273 118.04 272.94C117.043 274.63 115.544 275.969 113.753 276.77C111.961 277.57 109.965 277.794 108.04 277.41C107.239 277.293 106.475 276.992 105.81 276.53V276.53Z" fill="#455A64"/>
<path d="M150.42 269.92C150.5 269.92 150.52 270.66 150.87 271.76C151.302 273.199 152.13 274.488 153.26 275.478C154.39 276.469 155.776 277.121 157.26 277.36C158.4 277.56 159.13 277.48 159.14 277.57C158.521 277.787 157.856 277.842 157.21 277.73C155.619 277.576 154.117 276.927 152.914 275.874C151.712 274.821 150.871 273.417 150.51 271.86C150.306 271.233 150.275 270.563 150.42 269.92V269.92Z" fill="#455A64"/>
<path d="M165.47 274L106.35 269.91L108.4 241.67V225.89L102.66 234.76L84.85 219.26L104.02 194.26C107.265 190.869 111.258 188.284 115.68 186.71C118.03 185.87 120.496 185.398 122.99 185.31V185.31C128.737 187.125 134.903 187.125 140.65 185.31C146.082 185.803 151.456 186.807 156.7 188.31L179.08 194.31L171.71 221.8L158.19 217.25C158.19 217.25 165.61 268.3 165.47 274Z" fill="#407BFF"/>
<path d="M107.86 226.81C108.949 224.469 110.344 222.283 112.01 220.31C111.542 221.515 110.92 222.654 110.16 223.7C109.534 224.833 108.76 225.879 107.86 226.81Z" fill="#263238"/>
<g opacity="0.6">
<path opacity="0.6" d="M178.27 194.61C178.27 194.75 161.69 194.87 141.27 194.87C120.85 194.87 104.27 194.75 104.27 194.61C104.27 194.47 120.84 194.35 141.27 194.35C161.7 194.35 178.27 194.47 178.27 194.61Z" fill="white"/>
</g>
<g opacity="0.6">
<path opacity="0.6" d="M174.69 207.37C174.69 207.52 156.81 207.63 134.75 207.63C112.69 207.63 94.8 207.52 94.8 207.37C94.8 207.22 112.68 207.11 134.8 207.11C156.92 207.11 174.69 207.23 174.69 207.37Z" fill="white"/>
</g>
<g opacity="0.6">
<path opacity="0.6" d="M159.14 221.41C159.14 221.55 143.14 221.67 123.4 221.67C103.66 221.67 87.65 221.55 87.65 221.41C87.65 221.27 103.65 221.15 123.4 221.15C143.15 221.15 159.14 221.27 159.14 221.41Z" fill="white"/>
</g>
<g opacity="0.6">
<path opacity="0.6" d="M161 236.69C161 236.83 149.23 236.95 134.71 236.95C120.19 236.95 108.42 236.83 108.42 236.69C108.42 236.55 120.18 236.43 134.71 236.43C149.24 236.43 161 236.54 161 236.69Z" fill="white"/>
</g>
<g opacity="0.6">
<path opacity="0.6" d="M162.55 252.54C162.55 252.68 150.47 252.8 135.55 252.8C120.63 252.8 108.55 252.68 108.55 252.54C108.55 252.4 120.63 252.28 135.55 252.28C150.47 252.28 162.55 252.4 162.55 252.54Z" fill="white"/>
</g>
<g opacity="0.6">
<path opacity="0.6" d="M165 267.08C165 267.22 151.92 267.34 135.79 267.34C119.66 267.34 106.57 267.22 106.57 267.08C106.57 266.94 119.65 266.82 135.79 266.82C151.93 266.82 165 266.93 165 267.08Z" fill="white"/>
</g>
</svg>
