<svg width="271" height="279" viewBox="0 0 271 279" fill="none" xmlns="http://www.w3.org/2000/svg">
<g clip-path="url(#clip0)">
<path d="M116.436 90.49L114.022 90.3835C114.166 87.0725 115.612 57.8807 121.967 52.5555C122.371 52.1929 122.847 51.9212 123.363 51.7586C123.88 51.596 124.425 51.5462 124.962 51.6127C128.746 52.1425 132.877 58.1784 137.593 70.0654C140.951 78.5288 143.372 86.9677 143.396 87.052L141.073 87.7231C141.049 87.6398 138.658 79.3031 135.343 70.9513C129.49 56.2052 125.901 54.1989 124.629 54.0211C124.425 53.9988 124.219 54.0235 124.025 54.0933C123.832 54.1631 123.657 54.2761 123.514 54.4239C118.824 58.3528 116.815 81.7903 116.436 90.49Z" fill="#13579A"/>
<path d="M95.1057 74.7388L92.6887 135.713L172.435 127.071L162.577 68.2021L95.1057 74.7388Z" fill="#13579A"/>
<path d="M162.577 68.2021L156.711 68.7703L164.518 120.393L92.9681 128.675L92.6887 135.713L172.435 127.071L162.577 68.2021Z" fill="#13579A"/>
<path d="M205.66 173.05L202.344 172.679C202.372 172.417 205.126 146.333 196.195 136.579C195.145 135.393 193.842 134.46 192.384 133.853C190.925 133.245 189.349 132.977 187.773 133.069C168.319 133.626 159.171 167.214 159.081 167.553L155.858 166.686C157.654 160.413 160.15 154.365 163.297 148.657C170.075 136.526 178.506 129.976 187.678 129.714C189.731 129.608 191.783 129.965 193.681 130.76C195.58 131.555 197.278 132.766 198.651 134.307C208.609 145.186 205.785 171.917 205.66 173.05Z" fill="#13579A"/>
<path d="M146.481 149.128L216.876 157.527L215.784 269.827L121.816 258.568L146.481 149.128Z" fill="#13579A"/>
<path d="M216.876 157.527L209.904 156.695L206.509 260.603L123.139 252.695L121.816 258.568L215.784 269.827L216.876 157.527Z" fill="#1976D2"/>
<path d="M234.518 193.217C237.724 193.892 240.778 191.314 241.34 187.453C241.938 188.48 242.536 189.508 243.134 190.537C242.573 194.397 239.516 196.976 236.314 196.301C235.716 195.272 235.117 194.244 234.518 193.217Z" fill="#13579A"/>
<path d="M139.841 275.808C143.047 276.483 146.101 273.904 146.664 270.044C147.262 271.071 147.859 272.099 148.457 273.128C147.897 276.988 144.84 279.568 141.638 278.893C141.04 277.863 140.441 276.835 139.841 275.808Z" fill="#9B9B9B"/>
<path d="M241.678 128.587C243.022 132.155 246.512 133.741 249.477 132.122C249.11 133.297 248.742 134.473 248.374 135.648C245.409 137.264 241.919 135.681 240.576 132.111C240.945 130.938 241.312 129.763 241.678 128.587Z" fill="#1976D2"/>
<path d="M220.932 103.243C221.473 99.3772 219.311 95.7172 216.101 95.0661C216.95 94.3377 217.8 93.6095 218.65 92.8815C221.857 93.5326 224.021 97.1941 223.481 101.058C222.632 101.787 221.782 102.515 220.932 103.243Z" fill="#021193"/>
<path d="M28.2826 87.6429C28.8237 83.7775 26.6617 80.1173 23.4519 79.4662C24.3007 78.7378 25.1503 78.0096 26.0007 77.2817C29.208 77.9327 31.3712 81.5942 30.8314 85.4583C29.9826 86.1867 29.133 86.9149 28.2826 87.6429Z" fill="#1976D2"/>
<path d="M93.9305 224.608C94.4718 220.742 92.3097 217.082 89.1 216.431C89.9487 215.702 90.7983 214.974 91.6487 214.246C94.856 214.897 97.0192 218.559 96.4794 222.424C95.6306 223.151 94.781 223.879 93.9305 224.608Z" fill="#1976D2"/>
<path d="M262.312 79.7562C265.497 80.5643 268.62 78.1104 269.291 74.2732C269.861 75.3245 270.43 76.3766 271 77.4296C270.33 81.263 267.205 83.7184 264.022 82.9125C263.451 81.8613 262.881 80.8091 262.312 79.7562Z" fill="#13579A"/>
<rect x="63.7483" y="92.9226" width="7.57572" height="10.2793" fill="#6979F8"/>
<path d="M195.187 53.3186C191.008 53.4577 194.012 60.862 189.832 61.0042C189.034 60.1968 188.235 59.3895 187.436 58.5822C191.617 58.4423 188.612 51.038 192.792 50.896C193.591 51.7033 194.39 52.5109 195.187 53.3186Z" fill="#1976D2"/>
<path d="M202.783 247.927C198.715 246.767 200.033 254.853 195.963 253.694C195.364 252.666 194.765 251.637 194.167 250.609C198.237 251.77 196.917 243.683 200.988 244.844C201.586 245.872 202.184 246.9 202.783 247.927Z" fill="#13579A"/>
<path d="M81.7958 258.454C78.9222 262.115 85.3935 264.797 82.5198 268.455C81.4821 268.562 80.443 268.673 79.4053 268.779C82.279 265.121 75.8076 262.443 78.6813 258.782C79.7203 258.675 80.7585 258.566 81.7958 258.454Z" fill="#021193"/>
<path d="M174.88 5.70408C170.788 6.75093 174.849 13.3852 170.76 14.4298C169.856 13.8078 168.946 13.188 168.042 12.5644C172.132 11.5205 168.069 4.88859 172.161 3.84167C173.068 4.46522 173.974 5.08602 174.88 5.70408Z" fill="#13579A"/>
<path d="M43.5735 27.5121C45.586 31.9288 49.6883 25.3319 51.6978 29.7473C51.4644 30.9697 51.2338 32.1967 50.9992 33.4199C48.9897 29.0032 44.8899 35.6022 42.8773 31.1855C43.1114 29.9592 43.3434 28.7348 43.5735 27.5121Z" fill="#9B9B9B"/>
<path d="M8.87927 201.172C9.41909 201.074 9.90747 200.788 10.2592 200.364C10.6109 199.941 10.8035 199.406 10.8035 198.854C10.8035 198.302 10.6109 197.768 10.2592 197.344C9.90747 196.921 9.41909 196.635 8.87927 196.537" fill="#13579A"/>
<path d="M227.286 22.0918C225.527 22.0918 224.096 20.3684 224.096 18.2501C224.096 16.1317 225.527 14.4084 227.286 14.4084C229.044 14.4084 230.475 16.1317 230.475 18.2501C230.475 20.3685 229.044 22.0918 227.286 22.0918ZM227.286 15.9323C226.727 15.9878 226.212 16.2618 225.852 16.6953C225.492 17.1288 225.316 17.6871 225.361 18.2501C225.31 18.5335 225.322 18.8248 225.395 19.1033C225.468 19.3817 225.601 19.6407 225.785 19.8617C225.968 20.0828 226.198 20.2606 226.457 20.3827C226.716 20.5047 226.999 20.5679 227.286 20.5679C227.572 20.5679 227.855 20.5047 228.114 20.3827C228.373 20.2606 228.603 20.0828 228.786 19.8617C228.97 19.6407 229.103 19.3817 229.176 19.1033C229.249 18.8248 229.261 18.5335 229.21 18.2501C229.255 17.6871 229.078 17.1288 228.719 16.6953C228.359 16.2619 227.844 15.9879 227.286 15.9323V15.9323Z" fill="#13579A"/>
<path d="M41.6238 167.64C39.8651 167.64 38.4344 165.917 38.4344 163.798C38.4344 161.68 39.8652 159.957 41.6238 159.957C43.3824 159.957 44.8131 161.68 44.8131 163.798C44.8131 165.917 43.3824 167.64 41.6238 167.64ZM41.6238 161.481C41.0839 161.579 40.5956 161.865 40.2439 162.288C39.8922 162.712 39.6995 163.246 39.6995 163.798C39.6995 164.35 39.8922 164.885 40.2439 165.308C40.5956 165.732 41.0839 166.018 41.6238 166.116C42.1636 166.018 42.652 165.732 43.0037 165.308C43.3553 164.885 43.548 164.35 43.548 163.798C43.548 163.246 43.3553 162.712 43.0037 162.288C42.652 161.865 42.1636 161.579 41.6238 161.481V161.481Z" fill="#13579A"/>
</g>
<defs>
<clipPath id="clip0">
<rect width="271" height="279" fill="white"/>
</clipPath>
</defs>
</svg>
