<svg width="667" height="497" viewBox="0 0 667 497" fill="none" xmlns="http://www.w3.org/2000/svg">
<g clip-path="url(#clip0)">
<path d="M0 436.928H666.667V436.594H0V436.928Z" fill="#E7E8E5"/>
<path d="M555.705 458.055H599.868V458.389H555.705V458.055Z" fill="#E7E8E5"/>
<path d="M430.036 461.674H441.627V462.008H430.036V461.674Z" fill="#E7E8E5"/>
<path d="M528.781 445.674H554.371V446.008H528.781V445.674" fill="#E7E8E5"/>
<path d="M69.9453 447.915H127.536V448.248H69.9453V447.915Z" fill="#E7E8E5"/>
<path d="M139.408 447.915H147.852V448.248H139.408V447.915Z" fill="#E7E8E5"/>
<path d="M175.295 453.877H300.196V453.544H175.295V453.877Z" fill="#E7E8E5"/>
<path d="M58.5536 0.33303C54.5401 0.33303 51.276 3.59707 51.276 7.60907V369.519C51.276 373.531 54.5401 376.796 58.5536 376.796H316.019C320.031 376.796 323.295 373.531 323.295 369.519V7.60907C323.295 3.59707 320.031 0.33303 316.019 0.33303H58.5536ZM316.019 377.129H58.5536C54.3568 377.129 50.9426 373.716 50.9426 369.519V7.60907C50.9426 3.41441 54.3568 -0.000303042 58.5536 -0.000303042H316.019C320.213 -0.000303042 323.628 3.41441 323.628 7.60907V369.519C323.628 373.716 320.213 377.129 316.019 377.129Z" fill="#E7E8E5"/>
<path d="M346.949 0.33303C342.937 0.33303 339.673 3.59707 339.673 7.60907V369.519C339.673 373.531 342.937 376.796 346.949 376.796H604.413C608.427 376.796 611.692 373.531 611.692 369.519V7.60907C611.692 3.59707 608.427 0.33303 604.413 0.33303H346.949ZM604.413 377.129H346.949C342.753 377.129 339.34 373.716 339.34 369.519V7.60907C339.34 3.41441 342.753 -0.000303042 346.949 -0.000303042H604.413C608.611 -0.000303042 612.025 3.41441 612.025 7.60907V369.519C612.025 373.716 608.611 377.129 604.413 377.129Z" fill="#E7E8E5"/>
<path d="M497.548 158.893H478.66V100.077H497.548V158.893Z" fill="#E2E2E0"/>
<path d="M548.761 158.893H486.072L476.604 90.0539H539.295L548.761 158.893" fill="#EDEDEB"/>
<path d="M555.552 158.893H490.797L481.329 90.0539H546.084L555.552 158.893Z" fill="#F3F2F1"/>
<path d="M495.476 153.467L487.501 95.4775H541.405L549.381 153.467H495.476" fill="white"/>
<path d="M506.127 135.911L503.133 114.141C502.799 111.707 504.691 109.535 507.149 109.535H526.739C528.764 109.535 530.479 111.029 530.755 113.037L533.748 134.805C534.084 137.241 532.191 139.412 529.732 139.412H510.144C508.119 139.412 506.403 137.917 506.127 135.911" fill="#F3F2F1"/>
<path d="M97.5417 209.846H379.926V35.6404H97.5417V209.846Z" fill="#E2E2E0"/>
<path d="M100.931 209.846H387.18V35.6404H100.931V209.846Z" fill="#EDEDEB"/>
<path d="M97.5417 223.328H379.926V209.847H97.5417V223.328Z" fill="#E2E2E0"/>
<path d="M113.018 223.328H399.267V209.847H113.018V223.328Z" fill="#EDEDEB"/>
<path d="M111.088 199.689H377.024V45.7974H111.088V199.689Z" fill="#FAFAF9"/>
<path d="M130.61 199.689L190.223 45.7974H218.363L158.751 199.689H130.61Z" fill="white"/>
<path d="M164.796 199.689L224.408 45.7974H235.379L175.767 199.689H164.796Z" fill="white"/>
<path d="M269.091 199.689L328.703 45.7974H339.673L280.061 199.689H269.091Z" fill="white"/>
<path d="M375.733 199.689H377.024V45.7974H375.733V199.689Z" fill="#E2E2E0"/>
<path d="M534.219 436.596H594.003V158.893H534.219V436.596Z" fill="#E2E2E0"/>
<path d="M587.989 436.596H594.003V419.49H581.684L587.989 436.596Z" fill="#EDEDEB"/>
<path d="M429.453 436.596H489.239V158.893H429.453V436.596Z" fill="#E2E2E0"/>
<path d="M483.989 426.1H594.002V158.893H483.989V426.1Z" fill="#EDEDEB"/>
<path d="M490.004 436.596H483.989V419.49H496.309L490.004 436.596Z" fill="#EDEDEB"/>
<path d="M488.655 289.84H589.339V163.784H488.655V289.84Z" fill="#E2E2E0"/>
<path d="M549.899 173.596H528.095C518.624 173.596 509.569 169.701 503.056 162.825H574.939C568.424 169.701 559.369 173.596 549.899 173.596Z" fill="#EDEDEB"/>
<path d="M589.339 420.996H488.655V294.942H589.339V420.996Z" fill="#E2E2E0"/>
<path d="M549.899 304.752H528.095C518.624 304.752 509.569 300.857 503.056 293.983H574.939C568.424 300.857 559.371 304.752 549.899 304.752Z" fill="#EDEDEB"/>
<path d="M172.665 246.582H272.164L286.584 305.338H187.085L172.665 246.582Z" fill="#E2E2E0"/>
<path d="M187.085 305.338L187.488 308.586H286.992L286.589 305.338H187.085Z" fill="#E2E2E0"/>
<path d="M175.728 246.582H275.227L289.647 305.338H190.148L175.728 246.582" fill="#EDEDEB"/>
<path d="M192.252 302.654L179.149 249.268H273.121L286.225 302.654H192.252Z" fill="white"/>
<path d="M216.073 305.338L216.476 308.586H326.045L325.643 305.338H216.073" fill="#EDEDEB"/>
<path d="M339.125 436.58H351.048V308.585H339.125V436.58Z" fill="#E2E2E0"/>
<path d="M346.531 436.58H354.811V308.585H346.531V436.58Z" fill="#EDEDEB"/>
<path d="M203.767 323.234H357.375V308.585H203.767V323.234Z" fill="#EDEDEB"/>
<path d="M198.428 436.58H186.505V323.234H198.428V436.58Z" fill="#E2E2E0"/>
<path d="M202.191 436.58H193.911V323.234H202.191V436.58Z" fill="#EDEDEB"/>
<path d="M122.979 436.58H111.056V323.234H122.979V436.58Z" fill="#E2E2E0"/>
<path d="M126.741 436.58H118.461V323.234H126.741V436.58Z" fill="#EDEDEB"/>
<path d="M263.676 436.58H275.598V323.234H263.676V436.58Z" fill="#E2E2E0"/>
<path d="M271.081 436.58H279.362V323.234H271.081V436.58Z" fill="#EDEDEB"/>
<path d="M111.056 323.234H203.767V308.585H111.056V323.234Z" fill="#E2E2E0"/>
<path d="M389.789 436.596H386.887L378.599 395.739L377.143 388.582L368.099 344.06H333.425L314.639 436.596H311.736L330.88 342.352C331.016 341.692 331.592 341.22 332.273 341.22H369.263C369.933 341.22 370.52 341.692 370.645 342.352L378.588 381.457L380.045 388.604L389.789 436.596" fill="#EDEDEB"/>
<path d="M445.452 436.596H442.549L423.751 344.06H389.088L380.045 388.604L378.599 395.739L370.3 436.596H367.397L377.143 388.582L378.588 381.457L386.531 342.352C386.667 341.692 387.253 341.22 387.924 341.22H424.913C425.595 341.22 426.171 341.692 426.307 342.352L445.452 436.596" fill="#EDEDEB"/>
<path d="M359.989 342.637H423.695C435.857 342.637 442.596 334.367 446.033 320.749L447.725 312.961C449.116 306.562 446.739 299.771 441.341 296.063C438.725 294.266 435.557 293.213 432.137 293.213H392.201C383.927 293.213 381.745 295.182 376.032 307.643C370.319 320.105 359.989 342.637 359.989 342.637" fill="#EDEDEB"/>
<path d="M332.391 330.43H394.735V342.637H326.847C325.089 342.637 323.665 341.213 323.665 339.455V339.155C323.665 334.337 327.572 330.43 332.391 330.43Z" fill="#EDEDEB"/>
<path d="M591.852 481.714C591.852 490.053 476.109 496.812 333.333 496.812C190.557 496.812 74.8145 490.053 74.8145 481.714C74.8145 473.377 190.557 466.617 333.333 466.617C476.109 466.617 591.852 473.377 591.852 481.714Z" fill="#F3F2F1"/>
<path d="M270.711 439.065L262.179 444.561L246.711 426.568L255.243 421.074L270.711 439.065Z" fill="#F46B74"/>
<path d="M205.488 468.403L195.685 469.361L185.485 446.03L195.288 445.071L205.488 468.403Z" fill="#F46B74"/>
<path d="M193.628 458.062H190.747L189.191 454.501L193.451 454.392L193.628 458.062Z" fill="#EA5B5B"/>
<path d="M130.973 153.405C128.912 153.593 127.689 152.244 126.333 150.893C124.442 149.009 122.292 147.125 117.245 149.424C106.232 154.438 109.945 162.213 101.353 161.884C92.7599 161.553 86.9823 168.27 88.9085 173.282C90.8339 178.294 93.797 183.009 87.723 185.022C81.649 187.036 77.5011 188.813 78.3897 193.85C79.2787 198.886 83.5751 200.917 76.3157 204.124C69.0563 207.332 69.797 221.232 76.9085 221.245C84.0194 221.257 77.2042 228.186 83.5751 235.217C89.9454 242.246 99.6422 243.282 103.682 239.752C107.723 236.22 112.231 233.405 119.829 238.738C127.427 244.072 140.288 245.405 139.709 236.961C139.131 228.517 131.743 222.961 138.696 218.553C145.649 214.146 154.705 211.985 151.861 203.429C150.065 198.03 144.62 193.453 149.019 189.457C156.149 182.98 156.185 168.313 147.443 164.594C142.361 162.434 147.259 151.924 130.973 153.405" fill="#17282F"/>
<path d="M121.48 219.285C121.245 223.241 120.735 226.855 120.141 230.603C119.52 234.313 118.705 237.997 117.739 241.664C116.78 245.333 115.594 248.969 114.117 252.541C113.394 254.332 112.573 256.101 111.689 257.852C111.247 258.727 110.773 259.595 110.281 260.455C110.047 260.888 109.771 261.309 109.517 261.737L109.128 262.376C108.908 262.705 108.609 263.173 108.255 263.553C107.58 264.356 106.615 265.063 105.63 265.515C104.625 265.988 103.633 266.173 102.747 266.245C100.971 266.364 99.601 266.027 98.4213 265.66C96.074 264.888 94.2702 263.853 92.5573 262.783C89.174 260.616 86.2516 258.228 83.4469 255.732C77.903 250.681 72.8718 245.369 68.1636 239.635L71.903 236.109C74.5625 238.455 77.2806 240.841 80.0333 243.109C82.7609 245.415 85.5396 247.644 88.3729 249.724C91.1838 251.809 94.0464 253.835 96.9098 255.36C98.3208 256.119 99.776 256.744 100.91 257.003C101.467 257.143 101.915 257.121 101.949 257.095C101.961 257.079 101.875 257.085 101.684 257.149C101.509 257.205 101.307 257.381 101.201 257.475L101.135 257.541L101.125 257.552L101.416 257.013C101.606 256.651 101.815 256.305 101.992 255.931C102.365 255.197 102.725 254.455 103.063 253.693C103.74 252.171 104.375 250.617 104.932 249.013C106.055 245.815 106.985 242.501 107.815 239.144C108.631 235.781 109.269 232.353 109.82 228.908C110.391 225.5 110.82 221.913 111.125 218.637L121.48 219.285" fill="#F46B74"/>
<path d="M129.229 220.547C128.696 223.773 126.016 229.867 123.856 234.413C122.282 237.693 121.003 240.16 121.003 240.16L119.136 239.333L103.682 232.453C104.856 224.12 106.763 215.054 115.949 211.027C121.723 208.494 130.176 214.787 129.229 220.547" fill="#406FBF"/>
<path d="M119.136 239.332L118.411 239.009L108.786 234.724L103.682 232.452C104.856 224.119 106.763 215.052 115.949 211.025C115.969 211.017 115.989 211.008 116.009 211C114.43 211.856 113.456 212.412 113.456 212.412C113.456 212.412 113.265 212.553 113.265 213.363C113.266 215.121 114.171 220.036 119.917 233.523C119.492 235.536 119.264 237.673 119.136 239.332Z" fill="#213664"/>
<path d="M121.003 240.16L119.136 239.333C119.264 237.675 119.492 235.537 119.917 233.524C120.543 234.995 121.227 236.569 121.973 238.249C121.672 238.849 121.427 239.332 121.259 239.661C121.094 239.984 121.003 240.16 121.003 240.16Z" fill="#17233E"/>
<path d="M72.4942 239.122L73.7259 230.143L63.6494 233.45C63.6494 233.45 65.2578 238.883 68.8426 241.107L72.4942 239.122" fill="#F46B74"/>
<path d="M69.1537 222.48L62.1304 226.329L63.6496 233.449L73.7261 230.143L69.1537 222.48Z" fill="#F46B74"/>
<path d="M259.028 441.869L268.293 435.224C268.631 434.983 269.072 435.021 269.355 435.316L275.668 441.889C276.323 442.571 276.185 443.759 275.397 444.304C272.128 446.564 270.435 447.491 266.361 450.414C263.855 452.21 258.575 456.556 255.113 459.038C251.728 461.467 249.012 458.229 250.232 456.887C255.697 450.862 257.148 446.755 258.013 443.364C258.169 442.753 258.536 442.222 259.028 441.869" fill="#17282F"/>
<path d="M194.384 466.331H206.423C206.861 466.331 207.256 466.635 207.373 467.062L209.992 476.588C210.263 477.576 209.536 478.484 208.523 478.493C204.28 478.531 202.269 478.513 196.975 478.513C193.717 478.513 185.292 478.513 180.793 478.513C176.395 478.513 175.475 474.065 177.295 473.662C185.456 471.857 190.161 469.365 192.679 466.989C193.133 466.561 193.743 466.331 194.384 466.331" fill="#17282F"/>
<path d="M176.069 256.679C168.483 259.079 152.363 264.172 136.776 269.105C109.576 215.265 113.456 212.412 113.456 212.412C113.456 212.412 119.736 208.825 126.269 205.839C127.256 205.385 128.256 204.945 129.242 204.532C134.896 202.159 140.376 200.652 147.083 198.879C147.976 198.639 148.869 198.425 149.763 198.212C157.403 196.452 164.469 195.799 164.469 195.799C165.056 203.252 165.643 209.559 166.283 215.039C167.109 222.185 168.003 227.905 169.003 232.852C170.883 242.052 173.136 248.585 176.069 256.679" fill="#406FBF"/>
<path d="M136.776 269.105C130.18 256.049 125.413 245.993 121.974 238.248C121.227 236.568 120.543 234.993 119.917 233.523C114.171 220.036 113.266 215.121 113.265 213.363C113.265 212.553 113.456 212.412 113.456 212.412C113.456 212.412 119.736 208.825 126.269 205.839C127.256 205.385 128.256 204.945 129.242 204.532C129.243 204.532 129.243 204.532 129.243 204.532C129.144 204.785 125.79 213.645 138.167 222.465C150.168 207.701 147.088 198.88 147.088 198.88C147.087 198.88 147.087 198.879 147.085 198.879C147.977 198.639 148.871 198.425 149.763 198.212C155.388 196.916 160.704 196.22 163.115 195.944C158.412 196.755 156.425 200.604 156.428 204.94C156.428 205.628 156.479 206.329 156.577 207.032C157.017 210.199 160.007 214.024 162.965 217.12C164.037 222.569 166.484 229.275 169.003 232.852C168.299 229.369 167.647 225.504 167.035 221.025C167.647 225.504 168.299 229.369 169.003 232.852C170.883 242.052 173.136 248.585 176.069 256.679C175.793 256.765 175.507 256.856 175.209 256.951C167.313 259.448 151.796 264.352 136.776 269.105V269.105ZM164.46 195.8C164.467 195.799 164.469 195.799 164.469 195.799C164.467 195.8 164.464 195.8 164.46 195.8Z" fill="#213664"/>
<path d="M169.003 232.852C166.484 229.274 164.037 222.569 162.965 217.12C164.435 218.658 165.897 220.017 167.035 221.025C167.647 225.504 168.299 229.369 169.003 232.852Z" fill="#17233E"/>
<path d="M138.167 222.465C138.167 222.465 148.083 220.321 151.268 224.617C155.639 220.321 154.097 203.491 151.987 197.491C150.32 197.639 147.088 198.88 147.088 198.88L140.093 209.701L138.167 222.465Z" fill="white"/>
<path d="M138.167 222.466C138.167 222.466 131.464 223.962 130.797 229.406C121.496 222.466 122.117 212.29 124.228 206.29C125.746 205.364 129.243 204.533 129.243 204.533L136.24 212.232L138.167 222.466Z" fill="white"/>
<path d="M140.456 187.521C141.731 192.425 143.819 197.278 147.088 198.88C147.088 198.88 150.168 207.701 138.167 222.465C125.609 213.517 129.245 204.526 129.245 204.526C135.164 200.972 133.496 196.273 130.969 192.165L134.452 186.582C135.993 184.11 139.724 184.702 140.456 187.521Z" fill="#F46B74"/>
<path d="M133.326 188.387C133.326 188.385 133.325 188.385 133.325 188.384V188.369L134.445 186.584C134.708 186.167 135.031 185.836 135.393 185.589C135.033 185.836 134.712 186.165 134.452 186.583L133.326 188.387ZM140.667 188.301C140.595 188.041 140.524 187.781 140.456 187.521C140.203 186.541 139.585 185.831 138.824 185.424C139.587 185.829 140.204 186.539 140.459 187.516C140.525 187.779 140.595 188.04 140.667 188.301Z" fill="#111D23"/>
<path d="M137.083 193.836C134.977 193.835 133.397 193.041 133.459 191.051C133.472 190.544 133.419 189.572 133.326 188.387L134.452 186.583C134.712 186.165 135.033 185.836 135.393 185.589C135.948 185.211 136.592 185.029 137.233 185.029C137.784 185.029 138.335 185.164 138.824 185.424C139.585 185.831 140.203 186.541 140.456 187.521C140.524 187.781 140.595 188.041 140.667 188.301C141.084 189.82 141.588 191.313 142.179 192.689C140.493 193.399 138.644 193.836 137.083 193.836Z" fill="#EA5B5B"/>
<path d="M116.336 174.112C119.795 183.571 121.058 187.648 127.396 191.144C136.931 196.404 147.792 190.086 147.228 179.783C146.72 170.511 141.147 156.6 130.574 155.574C120.158 154.563 112.876 164.652 116.336 174.112" fill="#F46B74"/>
<path d="M132.453 162.68C135.043 161.904 137.544 161.14 139.381 160.828C138.573 161.868 136.195 163.508 132.453 162.68V162.68ZM140.848 159.904C137.603 156.768 134.211 153.128 127.653 153.838C120.422 154.622 117.571 158.994 117.571 158.994L111.356 172.582C111.356 172.582 115.212 190.075 121.575 181.9C125.234 177.199 125.384 170.068 123.956 164.731C125.99 164.538 128.653 163.808 131.318 163.019C134.248 164.115 137.544 164.12 139.985 161.875C140.516 161.387 140.908 160.999 141.188 160.695L141.407 160.438C142.172 159.515 141.567 159.615 140.848 159.904Z" fill="#17282F"/>
<path d="M116.819 183.724C117.862 185.532 119.644 186.69 121.308 187.108C123.811 187.736 124.995 185.48 124.242 183.154C123.564 181.059 121.445 178.208 118.96 178.614C116.512 179.012 115.625 181.656 116.819 183.724Z" fill="#F46B74"/>
<path d="M136.773 269.112C136.773 269.112 135.388 349.642 145.963 378.736C156.1 406.626 186.323 454.574 186.323 454.574L203.836 454.124C203.836 454.124 176.012 393.418 171.448 369.402C163.879 329.573 165.549 260.008 165.549 260.008L136.773 269.112" fill="#406FBF"/>
<path d="M166.613 324.465C161.127 313.929 156.168 296.98 153.865 285.696C157.299 293.412 161.527 302.853 166.065 312.85C166.216 316.672 166.396 320.56 166.613 324.465ZM157.185 262.734L157.213 262.652L165.547 260.012C165.547 260.012 165.547 260.026 165.547 260.054L157.185 262.734Z" fill="#2D5BB2"/>
<path d="M183.853 455.482L205.488 454.93L204.237 448.284L180.613 449.404L183.853 455.482" fill="#17282F"/>
<path d="M145.392 266.514C145.392 266.514 172.717 329.042 190.384 364.625C204.655 393.365 249.053 431.932 249.053 431.932L261.22 423.487C261.22 423.487 227.819 377.813 217.965 358.322C186.429 295.941 194.205 270.236 176.069 256.681L145.392 266.514Z" fill="#406FBF"/>
<path d="M249.72 435.959L264.016 425.788L260.769 419.544L245.064 431.428L249.72 435.959" fill="#17282F"/>
<path d="M175.928 254.188L178.813 257.144C179.036 257.373 178.801 257.755 178.347 257.897L137.137 270.936C136.783 271.048 136.435 270.968 136.341 270.752L134.875 267.347C134.772 267.111 135.015 266.807 135.403 266.684L175.195 254.095C175.487 254.003 175.784 254.04 175.928 254.188" fill="#17282F"/>
<path d="M171.992 260.328L173.057 259.991C173.269 259.924 173.396 259.763 173.34 259.633L171.393 255.221C171.337 255.093 171.117 255.043 170.904 255.109L169.839 255.447C169.627 255.513 169.5 255.675 169.556 255.803L171.501 260.215C171.559 260.344 171.779 260.395 171.992 260.328Z" fill="#406FBF"/>
<path d="M140.252 270.369L141.319 270.032C141.531 269.965 141.657 269.804 141.601 269.674L139.655 265.264C139.599 265.134 139.377 265.084 139.165 265.15L138.1 265.488C137.888 265.554 137.76 265.716 137.817 265.845L139.763 270.256C139.82 270.385 140.04 270.436 140.252 270.369Z" fill="#406FBF"/>
<path d="M156.123 265.349L157.188 265.013C157.4 264.945 157.527 264.785 157.471 264.655L155.524 260.243C155.468 260.114 155.247 260.063 155.035 260.131L153.969 260.467C153.757 260.535 153.631 260.695 153.687 260.825L155.632 265.237C155.689 265.366 155.909 265.417 156.123 265.349Z" fill="#406FBF"/>
<path d="M132.923 172.038C133.156 172.822 133.761 173.334 134.273 173.182C134.787 173.029 135.013 172.269 134.78 171.485C134.545 170.701 133.941 170.189 133.428 170.341C132.915 170.494 132.689 171.253 132.923 172.038" fill="#17282F"/>
<path d="M141.789 169.4C142.024 170.184 142.628 170.696 143.141 170.544C143.655 170.39 143.88 169.63 143.647 168.846C143.413 168.062 142.808 167.55 142.296 167.702C141.783 167.856 141.556 168.614 141.789 169.4Z" fill="#17282F"/>
<path d="M142.081 167.813L143.804 166.708C143.804 166.708 143.276 168.469 142.081 167.813Z" fill="#17282F"/>
<path d="M139.58 171.433C139.58 171.433 141.916 174.413 143.867 175.606C143.119 176.882 141.227 176.965 141.227 176.965L139.58 171.433" fill="#F14358"/>
<path d="M138.567 181.258L138.644 181.005C138.605 180.877 138.472 180.805 138.345 180.843C134.912 181.865 132.578 179.941 132.554 179.922L132.216 179.95L132.243 180.289C132.346 180.375 134.791 182.402 138.481 181.303L138.567 181.258Z" fill="#17282F"/>
<path d="M129.568 169.884L129.712 169.681C130.464 167.674 132.187 167.269 132.206 167.265C132.463 167.208 132.628 166.95 132.57 166.69C132.513 166.432 132.255 166.269 131.996 166.326C131.905 166.346 129.745 166.853 128.811 169.345C128.719 169.593 128.845 169.87 129.093 169.964C129.26 170.026 129.44 169.989 129.568 169.884" fill="#17282F"/>
<path d="M144.488 164.371L144.513 164.284C144.564 164.024 144.393 163.772 144.132 163.721C141.521 163.219 139.961 164.797 139.896 164.865C139.712 165.056 139.717 165.36 139.908 165.545C140.099 165.728 140.403 165.724 140.587 165.535C140.645 165.475 141.873 164.265 143.951 164.665C144.181 164.709 144.405 164.581 144.488 164.371Z" fill="#17282F"/>
<path d="M170.439 205.206C172.027 206.4 173.361 207.505 174.752 208.709C176.116 209.9 177.459 211.11 178.772 212.352C181.376 214.858 183.875 217.476 186.248 220.23C188.631 222.974 190.853 225.874 192.899 228.934C193.428 229.681 193.895 230.489 194.393 231.262C194.889 232.038 195.376 232.824 195.82 233.645C196.279 234.478 196.721 235.214 197.192 236.126L197.897 237.606L198.472 239.1C199.856 243.106 200.171 247.052 200.169 250.832C200.093 254.614 199.683 258.278 198.984 261.845C198.293 265.412 197.392 268.89 196.357 272.309C195.244 275.722 194.091 279.032 192.593 282.369L187.773 280.588C188.599 277.385 189.389 274.024 189.977 270.71C190.616 267.396 191.116 264.068 191.407 260.764C191.691 257.462 191.833 254.188 191.625 251.028C191.52 249.457 191.34 247.917 191.06 246.442C190.763 244.978 190.344 243.596 189.847 242.332L189.445 241.412L188.984 240.565C188.631 239.952 188.139 239.224 187.725 238.558C187.308 237.87 186.844 237.205 186.368 236.545C185.888 235.886 185.453 235.206 184.941 234.565C182.996 231.945 180.807 229.476 178.611 227.008C176.395 224.556 174.024 222.218 171.588 219.954C170.383 218.81 169.149 217.694 167.901 216.602C166.664 215.54 165.339 214.413 164.183 213.484L170.439 205.206" fill="#F46B74"/>
<path d="M189.227 277.395L181.924 282.761L191.313 287.693C191.313 287.693 194.095 282.755 193.195 278.633L189.227 277.395Z" fill="#F46B74"/>
<path d="M179.607 291.379L187.26 293.74L191.313 287.694L181.924 282.762L179.607 291.379Z" fill="#F46B74"/>
<path d="M164.471 195.799C169.577 195.569 179.613 208.118 179.613 208.118L169.192 222.859C169.192 222.859 157.484 213.551 156.577 207.033C155.807 201.498 157.967 196.094 164.471 195.799Z" fill="#406FBF"/>
<path d="M169.192 222.859C169.192 222.859 168.321 222.166 167.035 221.026C165.897 220.018 164.435 218.659 162.965 217.121C160.007 214.025 157.017 210.199 156.577 207.033C156.479 206.33 156.428 205.629 156.428 204.941C156.425 200.209 158.792 196.057 164.471 195.799C164.517 195.798 164.564 195.797 164.612 195.797C169.759 195.797 179.613 208.118 179.613 208.118L178.392 209.846L177.475 211.143L171.384 219.761L169.192 222.859" fill="#213664"/>
<path d="M258.452 443.594C256.988 443.71 255.044 444.049 254.703 444.639C254.66 444.713 254.623 444.822 254.717 445.004C254.893 445.339 255.121 445.52 255.416 445.554C256.107 445.637 257.221 444.91 258.452 443.594ZM255.523 446.041L255.359 446.032C254.903 445.978 254.543 445.708 254.292 445.226C254.101 444.863 254.184 444.575 254.287 444.398C254.935 443.277 258.597 443.097 259.013 443.08L259.24 443.216L259.204 443.477C258.356 444.453 256.78 446.041 255.523 446.041" fill="#406FBF"/>
<path d="M255.817 441.035C255.611 441.035 255.433 441.106 255.279 441.248C255.051 441.457 255.076 441.607 255.124 441.712C255.417 442.36 257.311 443.025 258.544 443.089C257.932 442.331 256.791 441.131 255.917 441.04L255.817 441.035ZM258.78 443.572C257.547 443.572 255.132 442.895 254.687 441.911C254.595 441.707 254.507 441.304 254.952 440.895C255.236 440.633 255.576 440.521 255.967 440.563C257.433 440.713 259.147 443.079 259.219 443.18L259.243 443.419L259.049 443.559L258.78 443.572Z" fill="#406FBF"/>
<path d="M187.127 466.241C186.921 466.241 186.759 466.273 186.655 466.342C186.605 466.377 186.555 466.43 186.563 466.571C186.583 466.91 186.72 467.173 186.984 467.371C187.689 467.906 189.353 467.977 191.509 467.578C190.029 466.934 188.093 466.241 187.127 466.241V466.241ZM189.045 468.318C188.115 468.318 187.247 468.174 186.695 467.755C186.316 467.47 186.111 467.081 186.084 466.6C186.063 466.241 186.236 466.045 186.385 465.945C187.479 465.206 191.577 467.067 192.388 467.448L192.524 467.692L192.337 467.9C191.464 468.094 190.205 468.318 189.045 468.318" fill="#406FBF"/>
<path d="M189.292 463.833L189.129 463.844C188.877 463.873 188.741 463.948 188.725 464.066C188.636 464.724 190.531 466.46 191.915 467.221C191.599 466.171 190.733 463.833 189.292 463.833ZM192.285 467.908L192.195 467.889C190.836 467.333 188.096 465.137 188.249 464.001C188.283 463.752 188.453 463.44 189.072 463.366C191.467 463.083 192.477 467.428 192.52 467.613L192.441 467.851L192.285 467.908" fill="#406FBF"/>
<path d="M133.215 170.453L134.937 169.349C134.937 169.349 134.408 171.109 133.215 170.453Z" fill="#17282F"/>
<path d="M384.839 72.9532H191.061C182.261 72.9532 175.409 80.1532 175.833 88.9532L193.996 465.715C194.421 474.515 201.968 481.715 210.768 481.715H404.545C413.345 481.715 420.199 474.515 419.775 465.715L401.611 88.9532C401.187 80.1532 393.64 72.9532 384.839 72.9532Z" fill="#040606"/>
<path d="M391.951 72.9532H198.173C189.373 72.9532 182.52 80.1532 182.944 88.9532L201.108 465.715C201.532 474.515 209.079 481.715 217.879 481.715H411.657C420.457 481.715 427.309 474.515 426.885 465.715L408.721 88.9532C408.297 80.1532 400.751 72.9532 391.951 72.9532" fill="#17282F"/>
<path d="M217.365 474.121C214.473 474.121 211.913 471.679 211.775 468.788L193.611 92.0262C193.472 89.1355 195.796 86.6928 198.687 86.6928H392.464C395.356 86.6928 397.916 89.1355 398.055 92.0262L416.219 468.788C416.359 471.679 414.033 474.121 411.143 474.121H217.365Z" fill="#406FBF"/>
<path d="M275.721 446.676H237.279C235.121 446.676 233.281 444.92 233.177 442.764L230.367 384.478C230.316 383.418 230.683 382.42 231.4 381.666C232.116 380.916 233.093 380.501 234.152 380.501H250.101L250.165 381.835H234.152C233.461 381.835 232.827 382.102 232.365 382.587C231.903 383.073 231.665 383.721 231.699 384.415L234.509 442.7C234.579 444.157 235.821 445.342 237.279 445.342H275.721C276.412 445.342 277.047 445.075 277.509 444.59C277.972 444.104 278.209 443.456 278.176 442.764L277.395 426.56C277.844 426.744 278.297 426.92 278.755 427.089L279.507 442.7C279.559 443.76 279.192 444.757 278.475 445.511C277.759 446.261 276.781 446.676 275.721 446.676Z" fill="#658FD2"/>
<path d="M251.332 395.424H235.959C235.591 395.424 235.292 395.125 235.292 394.757C235.292 394.388 235.591 394.09 235.959 394.09H251.077C251.155 394.537 251.24 394.981 251.332 395.424" fill="#658FD2"/>
<path d="M253.655 402.955H236.323C235.955 402.955 235.656 402.656 235.656 402.288C235.656 401.92 235.955 401.622 236.323 401.622H253.129C253.297 402.07 253.472 402.515 253.655 402.955Z" fill="#658FD2"/>
<path d="M257.701 410.488H236.685C236.317 410.488 236.019 410.189 236.019 409.822C236.019 409.453 236.317 409.155 236.685 409.155H256.839C257.117 409.604 257.407 410.05 257.701 410.488Z" fill="#658FD2"/>
<path d="M264.113 418.02H237.048C236.68 418.02 236.381 417.722 236.381 417.353C236.381 416.985 236.68 416.686 237.048 416.686H262.751C263.195 417.141 263.649 417.585 264.113 418.02Z" fill="#658FD2"/>
<path d="M273.552 425.555H237.412C237.044 425.555 236.745 425.256 236.745 424.888C236.745 424.52 237.044 424.221 237.412 424.221H272.559C273.095 424.524 273.637 424.813 274.187 425.094C274.1 425.361 273.849 425.555 273.552 425.555Z" fill="#658FD2"/>
<path d="M266.504 433.088H237.775C237.407 433.088 237.108 432.789 237.108 432.42C237.108 432.052 237.407 431.755 237.775 431.755H266.504C266.872 431.755 267.171 432.052 267.171 432.42C267.171 432.789 266.872 433.088 266.504 433.088Z" fill="#658FD2"/>
<path d="M425.148 429.676H414.481L414.052 420.769H416.329C419.205 420.769 421.997 420.472 424.677 419.904L425.148 429.676" fill="#111D23"/>
<path d="M414.481 429.676H411.815L411.385 420.769H414.052L414.481 429.676Z" fill="#3563B7"/>
<path d="M411.815 429.676H293.195C288.156 429.676 283.289 428.761 278.755 427.089L276.697 384.415C276.593 382.257 274.753 380.501 272.596 380.501H250.101L246.852 313.104C250.099 313.827 253.796 314.371 257.947 314.736L258.123 318.367C258.261 321.247 260.708 323.58 263.587 323.58C266.465 323.58 268.687 321.247 268.548 318.367L268.372 314.736C274.216 314.497 279.129 313.723 283.112 312.415C284.596 311.927 286.044 311.327 287.455 310.617L290.801 380.047C291.885 402.537 310.997 420.769 333.487 420.769H411.385L411.815 429.676V429.676ZM277.395 426.56C276.304 426.114 275.232 425.624 274.187 425.094C274.208 425.028 274.219 424.96 274.219 424.888C274.219 424.52 273.92 424.221 273.552 424.221H272.559C269.501 422.5 266.664 420.412 264.113 418.021H273.189C273.557 418.021 273.856 417.724 273.856 417.354C273.856 416.987 273.557 416.688 273.189 416.688H262.751C260.885 414.783 259.193 412.708 257.701 410.489H272.825C273.195 410.489 273.492 410.19 273.492 409.823C273.492 409.454 273.195 409.156 272.825 409.156H256.839C255.616 407.185 254.549 405.114 253.655 402.956H272.463C272.831 402.956 273.129 402.657 273.129 402.289C273.129 401.921 272.831 401.623 272.463 401.623H253.129C252.377 399.62 251.773 397.549 251.332 395.424H272.1C272.468 395.424 272.767 395.125 272.767 394.757C272.767 394.388 272.468 394.09 272.1 394.09H251.077C250.784 392.408 250.592 390.692 250.508 388.953L250.165 381.835H272.596C274.053 381.835 275.296 383.021 275.365 384.478L277.395 426.56" fill="#2E5DB3"/>
<path d="M278.755 427.088C278.297 426.919 277.844 426.743 277.395 426.559L275.365 384.477C275.296 383.02 274.053 381.833 272.596 381.833H250.165L250.101 380.5H272.596C274.753 380.5 276.593 382.256 276.697 384.413L278.755 427.088" fill="#4F77C4"/>
<path d="M272.1 395.424H251.332C251.24 394.981 251.155 394.537 251.077 394.09H272.1C272.468 394.09 272.767 394.388 272.767 394.757C272.767 395.125 272.468 395.424 272.1 395.424Z" fill="#4F77C4"/>
<path d="M272.463 402.955H253.655C253.472 402.515 253.297 402.07 253.129 401.622H272.463C272.831 401.622 273.129 401.92 273.129 402.288C273.129 402.656 272.831 402.955 272.463 402.955" fill="#4F77C4"/>
<path d="M272.825 410.488H257.701C257.407 410.05 257.117 409.604 256.839 409.155H272.825C273.195 409.155 273.492 409.453 273.492 409.822C273.492 410.189 273.195 410.488 272.825 410.488Z" fill="#4F77C4"/>
<path d="M273.189 418.02H264.113C263.649 417.585 263.195 417.141 262.751 416.686H273.189C273.557 416.686 273.856 416.985 273.856 417.353C273.856 417.722 273.557 418.02 273.189 418.02Z" fill="#4F77C4"/>
<path d="M274.187 425.094C273.637 424.813 273.095 424.524 272.559 424.221H273.552C273.92 424.221 274.219 424.52 274.219 424.888C274.219 424.96 274.208 425.028 274.187 425.094Z" fill="#4F77C4"/>
<path d="M401.932 122.137H237.645C260.136 122.137 279.247 140.369 280.331 162.86L290.801 380.045C291.885 402.536 310.997 420.768 333.487 420.768H416.329C438.82 420.768 456.172 402.536 455.088 380.045L444.617 162.86C443.533 140.369 424.423 122.137 401.932 122.137" fill="#FAFAF9"/>
<path d="M372.247 380.045C373.331 402.536 355.977 420.768 333.487 420.768H374.209H497.773C520.264 420.768 537.617 402.536 536.533 380.045H372.247Z" fill="#E2E2E0"/>
<path d="M425.068 256.953H308.953C307.289 256.953 305.861 255.592 305.781 253.926C305.701 252.262 306.997 250.9 308.661 250.9H424.776C426.44 250.9 427.868 252.262 427.948 253.926C428.028 255.592 426.732 256.953 425.068 256.953Z" fill="#406FBF"/>
<path d="M425.979 275.85H309.865C308.2 275.85 306.772 274.488 306.692 272.823C306.612 271.159 307.908 269.796 309.573 269.796H425.687C427.352 269.796 428.779 271.159 428.859 272.823C428.94 274.488 427.643 275.85 425.979 275.85Z" fill="#406FBF"/>
<path d="M426.889 294.748H310.776C309.111 294.748 307.684 293.385 307.603 291.721C307.523 290.056 308.82 288.695 310.484 288.695H426.597C428.263 288.695 429.691 290.056 429.771 291.721C429.851 293.385 428.555 294.748 426.889 294.748Z" fill="#406FBF"/>
<path d="M427.801 313.646H311.687C310.023 313.646 308.595 312.284 308.515 310.62C308.435 308.954 309.731 307.593 311.395 307.593H427.509C429.173 307.593 430.601 308.954 430.681 310.62C430.761 312.284 429.465 313.646 427.801 313.646Z" fill="#406FBF"/>
<path d="M382.549 332.543H312.597C310.933 332.543 309.505 331.18 309.425 329.516C309.345 327.852 310.641 326.49 312.307 326.49H382.259C383.923 326.49 385.351 327.852 385.431 329.516C385.511 331.18 384.215 332.543 382.549 332.543Z" fill="#406FBF"/>
<path d="M400.34 191.673C401.312 211.818 385.768 228.15 365.623 228.15C345.476 228.15 328.357 211.818 327.387 191.673C326.415 171.526 341.959 155.196 362.105 155.196C382.251 155.196 399.369 171.526 400.34 191.673Z" fill="#406FBF"/>
<path d="M393.968 191.668C394.219 196.867 393.135 201.748 391.021 206.008C386.396 215.391 376.759 221.773 365.315 221.773C353.869 221.773 343.617 215.391 338.087 206.008C335.563 201.748 334.008 196.867 333.757 191.668C332.956 175.039 345.783 161.563 362.412 161.563C379.04 161.563 393.167 175.039 393.968 191.668Z" fill="white"/>
<path d="M365.315 221.773C353.869 221.773 343.617 215.391 338.087 206.008C345.423 200.945 354.375 197.989 364.168 197.989C373.96 197.989 383.197 200.945 391.021 206.008C386.396 215.391 376.759 221.773 365.315 221.773Z" fill="#A4C3E9"/>
<path d="M364.013 194.779C356.607 194.779 350.313 188.775 349.956 181.369C349.6 173.962 355.313 167.959 362.72 167.959C370.127 167.959 376.42 173.962 376.777 181.369C377.133 188.775 371.42 194.779 364.013 194.779Z" fill="#A4C3E9"/>
<path d="M475.681 471.713H465.887L464.911 449.03H474.705L475.681 471.713" fill="#CD4B4F"/>
<path d="M475.213 460.729H475.209L474.707 449.035H474.712L475.213 460.729Z" fill="#C3C5C2"/>
<path d="M475.209 460.729H465.413L464.913 449.035H474.707L475.209 460.729Z" fill="#9E3A3E"/>
<path d="M559.053 445.135L549.74 448.168L538.032 428.127L547.345 425.092L559.053 445.135" fill="#CD4B4F"/>
<path d="M553.384 435.428L552.215 433.428L552.22 433.425L553.391 435.425L553.384 435.428" fill="#ACAFAD"/>
<path d="M544.073 438.461L542.904 436.461L552.215 433.428L553.384 435.428L544.073 438.461" fill="#9E3A3E"/>
<path d="M508.793 143.952C510.011 145.439 511.044 146.763 512.089 148.205C513.131 149.62 514.145 151.045 515.143 152.488C517.123 155.379 519.011 158.339 520.781 161.391C524.304 167.511 527.504 173.911 529.767 181.012L529.984 181.673L530.096 182.021L530.243 182.567L530.507 183.661L530.656 184.661C530.839 185.997 530.843 187.159 530.797 188.277C530.681 190.493 530.331 192.445 529.916 194.321C529.089 198.064 527.852 201.432 526.568 204.737C523.903 211.313 520.736 217.388 517.033 223.34L510.407 220.152C512.405 213.909 514.351 207.497 515.871 201.275C516.645 198.173 517.253 195.049 517.596 192.157C517.757 190.72 517.829 189.32 517.749 188.169C517.711 187.607 517.655 187.079 517.553 186.755L517.493 186.509L517.424 186.388L517.403 186.324L517.3 186.08L517.076 185.557L516.189 183.469L515.187 181.387C514.525 179.996 513.788 178.607 513.051 177.227C511.537 174.471 509.889 171.737 508.191 169.027C506.464 166.325 504.669 163.647 502.829 160.995C501.029 158.36 499.024 155.672 497.223 153.256L508.793 143.952" fill="#CD4B4F"/>
<path d="M510.975 218.564L507.141 227.037H518.095C518.095 227.037 519.839 220.608 515.867 218.013L510.975 218.564Z" fill="#CD4B4F"/>
<path d="M508.423 236.557L518.587 234.59L518.095 227.037H507.141L508.423 236.557Z" fill="#CD4B4F"/>
<path d="M460.299 100.989C460.299 101.778 459.88 102.418 459.364 102.418C458.848 102.418 458.429 101.778 458.429 100.989C458.429 100.198 458.848 99.558 459.364 99.558C459.88 99.558 460.299 100.198 460.299 100.989Z" fill="#17282F"/>
<path d="M459.953 102.417C459.953 102.417 458.156 106.976 456.179 109.174C457.576 110.48 459.953 109.884 459.953 109.884V102.417Z" fill="#BB2329"/>
<path d="M463.099 96.6094L462.828 96.5214C461.149 95.3121 459.548 95.9094 459.531 95.916C459.292 96.008 459.024 95.8907 458.931 95.6507C458.839 95.412 458.957 95.1427 459.196 95.0507C459.281 95.0187 461.287 94.268 463.371 95.7694C463.579 95.9187 463.625 96.2094 463.475 96.4174C463.385 96.5427 463.243 96.6094 463.099 96.6094" fill="#17282F"/>
<path d="M485.797 110.097C484.393 117.263 482.991 130.393 488.004 135.174C488.004 135.174 486.045 142.443 472.731 142.443C458.089 142.443 465.733 135.175 465.733 135.175C473.724 133.267 473.519 127.338 472.127 121.77L485.797 110.097" fill="#CD4B4F"/>
<path d="M489.923 137.669C490.972 135.368 492.128 132.733 489.737 131.909C487.108 131.002 472.715 130.076 467.751 131.78C462.788 133.484 464.196 138.15 464.196 138.15L489.923 137.669" fill="#17282F"/>
<path d="M545.557 449.998L545.372 450.216C545.261 450.388 545.231 450.559 545.279 450.739C545.391 451.159 545.591 451.191 545.657 451.201C546.34 451.308 547.792 449.932 548.679 448.743C547.711 448.95 546.201 449.382 545.557 449.998V449.998ZM547.733 450.5C547.008 451.194 546.199 451.755 545.585 451.659C545.328 451.619 544.988 451.447 544.831 450.858C544.748 450.548 544.799 450.248 544.983 449.964C545.785 448.73 549.02 448.201 549.157 448.181L549.388 448.282L549.389 448.534C549.111 448.969 548.464 449.802 547.733 450.5" fill="#406FBF"/>
<path d="M545.181 447.074L545.109 447.151C544.917 447.386 544.995 447.504 545.027 447.555C545.384 448.105 547.407 448.414 548.664 448.269C548.011 447.752 546.645 446.779 545.707 446.852C545.492 446.869 545.319 446.941 545.181 447.074V447.074ZM549.355 448.576L549.255 448.632C548.143 448.935 545.243 448.739 544.637 447.807C544.528 447.638 544.397 447.289 544.751 446.856C544.98 446.576 545.291 446.419 545.671 446.389C547.136 446.275 549.259 448.155 549.348 448.236L549.42 448.462L549.355 448.576" fill="#406FBF"/>
<path d="M460.399 470.316C460.235 470.316 460.084 470.332 459.949 470.368C459.736 470.427 459.587 470.534 459.496 470.693C459.331 470.982 459.391 471.124 459.449 471.207C459.905 471.839 462.383 471.853 464.203 471.596C463.295 471.131 461.543 470.316 460.399 470.316ZM461.951 472.215C460.695 472.215 459.48 472.043 459.073 471.477C458.931 471.28 458.819 470.943 459.092 470.464C459.247 470.195 459.493 470.012 459.828 469.922C461.457 469.477 464.881 471.428 465.027 471.512L465.14 471.751L464.956 471.94C464.331 472.064 463.123 472.215 461.951 472.215" fill="#406FBF"/>
<path d="M462.521 467.973L462.381 467.981C461.964 468.024 461.937 468.188 461.929 468.241C461.821 468.906 463.413 470.57 464.62 471.295C464.493 470.525 464.144 468.946 463.327 468.276C463.08 468.073 462.815 467.973 462.521 467.973ZM464.911 471.943L464.816 471.924C463.633 471.393 461.292 469.276 461.471 468.167C461.513 467.907 461.697 467.583 462.335 467.519C462.808 467.471 463.241 467.605 463.621 467.917C464.867 468.94 465.131 471.578 465.141 471.69L465.045 471.901L464.911 471.943" fill="#406FBF"/>
<path d="M548.939 447.084L556.891 439.477C557.18 439.2 557.623 439.161 557.956 439.384L565.372 444.338C566.141 444.853 566.219 445.961 565.54 446.589C562.717 449.196 561.213 450.324 557.716 453.669C555.564 455.726 549.128 462.736 546.156 465.579C543.251 468.357 539.988 465.853 540.949 464.424C545.263 458.015 547.96 451.857 548.205 448.617C548.249 448.033 548.515 447.488 548.939 447.084" fill="#17282F"/>
<path d="M465.951 470.58H476.648C477.048 470.58 477.395 470.857 477.481 471.249L479.416 479.954C479.617 480.857 478.932 481.713 478.008 481.697C474.149 481.632 468.573 481.405 463.723 481.405C458.052 481.405 453.155 481.715 446.504 481.715C442.483 481.715 441.367 477.649 443.051 477.281C450.713 475.605 456.969 475.425 463.591 471.342C464.311 470.899 465.105 470.58 465.951 470.58" fill="#17282F"/>
<path d="M451.971 157.429C448.084 163.156 444.067 168.514 439.744 173.816C435.429 179.088 430.884 184.224 425.872 189.114L423.944 190.93L423.463 191.384L423.119 191.697L422.628 192.12C421.969 192.648 421.287 193.105 420.62 193.465C417.919 194.925 415.508 195.294 413.351 195.5C409.035 195.836 405.369 195.256 401.807 194.548C394.724 193.018 388.333 190.638 382.007 187.589L384.448 180.652C390.735 181.824 397.269 182.872 403.367 183.234C406.388 183.405 409.42 183.357 411.724 182.885C412.853 182.658 413.749 182.237 413.94 182.022L413.972 181.938L413.944 181.942L413.949 181.932L414.048 181.822L414.444 181.388L416.023 179.65C420.189 174.901 424.225 169.84 428.149 164.661C432.077 159.517 435.996 154.182 439.744 149.005L451.971 157.429" fill="#CD4B4F"/>
<path d="M505.543 137.388C514.723 139.493 525.252 164.523 525.252 164.523L506.813 177.16C506.813 177.16 499.828 167.388 494.635 156.455C489.193 145 496.156 135.236 505.543 137.388Z" fill="#406FBF"/>
<path d="M506.817 177.16C506.817 177.16 506.817 177.16 506.816 177.157L507.365 176.781L506.817 177.16" fill="#949696"/>
<path d="M506.816 177.158C506.743 177.056 504.496 173.894 501.619 169.202C501.752 166.76 501.919 164.278 502.128 161.772L507.684 176.561L507.365 176.782L506.816 177.158" fill="#2D5BB2"/>
<path d="M450.667 137.894C450.667 137.894 440.241 149.669 450.087 222.557C465.873 222.557 494.796 222.557 502.477 222.557C502.839 214.514 497.785 175.282 505.543 137.389C505.543 137.389 496.563 135.586 488.004 135.174C481.311 134.851 471.619 134.638 465.733 135.175C457.975 135.883 450.667 137.894 450.667 137.894" fill="#406FBF"/>
<path d="M446.137 181.393C445.924 176.698 445.844 172.486 445.857 168.713L445.859 168.711C445.843 172.481 445.925 176.693 446.139 181.391C446.137 181.391 446.139 181.391 446.137 181.393Z" fill="#949696"/>
<path d="M446.139 181.391C445.925 176.692 445.843 172.48 445.859 168.711L456.484 158.965C456.311 159.179 455.163 171.004 446.139 181.391Z" fill="#2D5BB2"/>
<path d="M461.001 145.835C462.293 155.111 444.019 178.803 444.019 178.803L425.656 166.164C425.656 166.164 430.745 153.107 439.323 144.551C449.116 134.783 459.596 135.741 461.001 145.835" fill="#406FBF"/>
<path d="M385.759 181.357L378.577 173.925L370.911 183.813C370.911 183.813 376.747 189.446 383.7 187.853L385.759 181.357" fill="#CD4B4F"/>
<path d="M368.701 169.834L365.42 180.211L370.911 183.812L378.577 173.925L368.701 169.834" fill="#CD4B4F"/>
<path d="M486.651 99.3126C486.055 109.017 486.199 114.726 481.299 119.706C473.927 127.197 461.949 122.754 459.635 113.069C457.551 104.35 458.875 89.9473 468.373 86.086C477.731 82.282 487.247 89.61 486.651 99.3126" fill="#CD4B4F"/>
<path d="M495.104 79.0629C498.097 81.8163 496.825 84.879 495.271 85.4523C500.104 86.4523 500.819 90.3043 498.272 98.4336C495.833 106.219 489.955 116.658 482.612 117.299C471.575 118.262 468.344 106.763 468.271 95.3496C462.021 95.7256 464.716 90.191 457.056 91.4736C450.436 92.5816 452.888 87.3776 447.228 85.1123C440.657 82.483 441.977 72.3776 448.105 75.2709C448.105 75.2709 445.26 77.1456 448.573 78.8963C451.888 80.6483 451.565 76.5963 458.104 76.1043C464.643 75.6123 465.408 81.2136 473.064 77.8416C482.703 73.595 488.977 73.4269 495.104 79.0629" fill="#17282F"/>
<path d="M491.429 85.3619C491.429 85.3619 492.683 83.0539 495.677 83.6913C498.673 84.3286 498.927 85.6486 500.805 85.4779C502.685 85.3073 502.003 87.3086 502.003 87.3086C502.003 87.3086 501.497 85.7993 499.228 86.6393C496.96 87.4779 495.483 85.4193 494.507 86.3433C493.531 87.2673 491.429 85.3619 491.429 85.3619" fill="#17282F"/>
<path d="M473.499 101.952C473.076 104.463 471.647 106.715 470.069 108.119C467.695 110.229 465.636 108.536 465.565 105.647C465.501 103.045 466.66 98.8132 469.395 97.8012C472.089 96.8052 473.981 99.0812 473.499 101.952Z" fill="#CD4B4F"/>
<path d="M468.672 222.557C468.672 222.557 479.788 297.413 485.891 325.457C492.573 356.168 539.031 437.723 539.031 437.723L556.088 432.165C556.088 432.165 519.089 358.648 515.276 328.241C511.137 295.241 502.477 222.557 502.477 222.557H468.672Z" fill="#17282F"/>
<path d="M534.259 432.327L538.155 438.303L557.347 432.049L555.089 426.318L534.259 432.327" fill="#406FBF"/>
<path d="M483.989 316.109C482.967 310.785 481.867 304.693 480.743 298.225C481.867 304.687 482.965 310.773 483.989 316.096V316.109Z" fill="#949696"/>
<path d="M485.644 324.334C485.124 321.887 484.569 319.121 483.989 316.109V316.095C484.569 319.105 485.124 321.867 485.645 324.317C485.645 324.322 485.644 324.329 485.644 324.334" fill="#9B9D9D"/>
<path d="M485.645 324.316C485.124 321.867 484.569 319.104 483.989 316.095C482.965 310.772 481.867 304.686 480.743 298.224C477.979 282.306 475.069 264.12 472.804 249.574C473.388 249.282 474.023 249.127 474.711 249.127C475.028 249.127 475.357 249.16 475.697 249.227C488.548 251.747 487.192 299.658 485.645 324.316" fill="#0F191D"/>
<path d="M450.087 222.557C450.087 222.557 448.739 295.793 449.804 325.663C450.912 356.733 461.764 458.465 461.764 458.465H478.357C478.357 458.465 478.967 358.549 479.704 328.034C480.509 294.77 484.525 222.557 484.525 222.557H450.087" fill="#17282F"/>
<path d="M458.571 451.855L459.507 458.744H479.692L480.237 452.596L458.571 451.855Z" fill="#406FBF"/>
</g>
<defs>
<clipPath id="clip0">
<rect width="666.667" height="496.813" fill="white"/>
</clipPath>
</defs>
</svg>
