<svg width="631" height="338" viewBox="0 0 631 338" fill="none" xmlns="http://www.w3.org/2000/svg">
<path d="M35.3218 22.4993C138.532 -65.2207 364.722 132.969 447.532 116.869C530.342 100.769 649.922 143.259 627.402 240.319C602.402 348.079 312.702 349.319 186.112 312.169C59.5218 275.019 -62.0382 105.259 35.3218 22.4993Z" fill="#F0F0F0"/>
<path d="M116.822 298.849C132.822 287.019 135.882 265.929 134.632 247.109C134.422 243.969 134.632 240.639 133.062 237.929C131.492 235.219 127.862 233.449 125.062 234.869C122.732 236.039 121.792 238.789 120.542 241.079C118.857 244.141 116.345 246.668 113.292 248.369C111.292 249.479 108.802 250.199 106.762 249.169C103.962 247.769 103.522 244.029 103.442 240.899L102.992 223.399C103.082 220.265 102.659 217.137 101.742 214.139C100.652 211.199 98.3918 208.509 95.3418 207.779C92.2918 207.049 88.6318 208.879 88.0918 211.959C88.0019 213.258 88.0019 214.561 88.0918 215.859C88.0918 217.159 87.4819 218.619 86.2419 219.019C85.0019 219.419 83.6918 218.589 82.7118 217.699C79.3418 214.649 76.9918 210.649 74.7918 206.699C72.5918 202.749 70.4319 198.649 67.3519 195.299C64.2719 191.949 60.0918 189.319 55.5318 189.259C50.9718 189.199 46.2418 192.069 45.2318 196.509C44.2218 200.949 46.9718 205.349 49.9218 208.829C54.3113 213.997 59.4241 218.503 65.1019 222.209C66.197 222.763 67.0893 223.649 67.6518 224.739C68.4018 226.809 66.4718 228.939 64.4018 229.739C62.0618 230.589 59.4918 230.429 57.0318 230.799C54.5718 231.169 51.9218 232.329 51.0318 234.669C49.8418 237.909 52.6519 241.169 55.3919 243.279C60.8884 247.51 67.0673 250.77 73.6619 252.919C76.0219 253.679 78.5018 254.339 80.4318 255.919C82.3618 257.499 83.5819 260.249 82.5219 262.489C81.4619 264.729 78.5219 265.489 76.1019 265.159C73.6819 264.829 71.4219 263.559 69.1019 262.769C64.6919 261.289 59.1018 261.769 56.4118 265.579C55.6012 266.88 55.1074 268.353 54.9702 269.88C54.833 271.407 55.0562 272.945 55.6218 274.369C56.7646 277.202 58.4649 279.776 60.6218 281.939C67.8186 289.923 76.9991 295.86 87.2318 299.149C97.4418 302.269 106.842 302.899 116.772 298.949" fill="#407BFF"/>
<path d="M49.6819 192.029L50.0019 192.319L51.0019 193.119C51.8519 193.809 53.1119 194.839 54.6919 196.209C59.1735 200.055 63.3587 204.234 67.2119 208.709C69.6719 211.539 72.2119 214.709 74.9019 218.229C77.5919 221.749 80.4119 225.469 83.2419 229.529C86.2317 233.744 88.9859 238.12 91.4919 242.639C92.7919 244.989 93.9619 247.459 95.1619 249.979L98.7719 257.629C103.418 267.303 107.511 277.232 111.032 287.369C113.874 295.655 115.916 304.194 117.132 312.869C117.935 318.719 118.226 324.629 118.002 330.529C117.902 332.619 117.792 334.239 117.682 335.339C117.632 335.859 117.592 336.279 117.572 336.589C117.561 336.729 117.561 336.87 117.572 337.009C117.615 336.873 117.642 336.732 117.652 336.589C117.652 336.279 117.742 335.869 117.812 335.349C117.962 334.259 118.112 332.629 118.252 330.539C118.563 324.624 118.332 318.693 117.562 312.819C116.396 304.105 114.386 295.525 111.562 287.199C108.057 277.033 103.97 267.076 99.3219 257.379L95.7019 249.729C94.5119 247.219 93.3219 244.729 92.0219 242.369C89.4785 237.847 86.6841 233.47 83.6519 229.259C80.8019 225.199 77.9519 221.459 75.2619 217.969C72.5719 214.479 69.9719 211.299 67.5019 208.479C63.6073 204.016 59.364 199.87 54.8119 196.079C53.2019 194.729 51.9219 193.729 51.0419 193.079L50.0419 192.329C49.9361 192.213 49.815 192.112 49.6819 192.029V192.029Z" fill="#263238"/>
<path d="M91.8018 242.349C91.9401 241.914 92.0306 241.464 92.0718 241.009C92.2018 240.139 92.3618 238.869 92.5418 237.309C92.8818 234.179 93.2218 229.839 93.5418 225.049C93.8618 220.259 94.2818 215.949 94.6818 212.829C94.8718 211.269 95.0418 210.009 95.1718 209.139C95.2649 208.692 95.3085 208.236 95.3018 207.779C95.1364 208.205 95.019 208.648 94.9518 209.099C94.7518 209.959 94.5218 211.219 94.2718 212.769C93.7718 215.889 93.2718 220.219 92.9618 225.009C92.6518 229.799 92.3318 234.009 92.1018 237.269C91.9918 238.739 91.9018 239.989 91.8218 240.979C91.7603 241.434 91.7536 241.893 91.8018 242.349V242.349Z" fill="#263238"/>
<path d="M50.8019 236.169C51.3404 236.26 51.8858 236.304 52.4319 236.299C53.4319 236.359 55.0019 236.439 56.8719 236.589C60.6219 236.869 65.7819 237.429 71.4419 238.289C77.1019 239.149 82.2019 240.169 85.8619 240.999C87.7019 241.409 89.1719 241.769 90.1919 241.999C90.717 242.16 91.256 242.27 91.8019 242.329C91.3062 242.1 90.7908 241.916 90.2619 241.779C89.2619 241.469 87.7919 241.039 85.9619 240.579C82.3119 239.639 77.2119 238.579 71.5319 237.689C66.6838 236.935 61.8011 236.424 56.9019 236.159C55.0119 236.059 53.4919 236.039 52.4419 236.059C51.8929 236.038 51.3432 236.075 50.8019 236.169V236.169Z" fill="#263238"/>
<path d="M110.982 286.469C111.096 286.317 111.187 286.148 111.252 285.969L111.902 284.499C112.462 283.209 113.222 281.329 114.122 278.989C115.942 274.319 118.252 267.789 120.702 260.549C123.152 253.309 125.392 246.759 127.102 242.049C127.952 239.769 128.642 237.889 129.162 236.489C129.382 235.879 129.562 235.379 129.702 234.969C129.777 234.796 129.831 234.615 129.862 234.429C129.749 234.581 129.661 234.75 129.602 234.929C129.422 235.329 129.202 235.809 128.942 236.399C128.392 237.689 127.632 239.569 126.722 241.909C124.902 246.579 122.592 253.109 120.142 260.359C117.692 267.609 115.462 274.139 113.742 278.849C112.902 281.129 112.202 283.009 111.692 284.409L111.142 285.929C111.066 286.102 111.013 286.283 110.982 286.469Z" fill="#263238"/>
<path d="M56.2719 271.009C56.4454 271.103 56.6303 271.173 56.8219 271.219L58.4118 271.679L64.2618 273.349C69.2618 274.759 76.0218 276.779 83.5418 279.019C91.0618 281.259 97.9019 283.229 102.882 284.539C105.372 285.189 107.392 285.699 108.792 286.019L110.412 286.389C110.598 286.44 110.789 286.467 110.982 286.469C110.81 286.381 110.629 286.314 110.442 286.269L108.852 285.799L102.992 284.139C97.9919 282.729 91.2318 280.709 83.7118 278.459C76.1918 276.209 69.3518 274.259 64.3718 272.949C61.8818 272.299 59.8619 271.789 58.4619 271.469L56.8419 271.099C56.6557 271.048 56.4646 271.018 56.2719 271.009V271.009Z" fill="#263238"/>
<path d="M551.862 290.509C550.662 290.608 549.494 290.947 548.427 291.505C547.361 292.063 546.417 292.83 545.652 293.759C544.133 295.635 543.065 297.835 542.532 300.189C541.372 304.689 542.152 309.979 543.472 314.439C548.322 312.659 551.272 307.439 552.602 304.709C554.712 300.379 555.892 291.289 551.862 290.509Z" fill="#407BFF"/>
<path d="M536.532 319.939C537.253 318.802 537.661 317.495 537.714 316.15C537.767 314.804 537.462 313.469 536.832 312.279C536.179 311.102 535.3 310.067 534.244 309.233C533.188 308.399 531.978 307.782 530.682 307.419C530.103 307.19 529.482 307.089 528.86 307.124C528.238 307.158 527.632 307.327 527.082 307.619C526.624 307.979 526.269 308.453 526.053 308.994C525.837 309.535 525.768 310.123 525.852 310.699C526.045 311.847 526.539 312.923 527.282 313.819C529.672 316.999 532.572 319.639 536.532 319.939" fill="#407BFF"/>
<path d="M536.532 335.369C536.659 335.07 536.74 334.753 536.772 334.429C536.892 333.809 537.052 332.919 537.212 331.809C537.679 328.906 537.753 325.953 537.432 323.029C537.098 320.076 535.96 317.271 534.142 314.919C533.588 314.217 532.946 313.588 532.232 313.049C531.982 312.836 531.703 312.661 531.402 312.529C532.283 313.336 533.102 314.209 533.852 315.139C535.533 317.505 536.589 320.257 536.922 323.139C537.224 326.02 537.197 328.925 536.842 331.799C536.671 332.982 536.567 334.174 536.532 335.369V335.369Z" fill="#263238"/>
<path d="M550.352 297.359C550.08 297.821 549.842 298.302 549.642 298.799C549.202 299.739 548.642 301.119 547.882 302.799C546.432 306.259 544.532 310.969 542.532 316.259C540.532 321.549 538.842 326.379 537.682 329.899C537.102 331.649 536.682 333.079 536.342 334.069C536.162 334.578 536.022 335.099 535.922 335.629C536.17 335.152 536.374 334.653 536.532 334.139C536.922 333.079 537.422 331.689 538.032 330.019C539.282 326.539 541.032 321.729 543.032 316.449C545.032 311.169 546.902 306.449 548.262 302.969L549.862 298.889C550.077 298.397 550.241 297.884 550.352 297.359Z" fill="#263238"/>
<path d="M541.532 324.349C543.133 322.007 545.268 320.08 547.762 318.727C550.256 317.375 553.036 316.635 555.872 316.569C557.312 316.569 559.022 316.889 559.592 318.219C560.162 319.549 559.212 321.019 558.172 322.019C555.972 324.056 553.22 325.401 550.261 325.884C547.302 326.368 544.266 325.97 541.532 324.739" fill="#407BFF"/>
<path d="M553.432 320.099C553.123 320.055 552.81 320.055 552.502 320.099C552.136 320.115 551.771 320.158 551.412 320.229C550.933 320.3 550.459 320.4 549.992 320.529C548.761 320.84 547.565 321.276 546.422 321.829C543.614 323.185 541.162 325.178 539.262 327.649C538.488 328.652 537.818 329.731 537.262 330.869C537.041 331.304 536.847 331.751 536.682 332.209C536.539 332.534 536.418 332.868 536.322 333.209C536.209 333.504 536.141 333.814 536.122 334.129C536.222 334.129 536.582 332.879 537.592 331.009C538.165 329.922 538.835 328.888 539.592 327.919C540.55 326.74 541.622 325.658 542.792 324.689C543.977 323.745 545.253 322.921 546.602 322.229C547.705 321.667 548.856 321.205 550.042 320.849C552.122 320.259 553.452 320.199 553.432 320.099Z" fill="#263238"/>
<path d="M532.862 62.7993H117.822C116.016 62.7993 114.552 64.2633 114.552 66.0693V306.629C114.552 308.435 116.016 309.899 117.822 309.899H532.862C534.668 309.899 536.132 308.435 536.132 306.629V66.0693C536.132 64.2633 534.668 62.7993 532.862 62.7993Z" fill="#F0F0F0"/>
<path d="M147.452 71.9993C147.45 72.6318 147.261 73.2495 146.908 73.7744C146.555 74.2993 146.054 74.7079 145.47 74.9486C144.885 75.1892 144.242 75.2512 143.621 75.1266C143.001 75.002 142.432 74.6964 141.986 74.2485C141.539 73.8006 141.235 73.2304 141.113 72.6099C140.99 71.9895 141.054 71.3466 141.296 70.7624C141.539 70.1783 141.949 69.6791 142.475 69.3279C143.001 68.9767 143.619 68.7893 144.252 68.7893C144.673 68.7893 145.09 68.8724 145.479 69.0338C145.868 69.1953 146.221 69.4319 146.518 69.7301C146.815 70.0283 147.051 70.3823 147.211 70.7717C147.371 71.161 147.453 71.5782 147.452 71.9993V71.9993Z" fill="#E0E0E0"/>
<path d="M137.362 71.9993C137.362 72.6342 137.174 73.2548 136.821 73.7827C136.468 74.3106 135.967 74.722 135.38 74.965C134.794 75.2079 134.148 75.2715 133.526 75.1476C132.903 75.0238 132.331 74.718 131.882 74.2691C131.433 73.8202 131.127 73.2482 131.004 72.6255C130.88 72.0029 130.943 71.3574 131.186 70.7709C131.429 70.1843 131.841 69.683 132.369 69.3303C132.896 68.9776 133.517 68.7893 134.152 68.7893C135.003 68.7893 135.82 69.1275 136.422 69.7295C137.024 70.3315 137.362 71.148 137.362 71.9993Z" fill="#E0E0E0"/>
<rect x="121.232" y="68.7893" width="6.42001" height="6.42001" fill="#E0E0E0"/>
<path d="M536.132 80.9092H114.552V337.579H536.132V80.9092Z" fill="#FAFAFA"/>
<path d="M536.132 80.9092H114.552V140.439H536.132V80.9092Z" fill="#E0E0E0"/>
<rect x="271.402" y="254.559" width="65.65" height="0.660004" fill="#455A64"/>
<path d="M337.052 263.679C337.052 263.859 322.362 263.999 304.232 263.999C286.102 263.999 271.402 263.859 271.402 263.679C271.402 263.499 286.092 263.349 304.232 263.349C322.372 263.349 337.052 263.489 337.052 263.679Z" fill="#455A64"/>
<path d="M310.752 272.459C310.752 272.639 301.942 272.789 291.072 272.789C280.202 272.789 271.402 272.639 271.402 272.459C271.402 272.279 280.202 272.139 291.072 272.139C301.942 272.139 310.752 272.259 310.752 272.459Z" fill="#455A64"/>
<rect x="271.402" y="165.109" width="31.22" height="3.95999" fill="#407BFF"/>
<ellipse cx="305.702" cy="221.469" rx="28.98" ry="17.08" fill="#407BFF"/>
<ellipse cx="312.892" cy="197.749" rx="4.94" ry="4.94001" fill="#407BFF"/>
<path d="M334.682 238.729C334.682 238.729 334.682 238.629 334.682 238.459C334.682 238.289 334.682 238.009 334.682 237.679C334.682 236.979 334.682 235.979 334.682 234.679C334.682 232.049 334.682 228.239 334.602 223.409C334.602 213.709 334.522 199.909 334.462 183.329L334.742 183.609H276.742L277.062 183.289V198.259C277.062 203.139 277.062 207.906 277.062 212.559C277.062 221.859 277.062 230.649 277.062 238.729L276.782 238.449L318.692 238.589L330.512 238.659H333.642H334.452C334.548 238.651 334.645 238.651 334.742 238.659C334.659 238.67 334.575 238.67 334.492 238.659H333.712H330.622L318.872 238.729L276.782 238.879H276.492V238.589C276.492 230.509 276.492 221.719 276.492 212.419C276.492 207.753 276.492 202.986 276.492 198.119V183.369L276.822 183.029L334.822 183.079H335.102V183.359C335.042 200.009 334.992 213.879 334.962 223.609C334.962 228.419 334.902 232.209 334.882 234.819C334.882 236.079 334.882 237.059 334.882 237.759C334.882 238.069 334.882 238.309 334.882 238.499C334.827 238.586 334.76 238.663 334.682 238.729Z" fill="#E0E0E0"/>
<rect x="355.032" y="254.559" width="65.66" height="0.660004" fill="#455A64"/>
<path d="M420.692 263.679C420.692 263.859 405.992 263.999 387.862 263.999C369.732 263.999 355.032 263.859 355.032 263.679C355.032 263.499 369.722 263.349 387.862 263.349C406.002 263.349 420.692 263.489 420.692 263.679Z" fill="#455A64"/>
<path d="M394.382 272.459C394.382 272.639 385.572 272.789 374.702 272.789C363.832 272.789 355.032 272.639 355.032 272.459C355.032 272.279 363.842 272.139 374.702 272.139C385.562 272.139 394.382 272.259 394.382 272.459Z" fill="#455A64"/>
<rect x="355.032" y="165.109" width="31.21" height="3.95999" fill="#407BFF"/>
<path d="M374.428 232.542C382.202 232.542 388.504 226.24 388.504 218.466C388.504 210.692 382.202 204.389 374.428 204.389C366.654 204.389 360.352 210.692 360.352 218.466C360.352 226.24 366.654 232.542 374.428 232.542Z" fill="#407BFF"/>
<path d="M396.2 204.07C396.2 201.727 395.805 200.916 395.805 199.997C395.805 197.907 397.304 197.736 397.939 197.736C398.842 197.736 400.027 198.349 400.027 199.496C400.027 201.164 398.62 201.375 398.62 201.375C398.62 201.375 398.62 201.959 398.62 202.986C398.62 204.07 398.882 205.478 400.818 205.478C403.924 205.478 404.25 201.148 404.25 199.962C404.25 198.323 403.202 194.921 399.474 194.921C394.501 194.921 393.693 199.364 393.693 200.551C393.693 201.059 393.786 202.045 393.883 202.428C395.365 202.794 395.019 204.1 394.617 204.466C394.034 205.005 391.582 205.11 391.582 200.076C391.582 195.282 395.855 192.809 399.607 192.809C403.176 192.809 407.066 195.274 407.066 200.021C407.066 204.256 404.02 207.591 400.821 207.591C398.901 207.591 397.883 206.009 397.883 206.009C397.883 208.997 395.449 213.278 395.101 213.924C395.101 213.924 396.2 208.396 396.2 204.07Z" fill="#407BFF"/>
<path d="M418.312 238.729C418.312 238.729 418.312 238.629 418.312 238.459C418.312 238.289 418.312 238.009 418.312 237.679C418.312 236.979 418.312 235.979 418.312 234.679C418.312 232.049 418.312 228.239 418.232 223.409C418.232 213.709 418.152 199.909 418.092 183.329L418.372 183.609H360.372L360.692 183.289V198.259C360.692 203.139 360.692 207.906 360.692 212.559C360.692 221.859 360.692 230.649 360.692 238.729L360.412 238.449L402.322 238.589L414.142 238.659H417.272H418.092C418.185 238.651 418.279 238.651 418.372 238.659C418.289 238.67 418.205 238.67 418.122 238.659H417.342H414.262L402.502 238.729L360.412 238.879H360.122V238.589C360.122 230.509 360.122 221.719 360.122 212.419C360.122 207.753 360.122 202.986 360.122 198.119V183.369L360.452 183.029L418.452 183.079H418.732V183.359C418.672 200.009 418.622 213.879 418.592 223.609C418.592 228.419 418.532 232.209 418.522 234.819C418.522 236.079 418.522 237.059 418.522 237.759C418.522 238.069 418.522 238.309 418.522 238.499C418.464 238.586 418.393 238.664 418.312 238.729Z" fill="#E0E0E0"/>
<path d="M507.252 254.889C507.252 255.069 492.552 255.219 474.422 255.219C456.292 255.219 441.592 255.069 441.592 254.889C441.592 254.709 456.292 254.559 474.422 254.559C492.552 254.559 507.252 254.709 507.252 254.889Z" fill="#455A64"/>
<path d="M507.252 263.679C507.252 263.859 492.552 263.999 474.422 263.999C456.292 263.999 441.592 263.859 441.592 263.679C441.592 263.499 456.292 263.349 474.422 263.349C492.552 263.349 507.252 263.489 507.252 263.679Z" fill="#455A64"/>
<path d="M480.942 272.459C480.942 272.639 472.132 272.789 461.272 272.789C450.412 272.789 441.592 272.639 441.592 272.459C441.592 272.279 450.402 272.139 461.272 272.139C472.142 272.139 480.942 272.259 480.942 272.459Z" fill="#455A64"/>
<path d="M472.802 165.109H441.592V169.069H472.802V165.109Z" fill="#407BFF"/>
<path d="M510.192 177.849H441.592V244.219H510.192V177.849Z" fill="#FAFAFA"/>
<path d="M446.912 238.549L465.892 204.389L481.412 226.219L490.842 214.629L504.872 238.549H446.912Z" fill="#407BFF"/>
<path d="M488.022 197.749C488.022 198.727 487.732 199.682 487.189 200.495C486.645 201.308 485.873 201.941 484.97 202.314C484.067 202.688 483.073 202.785 482.114 202.594C481.156 202.402 480.276 201.931 479.585 201.239C478.895 200.547 478.425 199.666 478.236 198.707C478.046 197.748 478.145 196.754 478.521 195.852C478.896 194.949 479.531 194.179 480.345 193.637C481.158 193.095 482.114 192.807 483.092 192.809C484.4 192.812 485.654 193.334 486.579 194.26C487.503 195.186 488.022 196.441 488.022 197.749V197.749Z" fill="#407BFF"/>
<path d="M504.872 238.729C504.872 238.729 504.872 238.629 504.872 238.459C504.872 238.289 504.872 238.009 504.872 237.679C504.872 236.979 504.872 235.979 504.872 234.679C504.872 232.049 504.872 228.239 504.802 223.409C504.802 213.709 504.712 199.909 504.652 183.329L504.932 183.609H446.932C446.852 183.679 447.542 182.989 447.252 183.289V190.789C447.252 193.283 447.252 195.746 447.252 198.179V212.479C447.252 221.779 447.252 230.569 447.252 238.649L446.972 238.369L488.882 238.509L500.702 238.579H503.842H504.652C504.745 238.571 504.839 238.571 504.932 238.579C504.849 238.59 504.765 238.59 504.682 238.579H503.902H500.822L489.062 238.649L446.972 238.799H446.692V238.509C446.692 230.429 446.692 221.639 446.692 212.339V198.259C446.692 195.819 446.692 193.356 446.692 190.869V183.369L447.032 183.029L505.032 183.079H505.322V183.359C505.262 200.009 505.212 213.879 505.172 223.609C505.172 228.419 505.122 232.209 505.102 234.819C505.102 236.079 505.102 237.059 505.102 237.759C505.102 238.069 505.102 238.309 505.102 238.499C505.038 238.588 504.961 238.666 504.872 238.729V238.729Z" fill="#E0E0E0"/>
<path d="M304.802 284.709H273.592V288.669H304.802V284.709Z" fill="#407BFF"/>
<path d="M279.242 303.259V317.859C279.242 322.739 279.242 327.506 279.242 332.159C279.242 333.989 279.242 335.789 279.242 337.569H290.362L297.912 323.989L307.532 337.569H320.102L322.822 334.229L324.822 337.569H336.732C336.732 328.479 336.662 316.789 336.612 303.229L279.242 303.259ZM315.092 322.259C314.114 322.259 313.159 321.969 312.346 321.426C311.534 320.883 310.901 320.111 310.527 319.207C310.153 318.304 310.056 317.31 310.247 316.352C310.439 315.393 310.91 314.513 311.602 313.823C312.294 313.132 313.175 312.662 314.134 312.473C315.093 312.283 316.087 312.383 316.989 312.758C317.892 313.134 318.663 313.768 319.204 314.582C319.746 315.396 320.034 316.352 320.032 317.329C320.029 318.638 319.508 319.892 318.581 320.816C317.655 321.74 316.4 322.259 315.092 322.259V322.259Z" fill="#FAFAFA"/>
<path d="M342.202 297.449H273.592V337.569H278.592V332.159C278.592 327.493 278.592 322.726 278.592 317.859V302.969C278.292 303.259 278.982 302.559 278.922 302.629L336.922 302.679H337.202V302.959C337.152 316.629 337.112 328.409 337.072 337.579H342.242L342.202 297.449Z" fill="#FAFAFA"/>
<path d="M320.122 337.569H324.812L322.842 334.229L320.122 337.569Z" fill="#407BFF"/>
<path d="M290.342 337.569H307.552L297.892 323.989L290.342 337.569Z" fill="#407BFF"/>
<path d="M315.092 312.409C314.115 312.409 313.16 312.699 312.347 313.242C311.535 313.785 310.902 314.556 310.528 315.459C310.154 316.361 310.056 317.355 310.247 318.313C310.437 319.271 310.908 320.151 311.599 320.842C312.29 321.533 313.17 322.004 314.128 322.194C315.086 322.385 316.08 322.287 316.982 321.913C317.885 321.539 318.656 320.906 319.199 320.094C319.742 319.281 320.032 318.326 320.032 317.349C320.032 316.039 319.511 314.783 318.585 313.856C317.659 312.93 316.402 312.409 315.092 312.409Z" fill="#407BFF"/>
<path d="M337.162 302.669H336.882L278.882 302.619C278.942 302.549 278.252 303.249 278.552 302.959V317.859C278.552 322.739 278.552 327.506 278.552 332.159V337.569H279.172C279.172 335.789 279.172 333.989 279.172 332.159C279.172 327.493 279.172 322.726 279.172 317.859V303.259H336.532C336.582 316.819 336.622 328.509 336.652 337.599H336.962C336.962 328.429 337.042 316.649 337.092 302.979L337.162 302.669Z" fill="#E0E0E0"/>
<path d="M388.492 284.709H357.282V288.669H388.492V284.709Z" fill="#407BFF"/>
<path d="M362.932 303.259V317.859C362.932 322.739 362.932 327.506 362.932 332.159C362.932 333.989 362.932 335.789 362.932 337.569H374.032L381.582 323.989L391.242 337.569H403.812L406.532 334.259L408.532 337.599H420.442C420.442 328.509 420.372 316.819 420.322 303.259H362.932ZM398.782 322.259C397.804 322.259 396.849 321.969 396.036 321.426C395.224 320.883 394.591 320.111 394.217 319.207C393.843 318.304 393.746 317.31 393.938 316.352C394.129 315.393 394.6 314.513 395.292 313.823C395.984 313.132 396.865 312.662 397.824 312.473C398.783 312.284 399.777 312.383 400.679 312.758C401.582 313.134 402.353 313.768 402.894 314.582C403.436 315.396 403.724 316.352 403.722 317.329C403.719 318.638 403.198 319.892 402.271 320.816C401.345 321.74 400.09 322.259 398.782 322.259V322.259Z" fill="#FAFAFA"/>
<path d="M425.892 297.449H357.282V337.569H362.282V332.159C362.282 327.493 362.282 322.726 362.282 317.859V302.969C361.982 303.259 362.672 302.559 362.612 302.629L420.612 302.679H420.892V302.959C420.842 316.629 420.802 328.409 420.772 337.579H425.932L425.892 297.449Z" fill="#FAFAFA"/>
<path d="M374.032 337.569H391.242L381.582 323.989L374.032 337.569Z" fill="#407BFF"/>
<path d="M403.812 337.569H408.502L406.532 334.229L403.812 337.569Z" fill="#407BFF"/>
<path d="M398.782 312.409C397.805 312.409 396.85 312.699 396.037 313.242C395.225 313.785 394.592 314.556 394.218 315.459C393.844 316.361 393.746 317.355 393.937 318.313C394.127 319.271 394.598 320.151 395.289 320.842C395.98 321.533 396.86 322.004 397.818 322.194C398.776 322.385 399.77 322.287 400.672 321.913C401.575 321.539 402.346 320.906 402.889 320.094C403.432 319.281 403.722 318.326 403.722 317.349C403.722 316.039 403.201 314.783 402.275 313.856C401.348 312.93 400.092 312.409 398.782 312.409Z" fill="#407BFF"/>
<path d="M420.852 302.669H420.532L362.532 302.619C362.592 302.549 361.902 303.249 362.202 302.959V317.859C362.202 322.739 362.202 327.506 362.202 332.159V337.569H362.822C362.822 335.789 362.822 333.989 362.822 332.159C362.822 327.493 362.822 322.726 362.822 317.859V303.259H420.182C420.232 316.819 420.272 328.509 420.302 337.599H420.622C420.622 328.429 420.692 316.649 420.742 302.979L420.852 302.669Z" fill="#E0E0E0"/>
<path d="M474.472 284.709H443.262V288.669H474.472V284.709Z" fill="#407BFF"/>
<path d="M443.262 337.569H448.262V332.159C448.262 327.493 448.262 322.726 448.262 317.859C448.262 315.419 448.262 312.956 448.262 310.469V302.969L448.602 302.629L506.602 302.679H506.882V302.959C506.882 316.629 506.792 328.409 506.752 337.579H511.912V297.449H443.312L443.262 337.569Z" fill="#FAFAFA"/>
<path d="M448.912 303.259V310.449C448.912 312.943 448.912 315.406 448.912 317.839V332.139C448.912 333.969 448.912 335.769 448.912 337.549H460.032L467.532 323.989L477.192 337.569H489.762L492.532 334.259L494.532 337.599H506.442C506.442 328.509 506.362 316.819 506.322 303.259H448.912ZM484.762 322.259C483.784 322.261 482.828 321.973 482.014 321.431C481.2 320.889 480.565 320.117 480.19 319.214C479.815 318.311 479.716 317.317 479.906 316.358C480.097 315.399 480.567 314.518 481.259 313.826C481.95 313.135 482.831 312.664 483.791 312.474C484.75 312.283 485.744 312.382 486.647 312.757C487.55 313.132 488.321 313.767 488.863 314.581C489.406 315.395 489.694 316.351 489.692 317.329C489.689 318.636 489.169 319.888 488.245 320.812C487.321 321.736 486.069 322.257 484.762 322.259V322.259Z" fill="#FAFAFA"/>
<path d="M489.792 337.569H494.482L492.512 334.229L489.792 337.569Z" fill="#407BFF"/>
<path d="M460.012 337.569H477.222L467.562 323.989L460.012 337.569Z" fill="#407BFF"/>
<path d="M484.762 312.409C483.784 312.407 482.828 312.695 482.015 313.237C481.201 313.778 480.566 314.549 480.191 315.452C479.815 316.354 479.716 317.348 479.906 318.307C480.095 319.266 480.565 320.147 481.255 320.839C481.946 321.531 482.826 322.002 483.784 322.194C484.743 322.385 485.737 322.288 486.64 321.914C487.543 321.541 488.315 320.907 488.859 320.095C489.402 319.282 489.692 318.327 489.692 317.349C489.692 316.041 489.173 314.786 488.249 313.86C487.324 312.933 486.07 312.412 484.762 312.409V312.409Z" fill="#407BFF"/>
<path d="M506.832 302.669H506.532L448.532 302.619L448.192 302.959V310.459C448.192 312.953 448.192 315.416 448.192 317.849C448.192 322.729 448.192 327.496 448.192 332.149V337.559H448.812C448.812 335.779 448.812 333.979 448.812 332.149V317.859C448.812 315.419 448.812 312.956 448.812 310.469V303.259H506.172C506.172 316.819 506.262 328.509 506.292 337.599H506.602C506.602 328.429 506.682 316.649 506.732 302.979L506.832 302.669Z" fill="#E0E0E0"/>
<path d="M536.132 337.569C536.132 335.889 536.052 230.509 535.922 62.7993L536.132 63.0093L114.582 63.0593L114.842 62.7993C114.842 160.469 114.842 253.429 114.842 337.569L114.602 337.339L536.182 337.569L114.532 337.809H114.292V337.569C114.292 253.429 114.292 160.469 114.292 62.7993V62.5393H114.582L536.132 62.5993H536.332V62.7993C536.212 230.509 536.132 335.889 536.132 337.569Z" fill="#455A64"/>
<path d="M234.622 274.699C234.622 274.889 216.032 275.049 193.112 275.049C170.192 275.049 151.612 274.889 151.612 274.699C151.612 274.509 170.192 274.349 193.112 274.349C216.032 274.349 234.622 274.499 234.622 274.699Z" fill="#407BFF"/>
<path d="M234.622 283.879C234.622 284.069 216.032 284.229 193.112 284.229C170.192 284.229 151.612 284.069 151.612 283.879C151.612 283.689 170.192 283.529 193.112 283.529C216.032 283.529 234.622 283.689 234.622 283.879Z" fill="#407BFF"/>
<path d="M234.622 293.059C234.622 293.259 216.032 293.409 193.112 293.409C170.192 293.409 151.612 293.259 151.612 293.059C151.612 292.859 170.192 292.709 193.112 292.709C216.032 292.709 234.622 292.869 234.622 293.059Z" fill="#407BFF"/>
<path d="M199.302 302.439C199.302 302.629 188.522 302.789 175.232 302.789C161.942 302.789 151.162 302.629 151.162 302.439C151.162 302.249 161.942 302.089 175.232 302.089C188.522 302.089 199.302 302.259 199.302 302.439Z" fill="#407BFF"/>
<path d="M151.612 260.139H208.802V255.959H151.612V260.139Z" fill="#407BFF"/>
<path d="M183.672 316.769H151.612V320.669H183.672V316.769Z" fill="#E0E0E0"/>
<path d="M271.402 142.379H324.572V138.489H271.402V142.379Z" fill="#455A64"/>
<path d="M493.782 135.779H489.692V139.869H493.782V135.779Z" fill="#455A64"/>
<path d="M493.782 141.399H489.692V145.489H493.782V141.399Z" fill="#455A64"/>
<path d="M500.272 135.779H496.182V139.869H500.272V135.779Z" fill="#455A64"/>
<path d="M500.272 141.399H496.182V145.489H500.272V141.399Z" fill="#455A64"/>
<path d="M514.082 135.209H509.992V139.299H514.082V135.209Z" fill="#455A64"/>
<path d="M514.082 141.399H509.992V145.489H514.082V141.399Z" fill="#455A64"/>
<path d="M468.422 118.439L467.772 118.749C467.342 118.949 466.702 119.219 465.852 119.579C464.142 120.279 461.602 121.259 458.252 122.269C456.572 122.779 454.692 123.269 452.622 123.759C450.374 124.29 448.096 124.691 445.802 124.959C444.491 125.111 443.165 124.893 441.972 124.329C441.357 123.979 440.822 123.505 440.4 122.937C439.978 122.369 439.679 121.719 439.522 121.029C439.173 119.588 439.232 118.079 439.692 116.669C440.174 115.215 440.79 113.809 441.532 112.469L441.802 112.729C432.315 118.059 422.543 122.866 412.532 127.129L411.912 127.389L412.232 126.789L423.232 106.219C423.675 105.336 423.96 104.381 424.072 103.399C424.122 102.922 424.064 102.44 423.903 101.989C423.742 101.537 423.482 101.127 423.142 100.789C422.39 100.158 421.444 99.8046 420.462 99.7893C419.454 99.7427 418.444 99.8369 417.462 100.069C413.33 101.054 409.309 102.458 405.462 104.259C396.937 108.271 389.42 114.141 383.462 121.439L382.102 123.109L383.032 121.169C385.919 115.169 388.709 109.343 391.402 103.689C392.735 100.889 394.049 98.1526 395.342 95.4793C395.677 94.836 395.962 94.1673 396.192 93.4793C396.431 92.839 396.466 92.1403 396.292 91.4793C396.184 91.1753 395.999 90.9042 395.755 90.6923C395.512 90.4804 395.218 90.3347 394.902 90.2693C394.234 90.155 393.548 90.203 392.902 90.4093C392.244 90.6086 391.604 90.8663 390.992 91.1793L389.122 92.0493C387.892 92.6193 386.702 93.2593 385.522 93.8393C383.182 95.0793 380.952 96.3193 378.842 97.6093C374.95 99.9446 371.194 102.499 367.592 105.259C362.456 109.242 357.647 113.629 353.212 118.379C351.672 120.059 350.492 121.379 349.732 122.279L348.842 123.279C348.642 123.509 348.532 123.619 348.532 123.619C348.532 123.619 350.022 121.619 353.082 118.239C360.575 110.085 369.176 103.023 378.632 97.2593C380.742 95.9593 382.972 94.6993 385.322 93.4493C386.502 92.8593 387.692 92.2293 388.932 91.6393L390.802 90.7593C391.442 90.4342 392.112 90.1697 392.802 89.9693C393.512 89.7433 394.267 89.6918 395.002 89.8193C395.394 89.8968 395.758 90.0763 396.058 90.3397C396.359 90.603 396.584 90.941 396.712 91.3193C396.921 92.0693 396.893 92.8658 396.632 93.5993C396.391 94.309 396.1 95.0008 395.762 95.6693C394.482 98.3393 393.172 101.089 391.842 103.889L383.492 121.379L383.062 121.109C389.06 113.749 396.632 107.827 405.222 103.779C409.099 101.956 413.153 100.538 417.322 99.5493C418.373 99.3056 419.454 99.2081 420.532 99.2593C421.637 99.289 422.698 99.7026 423.532 100.429C423.924 100.818 424.224 101.288 424.411 101.807C424.597 102.326 424.666 102.88 424.612 103.429C424.496 104.474 424.195 105.49 423.722 106.429C419.922 113.629 416.202 120.429 412.722 127.009L412.412 126.679C422.413 122.444 432.177 117.67 441.662 112.379L442.222 112.059L441.922 112.639C441.181 113.95 440.572 115.33 440.102 116.759C439.652 118.105 439.586 119.549 439.912 120.929C440.054 121.575 440.329 122.185 440.72 122.719C441.111 123.252 441.609 123.699 442.182 124.029C443.314 124.571 444.575 124.782 445.822 124.639C448.106 124.39 450.373 124.006 452.612 123.489C454.682 123.039 456.612 122.549 458.232 122.059C461.592 121.059 464.142 120.129 465.852 119.469L467.852 118.679L468.422 118.439Z" fill="#263238"/>
<path d="M457.202 130.779C457.202 130.929 448.562 131.039 437.902 131.039C427.242 131.039 418.592 130.929 418.592 130.779C418.592 130.629 427.232 130.519 437.902 130.519C448.572 130.519 457.202 130.639 457.202 130.779Z" fill="#263238"/>
<path d="M244.432 179.989C244.434 191.283 241.086 202.324 234.813 211.716C228.54 221.108 219.622 228.428 209.188 232.751C198.754 237.074 187.272 238.205 176.195 236.002C165.118 233.8 154.942 228.361 146.956 220.375C138.97 212.389 133.532 202.214 131.329 191.136C129.126 180.059 130.257 168.577 134.58 158.143C138.903 147.709 146.224 138.792 155.615 132.518C165.007 126.245 176.048 122.897 187.342 122.899C202.483 122.899 217.004 128.914 227.711 139.62C238.417 150.327 244.432 164.848 244.432 179.989V179.989Z" fill="#FAFAFA"/>
<path d="M231.172 199.459C234.042 198.459 236.632 197.459 238.502 196.709L240.062 196.109V195.769L228.472 200.429C229.302 200.129 230.222 199.799 231.172 199.459Z" fill="#E5BAAB"/>
<path d="M283.242 179.979C281.612 179.369 278.032 188.129 277.712 185.799C277.392 183.469 283.332 175.589 281.602 175.019C279.342 174.269 275.772 183.509 275.412 184.269C275.052 185.029 273.942 184.539 274.302 183.869C274.822 182.869 280.042 172.679 277.832 171.869C276.612 171.449 276.062 173.719 276.062 173.719C276.062 173.719 271.882 183.649 270.852 183.259C269.822 182.869 272.062 176.949 272.962 175.009C273.862 173.069 273.302 171.889 272.132 172.199C271.332 172.409 268.432 178.289 267.582 180.199C266.732 182.109 264.512 187.489 263.462 183.959C262.412 180.429 260.262 178.099 259.252 177.879C259.003 177.83 258.745 177.864 258.517 177.976C258.289 178.088 258.104 178.272 257.991 178.499C257.877 178.726 257.842 178.984 257.889 179.233C257.936 179.482 258.063 179.709 258.252 179.879C258.974 180.891 259.553 181.998 259.972 183.169C260.345 184.1 260.558 185.087 260.602 186.089C260.672 187.737 260.631 189.387 260.482 191.029L242.602 212.939L240.052 196.339L238.592 196.999C236.752 197.809 234.182 198.859 231.292 199.899C228.402 200.939 226.012 201.689 224.102 202.239C225.302 206.879 226.782 212.839 228.552 220.429C234.332 245.199 252.612 223.649 252.612 223.649L272.372 197.419C275.641 193.512 278.699 189.433 281.532 185.199C284.262 180.469 283.842 180.259 283.242 179.979Z" fill="#E5BAAB"/>
<path d="M138.822 162.329C137.972 162.249 136.382 160.389 134.602 157.859C131.358 165.139 129.682 173.019 129.682 180.989C129.999 181.281 130.379 181.496 130.792 181.619C133.332 182.159 147.322 177.859 159.842 173.719L149.992 158.559C144.532 160.719 139.852 162.419 138.822 162.329Z" fill="#E5BAAB"/>
<path d="M211.442 158.679L212.122 159.239C217.095 163.307 222.856 166.304 229.042 168.039C230.922 168.525 232.838 168.86 234.772 169.039L235.772 169.119C232.002 156.519 220.182 150.949 220.182 150.949L218.532 150.259C218.042 151.329 217.532 152.449 217.022 153.559C216.484 154.744 215.713 155.808 214.754 156.688C213.795 157.568 212.669 158.245 211.442 158.679V158.679ZM217.242 157.989C217.083 158.105 216.898 158.177 216.703 158.2C216.509 158.222 216.312 158.195 216.131 158.119C215.95 158.043 215.792 157.922 215.672 157.768C215.551 157.613 215.473 157.43 215.444 157.236C215.415 157.043 215.436 156.845 215.506 156.662C215.576 156.479 215.691 156.317 215.842 156.191C215.992 156.066 216.173 155.981 216.365 155.946C216.558 155.911 216.757 155.926 216.942 155.989L217.122 156.069C217.278 156.171 217.409 156.309 217.503 156.47C217.597 156.632 217.652 156.813 217.663 156.999C217.675 157.186 217.643 157.372 217.57 157.544C217.497 157.716 217.384 157.868 217.242 157.989V157.989Z" fill="#455A64"/>
<path d="M216.402 204.459C215.412 205.482 214.247 206.318 212.962 206.929C214.281 206.377 215.457 205.533 216.402 204.459V204.459Z" fill="#455A64"/>
<path d="M198.282 231.949C196.242 231.931 194.218 231.593 192.282 230.949C189.432 229.988 186.737 228.617 184.282 226.879C181.311 224.726 178.479 222.388 175.802 219.879C173.143 217.384 170.313 215.078 167.332 212.979C164.872 211.304 162.176 210.006 159.332 209.129C157.416 208.548 155.424 208.258 153.422 208.269C152.732 208.269 152.192 208.329 151.822 208.359L145.532 220.449C152.364 227.625 160.949 232.896 170.439 235.742C179.93 238.588 189.998 238.911 199.652 236.679L199.992 231.849C199.425 231.921 198.853 231.954 198.282 231.949V231.949ZM172.282 230.499C172.124 230.615 171.939 230.688 171.745 230.711C171.55 230.735 171.353 230.708 171.172 230.633C170.991 230.558 170.833 230.438 170.712 230.284C170.591 230.13 170.512 229.948 170.482 229.754C170.452 229.561 170.472 229.363 170.541 229.179C170.609 228.996 170.724 228.834 170.874 228.708C171.024 228.581 171.203 228.496 171.396 228.459C171.588 228.423 171.786 228.437 171.972 228.499L172.162 228.579C172.318 228.682 172.447 228.82 172.54 228.982C172.633 229.144 172.688 229.325 172.698 229.511C172.709 229.698 172.676 229.884 172.602 230.056C172.528 230.227 172.415 230.379 172.272 230.499H172.282Z" fill="#455A64"/>
<path d="M220.702 203.139C221.695 202.699 222.717 202.328 223.762 202.029C225.032 201.599 226.642 201.029 228.422 200.429L240.012 195.769L241.472 195.179C241.472 195.179 238.762 182.909 236.362 171.369C236.212 170.649 236.032 169.959 235.832 169.289C235.532 169.289 235.182 169.289 234.762 169.289C232.802 169.182 230.857 168.891 228.952 168.419C222.671 166.779 216.82 163.797 211.802 159.679C211.472 159.419 211.172 159.159 210.852 158.899C208.648 159.536 206.289 159.362 204.202 158.409V158.409C202.056 157.434 200.34 155.709 199.376 153.559C198.411 151.409 198.264 148.98 198.962 146.729L198.262 145.889C196.692 143.979 195.452 142.409 194.612 141.319L193.612 140.049C193.491 139.905 193.387 139.747 193.302 139.579C193.302 139.579 193.452 139.709 193.692 139.979L194.692 141.189L198.462 145.659L199.032 146.309C199.102 146.119 199.172 145.919 199.252 145.719L200.522 142.819C196.712 140.169 192.245 138.622 187.612 138.349C187.992 138.639 188.462 139.049 189.042 139.569C190.958 141.392 192.659 143.429 194.112 145.639C196.266 148.913 198.082 152.398 199.532 156.039C201.202 160.129 202.682 164.749 204.392 169.539C205.904 174.048 207.846 178.402 210.192 182.539C212.147 185.9 214.613 188.937 217.502 191.539C217.942 191.919 218.372 192.269 218.802 192.599C218.742 192.359 218.712 192.219 218.742 192.209C218.772 192.199 218.872 192.399 219.012 192.759C220.555 193.952 222.233 194.959 224.012 195.759C225.702 196.509 226.712 196.759 226.692 196.829C226.445 196.783 226.202 196.723 225.962 196.649C225.282 196.454 224.615 196.22 223.962 195.949C222.273 195.249 220.672 194.353 219.192 193.279C219.367 193.908 219.487 194.55 219.552 195.199C219.693 196.64 219.564 198.095 219.172 199.489C219.584 198.26 219.81 196.975 219.842 195.679L220.712 203.469L222.962 202.559C222.229 202.826 221.472 203.02 220.702 203.139V203.139ZM227.822 178.949L228.012 179.029C228.271 179.167 228.467 179.399 228.559 179.678C228.651 179.957 228.632 180.26 228.506 180.525C228.38 180.79 228.157 180.996 227.882 181.101C227.608 181.205 227.304 181.2 227.034 181.086C226.764 180.972 226.547 180.759 226.431 180.489C226.314 180.22 226.305 179.916 226.407 179.641C226.508 179.366 226.712 179.14 226.976 179.011C227.239 178.882 227.542 178.86 227.822 178.949V178.949Z" fill="#455A64"/>
<path d="M209.102 207.839L209.232 207.529C209.565 207.554 209.899 207.554 210.232 207.529L210.842 207.339C210.622 207.069 210.302 206.659 209.842 206.149C208.607 204.732 207.226 203.448 205.722 202.319C203.485 200.655 201.066 199.249 198.512 198.129C195.386 196.74 192.173 195.557 188.892 194.589C185.412 193.509 182.052 192.589 179.042 191.589C176.358 190.733 173.766 189.614 171.302 188.249C169.643 187.317 168.087 186.21 166.662 184.949C166.274 184.612 165.904 184.254 165.552 183.879C165.416 183.761 165.295 183.626 165.192 183.479C165.192 183.479 165.772 183.949 166.802 184.799C168.26 185.987 169.827 187.035 171.482 187.929C173.951 189.228 176.531 190.302 179.192 191.139C182.192 192.139 185.552 193.019 189.042 194.139C192.344 195.116 195.575 196.319 198.712 197.739C201.287 198.897 203.717 200.354 205.952 202.079C207.435 203.254 208.778 204.596 209.952 206.079C210.277 206.483 210.58 206.904 210.862 207.339V207.339C211.132 207.239 211.422 207.139 211.722 207.009C214.056 206.099 216.04 204.47 217.386 202.358C218.733 200.245 219.372 197.759 219.212 195.259C219.179 194.533 219.085 193.81 218.932 193.099C218.392 192.709 217.842 192.279 217.272 191.799C214.317 189.218 211.795 186.179 209.802 182.799C207.416 178.637 205.446 174.249 203.922 169.699C202.212 164.899 200.752 160.289 199.112 156.209C197.705 152.58 195.953 149.094 193.882 145.799C192.469 143.592 190.827 141.541 188.982 139.679C188.362 139.069 187.862 138.619 187.502 138.289C181.562 137.909 173.962 139.359 165.312 145.489L159.982 148.959L160.332 149.599C160.452 149.859 160.602 150.149 160.782 150.489L161.472 151.669C162.982 154.136 164.815 156.389 166.922 158.369C170.077 161.282 173.537 163.847 177.242 166.019C181.392 168.549 186.182 170.939 191.012 173.819C195.635 176.425 199.848 179.7 203.512 183.539C206.415 186.772 208.66 190.538 210.122 194.629C211.117 197.365 211.952 200.156 212.622 202.989C212.842 203.956 213.022 204.726 213.162 205.299C213.232 205.565 213.282 205.836 213.312 206.109C213.199 205.86 213.115 205.598 213.062 205.329L212.422 203.039C211.862 201.039 211.102 198.189 209.782 194.769C208.291 190.744 206.044 187.041 203.162 183.859C199.509 180.075 195.325 176.841 190.742 174.259C185.932 171.389 181.152 168.989 177.002 166.419C173.276 164.22 169.811 161.606 166.672 158.629C164.562 156.606 162.751 154.292 161.292 151.759C161.042 151.309 160.822 150.909 160.642 150.559L160.232 149.639C160.082 149.309 159.992 149.089 159.952 148.969L148.582 156.379L149.992 158.539L159.842 173.699L162.242 177.389L169.592 172.999C168.563 173.568 167.489 174.053 166.382 174.449C168.19 173.139 170.147 172.048 172.212 171.199C174.202 170.194 176.303 169.426 178.472 168.909C178.522 169.049 175.752 170.139 172.422 171.669L171.782 171.969L162.882 187.319L151.882 208.249C152.389 208.167 152.899 208.11 153.412 208.079C155.437 207.987 157.463 208.224 159.412 208.779C162.308 209.625 165.056 210.91 167.562 212.589C170.584 214.675 173.446 216.985 176.122 219.499C178.782 222 181.59 224.337 184.532 226.499C186.949 228.226 189.594 229.61 192.392 230.609C194.285 231.262 196.262 231.639 198.262 231.729C198.992 231.729 199.562 231.729 199.932 231.729L199.982 231.069L209.042 207.919C208.942 207.919 208.872 207.919 208.872 207.919C208.872 207.919 208.962 207.869 209.102 207.839ZM181.532 152.669C181.37 152.768 181.187 152.826 180.999 152.839C180.81 152.853 180.621 152.821 180.447 152.747C180.273 152.672 180.119 152.558 179.998 152.412C179.877 152.266 179.793 152.094 179.752 151.909C179.741 151.722 179.774 151.534 179.848 151.361C179.922 151.188 180.035 151.035 180.179 150.914C180.323 150.793 180.493 150.706 180.675 150.662C180.858 150.618 181.049 150.617 181.232 150.659L181.412 150.739C181.57 150.841 181.702 150.979 181.798 151.141C181.893 151.304 181.949 151.486 181.96 151.674C181.972 151.862 181.939 152.05 181.865 152.223C181.79 152.396 181.676 152.549 181.532 152.669V152.669ZM182.342 180.449L182.522 180.529C182.777 180.67 182.967 180.904 183.054 181.182C183.14 181.46 183.116 181.761 182.986 182.021C182.857 182.282 182.631 182.483 182.357 182.581C182.083 182.68 181.782 182.669 181.516 182.551C181.25 182.432 181.04 182.216 180.929 181.946C180.819 181.677 180.817 181.375 180.923 181.104C181.03 180.833 181.237 180.614 181.501 180.492C181.765 180.37 182.067 180.355 182.342 180.449V180.449ZM192.032 206.259L192.212 206.339C192.467 206.48 192.657 206.714 192.744 206.992C192.83 207.27 192.806 207.571 192.676 207.831C192.547 208.092 192.321 208.293 192.047 208.391C191.773 208.49 191.472 208.479 191.206 208.361C190.94 208.242 190.73 208.026 190.619 207.756C190.509 207.487 190.507 207.185 190.613 206.914C190.72 206.643 190.927 206.424 191.191 206.302C191.455 206.18 191.757 206.165 192.032 206.259ZM162.032 207.939C161.874 208.055 161.689 208.128 161.495 208.151C161.3 208.175 161.103 208.148 160.922 208.073C160.741 207.998 160.583 207.878 160.462 207.724C160.341 207.57 160.262 207.388 160.232 207.194C160.202 207.001 160.222 206.803 160.291 206.62C160.359 206.436 160.474 206.274 160.624 206.148C160.774 206.022 160.953 205.936 161.146 205.9C161.338 205.863 161.536 205.877 161.722 205.939L161.912 206.019C162.061 206.12 162.186 206.253 162.277 206.409C162.368 206.564 162.423 206.738 162.437 206.918C162.451 207.098 162.425 207.278 162.36 207.446C162.295 207.615 162.193 207.766 162.062 207.889L162.032 207.939ZM206.902 211.729C206.434 212.001 205.949 212.245 205.452 212.459C203.629 213.278 201.711 213.866 199.742 214.209C196.823 214.715 193.85 214.826 190.902 214.539C187.304 214.177 183.759 213.412 180.332 212.259C176.672 211.079 173.332 209.659 170.242 208.359C167.152 207.059 164.462 205.839 162.132 204.899C161.11 204.453 160.034 204.141 158.932 203.969C158.101 203.859 157.256 203.923 156.452 204.159C155.766 204.375 155.135 204.737 154.602 205.219C154.692 205.051 154.819 204.904 154.972 204.789C155.387 204.426 155.87 204.147 156.392 203.969C157.217 203.687 158.094 203.588 158.962 203.679C160.099 203.827 161.212 204.123 162.272 204.559C164.622 205.459 167.372 206.629 170.432 207.919C173.492 209.209 176.862 210.589 180.492 211.769C183.893 212.906 187.406 213.67 190.972 214.049C193.882 214.358 196.821 214.284 199.712 213.829C201.661 213.526 203.57 213.003 205.402 212.269C206.702 211.749 207.402 211.369 207.402 211.419C207.257 211.526 207.099 211.613 206.932 211.679L206.902 211.729Z" fill="#455A64"/>
<path d="M198.532 145.629L194.762 141.159L193.762 139.949C193.522 139.679 193.392 139.539 193.372 139.549C193.457 139.717 193.561 139.875 193.682 140.019L194.682 141.289C195.522 142.379 196.762 143.949 198.332 145.859L199.032 146.699C199.032 146.559 199.132 146.419 199.182 146.279L198.532 145.629Z" fill="white"/>
<path d="M229.042 168.039C222.856 166.303 217.095 163.307 212.122 159.239L211.442 158.679L210.852 158.869C211.172 159.129 211.472 159.389 211.802 159.649C216.82 163.767 222.671 166.749 228.952 168.389C230.857 168.861 232.802 169.152 234.762 169.259C235.182 169.259 235.532 169.259 235.832 169.259H236.352C236.538 169.285 236.726 169.285 236.912 169.259C236.543 169.19 236.168 169.153 235.792 169.149L234.792 169.069C232.851 168.881 230.928 168.536 229.042 168.039V168.039Z" fill="white"/>
<path d="M219.222 193.339C220.702 194.413 222.303 195.309 223.992 196.009C224.645 196.28 225.312 196.514 225.992 196.709C226.232 196.783 226.475 196.843 226.722 196.889C226.722 196.819 225.722 196.569 224.042 195.819C222.263 195.019 220.585 194.012 219.042 192.819C219.042 192.889 219.092 192.959 219.122 193.039L219.222 193.339Z" fill="white"/>
<path d="M193.882 145.809C195.956 149.117 197.707 152.617 199.112 156.259C200.752 160.339 202.212 164.949 203.922 169.749C205.446 174.299 207.416 178.687 209.802 182.849C211.795 186.229 214.317 189.268 217.272 191.849C217.842 192.329 218.392 192.759 218.932 193.149C218.932 192.949 218.852 192.779 218.822 192.639C218.392 192.309 217.962 191.959 217.522 191.579C214.633 188.977 212.167 185.94 210.212 182.579C207.866 178.442 205.924 174.088 204.412 169.579C202.702 164.789 201.222 160.169 199.552 156.079C198.123 152.43 196.327 148.936 194.192 145.649C192.739 143.439 191.038 141.402 189.122 139.579C188.542 139.059 188.072 138.649 187.692 138.359L187.482 138.189C187.29 138.027 187.086 137.88 186.872 137.749C186.872 137.749 187.082 137.969 187.502 138.339C187.922 138.709 188.362 139.119 188.982 139.729C190.824 141.578 192.467 143.616 193.882 145.809V145.809Z" fill="white"/>
<path d="M160.642 150.579C160.822 150.929 161.042 151.329 161.292 151.779C162.751 154.312 164.562 156.625 166.672 158.649C169.811 161.626 173.276 164.239 177.002 166.439C181.152 169.009 185.932 171.439 190.742 174.279C195.324 176.858 199.508 180.088 203.162 183.869C206.044 187.05 208.291 190.754 209.782 194.779C211.102 198.199 211.862 201.079 212.422 203.049L213.062 205.339C213.115 205.608 213.199 205.87 213.312 206.119C213.282 205.846 213.232 205.575 213.162 205.309C213.022 204.742 212.842 203.972 212.622 202.999C211.952 200.166 211.117 197.375 210.122 194.639C208.666 190.55 206.427 186.783 203.532 183.549C199.868 179.71 195.655 176.435 191.032 173.829C186.202 170.949 181.412 168.559 177.262 166.029C173.557 163.857 170.097 161.292 166.942 158.379C164.835 156.399 163.002 154.146 161.492 151.679L160.802 150.499C160.622 150.159 160.472 149.869 160.352 149.609L160.002 148.969C160.002 148.919 160.002 148.889 159.942 148.889V148.989C159.942 149.109 160.072 149.329 160.222 149.659L160.642 150.579Z" fill="white"/>
<path d="M211.242 207.759C211.242 207.759 211.242 207.699 211.162 207.609H211.102C211.182 207.719 211.232 207.769 211.242 207.759Z" fill="white"/>
<path d="M210.062 206.039C208.888 204.556 207.545 203.214 206.062 202.039C203.827 200.314 201.397 198.857 198.822 197.699C195.685 196.279 192.454 195.076 189.152 194.099C185.662 193.019 182.302 192.099 179.302 191.099C176.641 190.262 174.061 189.188 171.592 187.889C169.937 186.995 168.37 185.947 166.912 184.759C165.912 183.909 165.332 183.409 165.302 183.439C165.405 183.587 165.526 183.721 165.662 183.839C166.014 184.214 166.384 184.572 166.772 184.909C168.197 186.17 169.753 187.277 171.412 188.209C173.876 189.575 176.468 190.693 179.152 191.549C182.152 192.549 185.522 193.479 189.002 194.549C192.283 195.517 195.496 196.7 198.622 198.089C201.176 199.209 203.595 200.615 205.832 202.279C207.336 203.408 208.717 204.692 209.952 206.109C210.382 206.619 210.702 207.029 210.952 207.299H211.052C210.744 206.862 210.414 206.442 210.062 206.039V206.039Z" fill="white"/>
<path d="M199.712 213.789C196.821 214.244 193.882 214.318 190.972 214.009C187.42 213.627 183.92 212.863 180.532 211.729C176.902 210.549 173.532 209.149 170.472 207.879C167.412 206.609 164.662 205.419 162.312 204.519C161.251 204.083 160.139 203.787 159.002 203.639C158.134 203.548 157.257 203.647 156.432 203.929C155.91 204.107 155.427 204.386 155.012 204.749C154.859 204.864 154.732 205.011 154.642 205.179C155.175 204.697 155.806 204.335 156.492 204.119C157.296 203.883 158.141 203.819 158.972 203.929C160.074 204.101 161.149 204.413 162.172 204.859C164.502 205.799 167.232 207.009 170.282 208.319C173.332 209.629 176.712 211.039 180.372 212.219C183.809 213.37 187.365 214.132 190.972 214.489C193.92 214.776 196.893 214.665 199.812 214.159C201.781 213.816 203.699 213.228 205.522 212.409C206.019 212.195 206.504 211.951 206.972 211.679C207.145 211.601 207.306 211.5 207.452 211.379C207.452 211.329 206.742 211.709 205.452 212.229C203.604 212.966 201.678 213.49 199.712 213.789V213.789Z" fill="white"/>
<path d="M198.282 231.749C196.282 231.659 194.305 231.282 192.412 230.629C189.614 229.63 186.969 228.246 184.552 226.519C181.61 224.357 178.802 222.02 176.142 219.519C173.466 217.005 170.604 214.695 167.582 212.609C165.076 210.93 162.328 209.645 159.432 208.799C157.483 208.244 155.457 208.007 153.432 208.099C152.919 208.13 152.409 208.187 151.902 208.269H151.792C151.601 208.29 151.413 208.334 151.232 208.399C151.434 208.426 151.639 208.426 151.842 208.399C152.212 208.399 152.752 208.319 153.442 208.309C155.444 208.298 157.436 208.588 159.352 209.169C162.196 210.046 164.892 211.344 167.352 213.019C170.333 215.118 173.164 217.424 175.822 219.919C178.499 222.428 181.331 224.766 184.302 226.919C186.757 228.657 189.452 230.028 192.302 230.989C194.238 231.633 196.262 231.971 198.302 231.989C198.854 231.992 199.405 231.958 199.952 231.889V231.889C200.139 231.878 200.323 231.845 200.502 231.789C200.502 231.789 200.312 231.789 199.962 231.789C199.612 231.789 199.012 231.779 198.282 231.749Z" fill="white"/>
<path d="M238.642 197.049L240.102 196.389C240.618 196.182 241.111 195.921 241.572 195.609C241.051 195.718 240.545 195.886 240.062 196.109L238.502 196.709C236.632 197.429 234.042 198.419 231.172 199.459C230.222 199.799 229.302 200.129 228.422 200.459C226.642 201.089 225.032 201.629 223.762 202.059C222.717 202.358 221.695 202.729 220.702 203.169C221.48 203.072 222.248 202.897 222.992 202.649L223.872 202.409L224.152 202.319C226.062 201.769 228.592 200.969 231.342 199.979C234.092 198.989 236.802 197.859 238.642 197.049Z" fill="#263238"/>
<path d="M219.582 195.259C219.517 194.61 219.397 193.968 219.222 193.339L219.112 192.999C219.112 192.919 219.062 192.849 219.032 192.779C218.892 192.419 218.792 192.219 218.762 192.229C218.732 192.239 218.762 192.379 218.822 192.619C218.882 192.859 218.892 192.929 218.932 193.129C219.085 193.84 219.179 194.563 219.212 195.289C219.373 197.768 218.747 200.235 217.423 202.338C216.1 204.44 214.147 206.072 211.842 206.999C211.542 207.129 211.252 207.229 210.982 207.329H210.882L210.272 207.519C209.742 207.669 209.332 207.749 209.102 207.809C208.872 207.869 208.882 207.869 208.892 207.889C208.902 207.909 208.962 207.889 209.062 207.889C209.285 207.91 209.509 207.91 209.732 207.889C210.195 207.831 210.653 207.738 211.102 207.609H211.162L211.982 207.349C212.292 207.239 212.622 207.089 212.982 206.929C214.267 206.318 215.432 205.482 216.422 204.459C216.972 203.899 217.461 203.282 217.882 202.619C219.24 200.418 219.844 197.834 219.602 195.259H219.582Z" fill="#263238"/>
<path d="M178.472 168.929C176.303 169.446 174.202 170.214 172.212 171.219C170.147 172.068 168.19 173.159 166.382 174.469C167.489 174.073 168.563 173.588 169.592 173.019C170.262 172.699 170.992 172.349 171.782 172.019L172.422 171.719C175.752 170.159 178.532 169.069 178.472 168.929Z" fill="#263238"/>
<path d="M181.402 150.739L181.222 150.659C181.039 150.617 180.848 150.618 180.665 150.662C180.483 150.706 180.313 150.792 180.169 150.914C180.025 151.035 179.912 151.188 179.838 151.361C179.764 151.534 179.731 151.721 179.742 151.909C179.769 152.102 179.846 152.285 179.965 152.44C180.083 152.595 180.24 152.717 180.419 152.794C180.598 152.872 180.794 152.902 180.988 152.882C181.182 152.861 181.368 152.792 181.527 152.68C181.687 152.567 181.815 152.416 181.899 152.24C181.983 152.064 182.021 151.869 182.008 151.674C181.995 151.48 181.933 151.291 181.827 151.128C181.721 150.964 181.574 150.83 181.402 150.739V150.739Z" fill="#407BFF"/>
<path d="M228.122 180.959C228.269 180.84 228.385 180.688 228.462 180.516C228.538 180.343 228.573 180.155 228.562 179.966C228.551 179.777 228.496 179.594 228.4 179.431C228.304 179.268 228.171 179.131 228.012 179.029L227.822 178.949C227.639 178.89 227.443 178.878 227.255 178.915C227.066 178.953 226.889 179.037 226.743 179.162C226.596 179.286 226.483 179.446 226.415 179.627C226.348 179.807 226.327 180.001 226.356 180.192C226.384 180.382 226.461 180.562 226.578 180.714C226.696 180.867 226.851 180.987 227.028 181.063C227.205 181.138 227.398 181.168 227.589 181.148C227.781 181.128 227.964 181.06 228.122 180.949V180.959Z" fill="#407BFF"/>
<path d="M182.632 182.459C182.776 182.338 182.89 182.185 182.965 182.013C183.039 181.84 183.072 181.652 183.06 181.464C183.048 181.276 182.993 181.093 182.898 180.931C182.802 180.769 182.67 180.631 182.512 180.529L182.332 180.449C182.147 180.385 181.948 180.371 181.755 180.406C181.563 180.441 181.382 180.526 181.232 180.651C181.081 180.776 180.966 180.938 180.896 181.122C180.826 181.305 180.805 181.503 180.834 181.696C180.863 181.89 180.941 182.073 181.062 182.228C181.182 182.382 181.34 182.503 181.521 182.579C181.702 182.654 181.899 182.682 182.093 182.66C182.288 182.637 182.473 182.564 182.632 182.449V182.459Z" fill="#407BFF"/>
<path d="M192.332 208.259C192.476 208.138 192.59 207.985 192.665 207.813C192.739 207.64 192.772 207.452 192.76 207.264C192.749 207.076 192.693 206.893 192.598 206.731C192.502 206.569 192.37 206.431 192.212 206.329L192.032 206.249C191.847 206.185 191.648 206.171 191.455 206.206C191.263 206.241 191.082 206.326 190.932 206.451C190.781 206.576 190.666 206.739 190.596 206.922C190.526 207.105 190.505 207.303 190.534 207.496C190.563 207.69 190.642 207.873 190.762 208.028C190.882 208.182 191.04 208.303 191.221 208.379C191.402 208.454 191.599 208.482 191.794 208.46C191.988 208.437 192.174 208.364 192.332 208.249V208.259Z" fill="#407BFF"/>
<path d="M172.152 228.569L171.962 228.489C171.682 228.4 171.379 228.423 171.116 228.551C170.852 228.68 170.648 228.906 170.547 229.181C170.445 229.456 170.454 229.76 170.571 230.029C170.687 230.299 170.904 230.512 171.174 230.626C171.444 230.74 171.748 230.745 172.022 230.641C172.297 230.536 172.52 230.33 172.646 230.065C172.772 229.8 172.791 229.497 172.699 229.218C172.607 228.939 172.411 228.707 172.152 228.569V228.569Z" fill="#407BFF"/>
<path d="M161.942 205.959L161.752 205.879C161.472 205.79 161.169 205.812 160.906 205.941C160.642 206.07 160.438 206.296 160.337 206.571C160.235 206.846 160.244 207.15 160.361 207.419C160.477 207.689 160.694 207.902 160.964 208.016C161.234 208.13 161.538 208.135 161.812 208.031C162.087 207.926 162.31 207.72 162.436 207.455C162.562 207.19 162.581 206.887 162.489 206.608C162.397 206.329 162.201 206.097 161.942 205.959Z" fill="#407BFF"/>
<path d="M215.462 157.259C215.49 157.452 215.566 157.635 215.685 157.79C215.803 157.945 215.96 158.067 216.139 158.144C216.318 158.222 216.514 158.252 216.708 158.232C216.902 158.211 217.088 158.142 217.247 158.029C217.407 157.917 217.535 157.766 217.619 157.59C217.703 157.414 217.741 157.219 217.728 157.024C217.715 156.83 217.653 156.641 217.547 156.478C217.441 156.314 217.295 156.18 217.122 156.089L216.942 156.009C216.759 155.965 216.567 155.964 216.383 156.007C216.2 156.051 216.029 156.137 215.885 156.259C215.741 156.38 215.627 156.534 215.554 156.708C215.48 156.882 215.449 157.071 215.462 157.259V157.259Z" fill="#407BFF"/>
<path d="M225.852 103.989C225.852 104.129 225.772 104.269 225.722 104.419C225.864 106.008 226.277 107.56 226.942 109.009C227.173 109.69 227.551 110.311 228.049 110.829C228.546 111.348 229.152 111.75 229.822 112.009V112.009C228.158 109.518 226.824 106.823 225.852 103.989Z" fill="#E5BAAB"/>
<path d="M199.112 146.259C199.062 146.399 199.002 146.539 198.962 146.679C198.264 148.93 198.411 151.359 199.375 153.509C200.34 155.659 202.056 157.384 204.202 158.359C206.289 159.312 208.648 159.486 210.852 158.849L211.442 158.659C212.665 158.226 213.788 157.552 214.745 156.675C215.702 155.799 216.473 154.739 217.012 153.559C217.512 152.449 218.012 151.329 218.522 150.259C219.242 148.709 219.912 147.259 220.472 146.079L221.862 143.079L220.862 145.079C212.552 142.079 212.642 134.909 212.642 134.909C214.86 138.479 218.071 141.325 221.882 143.099C221.882 143.099 228.462 144.939 233.602 136.959C236.34 132.295 238.73 127.435 240.752 122.419L240.692 122.159C240.499 122.083 240.311 121.993 240.132 121.889C240.001 121.816 239.874 121.736 239.752 121.649C239.962 122.089 239.962 122.409 239.872 122.439C239.782 122.469 239.192 121.529 238.092 121.009C236.992 120.489 235.922 120.689 235.872 120.489C235.822 120.289 236.082 120.199 236.562 120.089C237.052 119.992 237.559 120.027 238.032 120.189C235.942 117.959 234.402 114.659 233.282 112.079C233.462 113.369 235.682 117.429 235.852 118.729C233.673 116.933 231.772 114.823 230.212 112.469H229.732C228.998 112.343 228.32 111.994 227.792 111.469C227.167 110.845 226.665 110.109 226.312 109.299C225.772 108.142 225.433 106.901 225.312 105.629C223.992 109.099 221.222 114.059 215.732 116.399C214.978 115.838 214.087 115.493 213.152 115.399C212.675 115.352 212.193 115.401 211.735 115.541C211.276 115.682 210.85 115.912 210.482 116.219C209.774 116.884 209.342 117.791 209.272 118.759C209.211 119.721 209.364 120.684 209.722 121.579C209.926 122.167 210.242 122.711 210.652 123.179C209.999 123.884 209.308 124.551 208.582 125.179C208.716 125.366 208.886 125.524 209.081 125.644C209.277 125.764 209.495 125.844 209.722 125.879C210.035 125.939 210.359 125.907 210.655 125.788C210.951 125.67 211.206 125.469 211.392 125.209C211.72 124.759 211.873 124.204 211.822 123.649C211.722 122.649 211.262 122.119 211.372 122.049C211.482 121.979 212.052 122.419 212.322 123.569C212.393 123.911 212.397 124.264 212.332 124.607C212.266 124.95 212.134 125.277 211.942 125.569C211.692 125.946 211.337 126.241 210.921 126.419C210.505 126.596 210.047 126.649 209.602 126.569C209.001 126.475 208.461 126.152 208.092 125.669L204.332 134.259L200.602 142.789L199.332 145.689C199.252 145.889 199.182 146.089 199.112 146.259ZM235.532 122.069C235.622 121.866 235.77 121.693 235.957 121.573C236.145 121.454 236.363 121.392 236.586 121.396C236.808 121.4 237.024 121.469 237.207 121.596C237.39 121.722 237.532 121.899 237.615 122.106C237.697 122.313 237.717 122.539 237.672 122.757C237.626 122.974 237.518 123.174 237.359 123.33C237.201 123.486 237 123.592 236.782 123.635C236.563 123.677 236.337 123.655 236.132 123.569C235.994 123.51 235.869 123.425 235.764 123.317C235.659 123.21 235.576 123.083 235.52 122.944C235.465 122.804 235.437 122.655 235.439 122.505C235.441 122.355 235.472 122.207 235.532 122.069V122.069ZM229.382 129.259C229.682 129.369 229.972 129.429 230.112 129.259C230.274 128.952 230.35 128.606 230.332 128.259C230.399 127.399 230.469 126.499 230.542 125.559C230.663 123.231 230.954 120.915 231.412 118.629C231.471 120.968 231.357 123.307 231.072 125.629C230.982 126.569 230.892 127.469 230.812 128.329C230.826 128.778 230.688 129.218 230.422 129.579C230.336 129.665 230.233 129.73 230.118 129.77C230.004 129.81 229.882 129.823 229.762 129.809C229.585 129.78 229.414 129.726 229.252 129.649C228.614 129.446 228.008 129.153 227.452 128.779C228.114 128.852 228.763 129.014 229.382 129.259V129.259ZM227.302 116.569C227.512 117.009 227.512 117.319 227.412 117.359C227.312 117.399 226.732 116.449 225.632 115.929C224.532 115.409 223.472 115.609 223.412 115.409C223.352 115.209 223.632 115.119 224.102 115.009C224.732 114.883 225.387 114.968 225.965 115.25C226.543 115.532 227.012 115.995 227.302 116.569V116.569ZM225.532 117.679C225.418 117.959 225.2 118.182 224.923 118.302C224.646 118.422 224.333 118.428 224.052 118.319C223.836 118.238 223.649 118.093 223.515 117.905C223.381 117.717 223.307 117.492 223.301 117.261C223.296 117.03 223.359 116.803 223.484 116.608C223.608 116.414 223.788 116.261 224 116.169C224.213 116.077 224.447 116.051 224.674 116.093C224.901 116.136 225.111 116.245 225.275 116.408C225.44 116.57 225.552 116.778 225.598 117.004C225.644 117.231 225.621 117.466 225.532 117.679ZM223.632 128.779C223.644 128.551 223.688 128.325 223.762 128.109C223.962 127.549 224.242 127.289 224.312 127.339C224.382 127.389 224.222 127.989 224.252 128.809C224.608 128.902 224.932 129.089 225.192 129.349C225.459 129.632 225.652 129.976 225.757 130.35C225.862 130.725 225.874 131.119 225.792 131.499V131.569C225.792 131.569 225.792 131.569 225.792 131.629C226.162 131.919 226.452 132.069 226.422 132.159C226.392 132.249 226.022 132.269 225.482 132.029C225.398 131.994 225.317 131.95 225.242 131.899C225.152 131.909 225.062 131.909 224.972 131.899C224.368 131.826 223.788 131.621 223.272 131.299C223.013 131.136 222.809 130.9 222.686 130.62C222.563 130.34 222.527 130.03 222.582 129.729C222.649 129.489 222.782 129.273 222.966 129.105C223.15 128.937 223.377 128.824 223.622 128.779H223.632ZM211.682 121.259C211.506 121.093 211.365 120.893 211.268 120.671C211.17 120.45 211.117 120.211 211.112 119.969C211.086 119.422 211.168 118.875 211.352 118.359C211.532 117.802 211.909 117.329 212.412 117.029C212.624 116.899 212.863 116.818 213.111 116.794C213.358 116.77 213.609 116.802 213.842 116.889C214.642 117.239 214.632 117.889 214.542 117.889C214.452 117.889 214.262 117.489 213.682 117.369C213.304 117.344 212.929 117.455 212.626 117.682C212.324 117.91 212.113 118.239 212.032 118.609C211.853 118.964 211.76 119.357 211.76 119.754C211.76 120.152 211.853 120.544 212.032 120.899C212.402 121.379 212.852 121.319 212.872 121.409C212.892 121.499 212.362 121.809 211.682 121.259Z" fill="#E5BAAB"/>
<path d="M236.162 123.569C236.443 123.678 236.756 123.672 237.033 123.552C237.31 123.432 237.528 123.209 237.642 122.929C237.722 122.721 237.739 122.495 237.691 122.277C237.642 122.06 237.531 121.862 237.371 121.708C237.21 121.553 237.008 121.45 236.788 121.41C236.569 121.371 236.343 121.397 236.139 121.485C235.935 121.574 235.761 121.72 235.64 121.907C235.519 122.094 235.455 122.312 235.458 122.535C235.46 122.757 235.528 122.974 235.654 123.158C235.779 123.342 235.956 123.485 236.162 123.569V123.569Z" fill="#263238"/>
<path d="M223.442 116.819C223.381 116.957 223.348 117.105 223.346 117.256C223.343 117.406 223.371 117.556 223.426 117.695C223.482 117.835 223.566 117.962 223.671 118.069C223.777 118.176 223.903 118.261 224.042 118.319C224.323 118.428 224.636 118.422 224.913 118.302C225.19 118.182 225.408 117.959 225.522 117.679C225.595 117.54 225.638 117.387 225.648 117.231C225.659 117.074 225.637 116.917 225.583 116.769C225.53 116.622 225.446 116.487 225.337 116.374C225.229 116.26 225.098 116.171 224.953 116.111C224.808 116.051 224.652 116.022 224.495 116.025C224.338 116.029 224.183 116.065 224.041 116.132C223.899 116.198 223.772 116.294 223.669 116.412C223.566 116.531 223.489 116.669 223.442 116.819V116.819Z" fill="#263238"/>
<path d="M224.102 115.009C223.632 115.119 223.382 115.309 223.412 115.409C223.442 115.509 224.552 115.409 225.632 115.929C226.712 116.449 227.222 117.439 227.412 117.359C227.602 117.279 227.512 117.009 227.302 116.569C227.012 115.995 226.543 115.531 225.965 115.25C225.387 114.968 224.732 114.883 224.102 115.009V115.009Z" fill="#263238"/>
<path d="M229.252 129.619C229.414 129.696 229.585 129.75 229.762 129.779C229.882 129.793 230.004 129.78 230.118 129.74C230.233 129.7 230.336 129.635 230.422 129.549C230.688 129.188 230.826 128.748 230.812 128.299C230.892 127.439 230.982 126.539 231.072 125.599C231.357 123.277 231.471 120.938 231.412 118.599C230.954 120.885 230.663 123.201 230.542 125.529C230.469 126.469 230.399 127.369 230.332 128.229C230.35 128.576 230.274 128.922 230.112 129.229C229.972 129.409 229.682 129.349 229.382 129.229C228.764 128.973 228.115 128.802 227.452 128.719C228.006 129.103 228.612 129.406 229.252 129.619V129.619Z" fill="#263238"/>
<path d="M212.622 134.949C212.622 134.949 212.532 142.099 220.842 145.119L221.842 143.119C218.041 141.348 214.838 138.509 212.622 134.949Z" fill="#D78776"/>
<path d="M223.232 131.259C223.748 131.581 224.328 131.786 224.932 131.859C225.022 131.869 225.112 131.869 225.202 131.859C224.66 131.553 224.22 131.094 223.939 130.539C223.658 129.983 223.548 129.357 223.622 128.739C223.375 128.774 223.142 128.878 222.951 129.039C222.76 129.2 222.618 129.411 222.542 129.649C222.478 129.956 222.51 130.275 222.634 130.563C222.757 130.851 222.966 131.094 223.232 131.259V131.259Z" fill="#D78776"/>
<path d="M225.752 131.629C225.752 131.629 225.752 131.629 225.752 131.569V131.499C225.834 131.119 225.822 130.725 225.717 130.35C225.613 129.976 225.419 129.632 225.152 129.349C224.892 129.089 224.568 128.902 224.212 128.809C224.22 129.252 224.311 129.69 224.482 130.099C224.766 130.71 225.203 131.238 225.752 131.629V131.629Z" fill="#D78776"/>
<path d="M223.852 130.389C224.128 131.025 224.601 131.554 225.202 131.899C225.278 131.95 225.358 131.994 225.442 132.029C225.982 132.269 226.362 132.249 226.382 132.159C226.402 132.069 226.122 131.919 225.752 131.629C225.214 131.234 224.787 130.707 224.512 130.099C224.341 129.69 224.25 129.252 224.242 128.809C224.242 127.989 224.432 127.389 224.302 127.339C224.172 127.289 223.952 127.549 223.752 128.109C223.678 128.325 223.634 128.551 223.622 128.779C223.56 129.327 223.64 129.881 223.852 130.389V130.389Z" fill="#263238"/>
<path d="M212.892 121.389C212.892 121.299 212.422 121.389 212.052 120.879C211.873 120.524 211.78 120.132 211.78 119.734C211.78 119.336 211.873 118.944 212.052 118.589C212.133 118.219 212.344 117.89 212.646 117.662C212.949 117.435 213.324 117.324 213.702 117.349C214.282 117.469 214.462 117.899 214.562 117.869C214.662 117.839 214.662 117.219 213.862 116.869C213.629 116.782 213.378 116.75 213.131 116.774C212.883 116.798 212.644 116.879 212.432 117.009C211.929 117.309 211.552 117.782 211.372 118.339C211.188 118.855 211.106 119.402 211.132 119.949C211.137 120.191 211.19 120.43 211.288 120.651C211.385 120.873 211.526 121.072 211.702 121.239C212.362 121.809 212.982 121.469 212.892 121.389Z" fill="#D78776"/>
<path d="M209.582 126.599C210.027 126.679 210.486 126.626 210.901 126.449C211.317 126.271 211.672 125.976 211.922 125.599C212.114 125.307 212.246 124.98 212.312 124.637C212.377 124.294 212.374 123.941 212.302 123.599C212.032 122.449 211.392 122.029 211.352 122.079C211.312 122.129 211.702 122.689 211.802 123.679C211.853 124.234 211.7 124.789 211.372 125.239C211.187 125.499 210.931 125.7 210.635 125.818C210.339 125.937 210.015 125.969 209.702 125.909C209.475 125.874 209.257 125.794 209.062 125.674C208.866 125.554 208.696 125.396 208.562 125.209C209.288 124.581 209.979 123.914 210.632 123.209C210.222 122.741 209.906 122.197 209.702 121.609C209.344 120.714 209.191 119.751 209.252 118.789C209.322 117.821 209.754 116.914 210.462 116.249C210.83 115.943 211.256 115.712 211.715 115.571C212.173 115.431 212.655 115.382 213.132 115.429C214.067 115.523 214.958 115.869 215.712 116.429C221.202 114.089 223.972 109.129 225.292 105.659C225.414 106.931 225.752 108.172 226.292 109.329C226.645 110.139 227.147 110.875 227.772 111.499C228.3 112.024 228.978 112.373 229.712 112.499H230.192C231.752 114.853 233.653 116.963 235.832 118.759C235.662 117.459 233.442 113.399 233.262 112.109C234.382 114.689 235.922 117.989 238.012 120.219C237.539 120.057 237.032 120.022 236.542 120.119C236.062 120.229 235.822 120.429 235.852 120.519C235.882 120.609 236.982 120.519 238.072 121.039C239.162 121.559 239.662 122.549 239.852 122.469C240.042 122.389 239.942 122.119 239.732 121.679C239.854 121.766 239.981 121.846 240.112 121.919C240.291 122.023 240.479 122.114 240.672 122.189L240.732 122.449C238.71 127.466 236.32 132.325 233.582 136.989C228.442 144.989 221.862 143.129 221.862 143.129L220.472 146.129C220.96 146.387 221.487 146.563 222.032 146.649C224.602 147.059 227.172 145.399 229.732 145.819C234.172 146.559 235.732 152.819 240.082 154.059C242.472 154.769 245.082 153.709 247.082 152.259C247.981 151.64 248.755 150.856 249.362 149.949C249.99 149.74 250.58 149.433 251.112 149.039C252.25 148.231 253.057 147.037 253.382 145.679C253.497 145.267 253.528 144.836 253.473 144.412C253.418 143.987 253.278 143.578 253.062 143.209C252.938 143.001 252.761 142.831 252.547 142.716C252.334 142.601 252.094 142.547 251.852 142.559C251.012 142.639 250.202 143.219 249.312 143.169C248.905 143.198 248.501 143.081 248.172 142.839L248.072 142.689V142.469V142.259C248.094 142.151 248.124 142.044 248.162 141.939C248.212 141.799 248.252 141.679 248.302 141.559C248.327 141.498 248.361 141.441 248.402 141.389V141.389L248.672 141.299L248.822 141.239C248.926 141.162 249.024 141.075 249.112 140.979C249.226 140.865 249.349 140.761 249.482 140.669C249.822 140.359 250.162 140.059 250.482 139.739C251.222 139.081 251.923 138.379 252.582 137.639C253.673 136.391 254.499 134.935 255.012 133.359C255.556 131.604 255.653 129.741 255.292 127.939C255.032 126.637 254.598 125.376 254.002 124.189C253.822 123.829 253.642 123.499 253.462 123.189C253.532 121.515 253.189 119.849 252.462 118.339C251.625 116.821 250.618 115.402 249.462 114.109C249.024 113.566 248.617 112.998 248.242 112.409C248.012 111.639 247.812 110.949 247.622 110.319C247.591 109.198 247.399 108.086 247.052 107.019C247.052 106.949 247.052 106.889 247.052 106.889C246.782 106.03 246.369 105.222 245.832 104.499C244.472 102.009 241.952 100.279 239.402 98.9493C237.097 97.6049 234.514 96.8077 231.852 96.6193C230.475 96.5864 229.108 96.8632 227.852 97.4293C218.532 92.6593 213.532 100.309 210.832 106.259C209.632 107.814 208.559 109.463 207.622 111.189C205.784 114.574 204.757 118.34 204.622 122.189V122.699C203.372 125.249 202.252 127.029 201.982 127.879C201.691 128.656 201.579 129.489 201.655 130.315C201.732 131.141 201.994 131.939 202.422 132.649C202.913 133.347 203.584 133.899 204.362 134.249L208.102 125.689C208.462 126.17 208.991 126.495 209.582 126.599V126.599ZM229.822 111.989C229.152 111.73 228.546 111.328 228.049 110.809C227.551 110.291 227.173 109.67 226.942 108.989C226.277 107.54 225.864 105.988 225.722 104.399C225.772 104.249 225.812 104.109 225.852 103.969C226.835 106.797 228.179 109.486 229.852 111.969L229.822 111.989ZM248.082 142.869V142.809V142.869ZM248.152 141.479H248.212H248.152ZM249.152 114.399C250.255 115.681 251.221 117.075 252.032 118.559C252.613 119.733 252.953 121.012 253.032 122.319C252.502 121.429 252.032 120.779 251.742 120.229C250.692 118.407 249.802 116.496 249.082 114.519C249.002 114.329 248.942 114.149 248.882 113.959L249.152 114.399ZM208.042 111.449C208.632 110.349 209.262 109.319 209.902 108.359C209.442 109.509 209.082 110.509 208.802 111.199C208.442 112.059 208.062 113.199 207.672 114.529C207.532 115.009 207.382 115.529 207.242 116.009C206.625 118.031 205.857 120.004 204.942 121.909C205.238 118.24 206.308 114.675 208.082 111.449H208.042Z" fill="#263238"/>
<path d="M308.342 112.839C307.67 116.721 305.851 120.313 303.119 123.151C300.388 125.99 296.868 127.945 293.015 128.765C289.162 129.585 285.151 129.232 281.5 127.751C277.85 126.271 274.726 123.731 272.532 120.459L263.182 121.909L269.512 113.109C268.979 110.271 269.075 107.35 269.794 104.553C270.513 101.755 271.838 99.1502 273.674 96.921C275.51 94.6918 277.813 92.8929 280.421 91.6513C283.029 90.4098 285.877 89.7559 288.765 89.7358C291.653 89.7157 294.511 90.33 297.135 91.5351C299.76 92.7403 302.088 94.507 303.955 96.7104C305.822 98.9139 307.183 101.5 307.941 104.287C308.699 107.074 308.836 109.994 308.342 112.839V112.839Z" fill="#407BFF"/>
<path d="M289.532 103.429L289.412 115.539H287.162L287.212 110.359L280.952 110.299L280.902 115.479H278.652L278.772 103.379H281.022L280.972 108.379L287.232 108.439L287.282 103.439L289.532 103.429Z" fill="white"/>
<path d="M292.232 103.509C292.236 103.333 292.275 103.159 292.348 102.998C292.42 102.837 292.524 102.693 292.654 102.573C292.784 102.454 292.937 102.362 293.103 102.302C293.269 102.243 293.446 102.218 293.622 102.229C293.796 102.217 293.97 102.24 294.135 102.298C294.299 102.355 294.45 102.446 294.579 102.564C294.707 102.682 294.81 102.825 294.881 102.984C294.952 103.143 294.99 103.315 294.992 103.489C294.992 103.855 294.847 104.206 294.588 104.465C294.329 104.724 293.978 104.869 293.612 104.869C293.246 104.869 292.895 104.724 292.636 104.465C292.377 104.206 292.232 103.855 292.232 103.489V103.509ZM292.492 106.339H294.652L294.562 115.569H292.402L292.492 106.339Z" fill="white"/>
<path d="M297.012 114.379C297.016 114.199 297.056 114.021 297.13 113.857C297.204 113.692 297.31 113.544 297.443 113.422C297.576 113.3 297.732 113.205 297.901 113.145C298.071 113.084 298.252 113.058 298.432 113.069C298.61 113.064 298.787 113.095 298.953 113.16C299.118 113.225 299.269 113.324 299.395 113.449C299.521 113.574 299.621 113.724 299.687 113.889C299.754 114.054 299.786 114.231 299.782 114.409C299.782 114.589 299.746 114.766 299.676 114.931C299.606 115.097 299.504 115.246 299.375 115.371C299.247 115.496 299.094 115.594 298.927 115.659C298.76 115.724 298.581 115.755 298.402 115.749C298.22 115.753 298.039 115.721 297.87 115.654C297.701 115.586 297.547 115.486 297.417 115.358C297.288 115.23 297.185 115.078 297.115 114.91C297.046 114.742 297.01 114.561 297.012 114.379V114.379ZM297.242 103.509H299.802L299.292 111.589H297.582L297.242 103.509Z" fill="white"/>
</svg>
