<svg width="512" height="512" viewBox="0 0 512 512" fill="none" xmlns="http://www.w3.org/2000/svg">
<path d="M497 60H437C428.72 60 422 66.72 422 75V332H512V75C512 66.72 505.28 60 497 60ZM452.77 441.74C457.305 455.366 476.684 455.4 481.23 441.74L507.81 362H426.19L452.77 441.74Z" fill="#3A9BD6"/>
<path d="M105 182C96.73 182 90 188.73 90 197C90 205.27 96.73 212 105 212C111.72 212 113.7 208.69 135 197C113.25 185.06 111.7 182 105 182ZM225 182C218.28 182 216.3 185.31 195 197C216.75 208.94 218.3 212 225 212C233.27 212 240 205.27 240 197C240 188.73 233.27 182 225 182ZM225 182C218.28 182 216.3 185.31 195 197C216.75 208.94 218.3 212 225 212C233.27 212 240 205.27 240 197C240 188.73 233.27 182 225 182ZM105 182C96.73 182 90 188.73 90 197C90 205.27 96.73 212 105 212C111.72 212 113.7 208.69 135 197C113.25 185.06 111.7 182 105 182ZM105 182C96.73 182 90 188.73 90 197C90 205.27 96.73 212 105 212C111.72 212 113.7 208.69 135 197C113.25 185.06 111.7 182 105 182ZM225 182C218.28 182 216.3 185.31 195 197C216.75 208.94 218.3 212 225 212C233.27 212 240 205.27 240 197C240 188.73 233.27 182 225 182ZM225 182C218.28 182 216.3 185.31 195 197C216.75 208.94 218.3 212 225 212C233.27 212 240 205.27 240 197C240 188.73 233.27 182 225 182ZM105 182C96.73 182 90 188.73 90 197C90 205.27 96.73 212 105 212C111.72 212 113.7 208.69 135 197C113.25 185.06 111.7 182 105 182ZM105 182C96.73 182 90 188.73 90 197C90 205.27 96.73 212 105 212C111.72 212 113.7 208.69 135 197C113.25 185.06 111.7 182 105 182ZM225 182C218.28 182 216.3 185.31 195 197C216.75 208.94 218.3 212 225 212C233.27 212 240 205.27 240 197C240 188.73 233.27 182 225 182ZM225 182C218.28 182 216.3 185.31 195 197C216.75 208.94 218.3 212 225 212C233.27 212 240 205.27 240 197C240 188.73 233.27 182 225 182ZM105 182C96.73 182 90 188.73 90 197C90 205.27 96.73 212 105 212C111.72 212 113.7 208.69 135 197C113.25 185.06 111.7 182 105 182ZM105 182C96.73 182 90 188.73 90 197C90 205.27 96.73 212 105 212C111.72 212 113.7 208.69 135 197C113.25 185.06 111.7 182 105 182ZM225 182C218.28 182 216.3 185.31 195 197C216.75 208.94 218.3 212 225 212C233.27 212 240 205.27 240 197C240 188.73 233.27 182 225 182ZM225 182C218.28 182 216.3 185.31 195 197C216.75 208.94 218.3 212 225 212C233.27 212 240 205.27 240 197C240 188.73 233.27 182 225 182ZM90 197C90 205.27 96.73 212 105 212C111.72 212 113.7 208.69 135 197C113.25 185.06 111.7 182 105 182C96.73 182 90 188.73 90 197ZM317 60H15C6.72 60 0 66.72 0 75V497C0 505.28 6.72 512 15 512H317C325.28 512 332 505.28 332 497V75C332 66.72 325.28 60 317 60ZM75 422C66.72 422 60 415.28 60 407C60 398.72 66.72 392 75 392C83.28 392 90 398.72 90 407C90 415.28 83.28 422 75 422ZM75 362C66.72 362 60 355.28 60 347C60 338.72 66.72 332 75 332C83.28 332 90 338.72 90 347C90 355.28 83.28 362 75 362ZM75 302C66.72 302 60 295.28 60 287C60 278.72 66.72 272 75 272C83.28 272 90 278.72 90 287C90 295.28 83.28 302 75 302ZM255 422H135C126.72 422 120 415.28 120 407C120 398.72 126.72 392 135 392H255C263.28 392 270 398.72 270 407C270 415.28 263.28 422 255 422ZM255 362H135C126.72 362 120 355.28 120 347C120 338.72 126.72 332 135 332H255C263.28 332 270 338.72 270 347C270 355.28 263.28 362 255 362ZM255 302H135C126.72 302 120 295.28 120 287C120 278.72 126.72 272 135 272H255C263.28 272 270 278.72 270 287C270 295.28 263.28 302 255 302ZM225 242C205.82 242 197.39 231.53 165 214.32C132.72 231.47 124.21 242 105 242C80.19 242 60 221.81 60 197C60 172.19 80.19 152 105 152C124.18 152 132.61 162.47 165 179.68C197.29 162.52 205.8 152 225 152C249.81 152 270 172.19 270 197C270 221.81 249.81 242 225 242ZM225 182C218.28 182 216.3 185.31 195 197C216.75 208.94 218.3 212 225 212C233.27 212 240 205.27 240 197C240 188.73 233.27 182 225 182ZM90 197C90 205.27 96.73 212 105 212C111.72 212 113.7 208.69 135 197C113.25 185.06 111.7 182 105 182C96.73 182 90 188.73 90 197ZM105 182C96.73 182 90 188.73 90 197C90 205.27 96.73 212 105 212C111.72 212 113.7 208.69 135 197C113.25 185.06 111.7 182 105 182ZM225 182C218.28 182 216.3 185.31 195 197C216.75 208.94 218.3 212 225 212C233.27 212 240 205.27 240 197C240 188.73 233.27 182 225 182ZM225 182C218.28 182 216.3 185.31 195 197C216.75 208.94 218.3 212 225 212C233.27 212 240 205.27 240 197C240 188.73 233.27 182 225 182ZM105 182C96.73 182 90 188.73 90 197C90 205.27 96.73 212 105 212C111.72 212 113.7 208.69 135 197C113.25 185.06 111.7 182 105 182ZM105 182C96.73 182 90 188.73 90 197C90 205.27 96.73 212 105 212C111.72 212 113.7 208.69 135 197C113.25 185.06 111.7 182 105 182ZM225 182C218.28 182 216.3 185.31 195 197C216.75 208.94 218.3 212 225 212C233.27 212 240 205.27 240 197C240 188.73 233.27 182 225 182ZM225 182C218.28 182 216.3 185.31 195 197C216.75 208.94 218.3 212 225 212C233.27 212 240 205.27 240 197C240 188.73 233.27 182 225 182ZM105 182C96.73 182 90 188.73 90 197C90 205.27 96.73 212 105 212C111.72 212 113.7 208.69 135 197C113.25 185.06 111.7 182 105 182ZM105 182C96.73 182 90 188.73 90 197C90 205.27 96.73 212 105 212C111.72 212 113.7 208.69 135 197C113.25 185.06 111.7 182 105 182ZM225 182C218.28 182 216.3 185.31 195 197C216.75 208.94 218.3 212 225 212C233.27 212 240 205.27 240 197C240 188.73 233.27 182 225 182ZM225 182C218.28 182 216.3 185.31 195 197C216.75 208.94 218.3 212 225 212C233.27 212 240 205.27 240 197C240 188.73 233.27 182 225 182ZM105 182C96.73 182 90 188.73 90 197C90 205.27 96.73 212 105 212C111.72 212 113.7 208.69 135 197C113.25 185.06 111.7 182 105 182Z" fill="#3A9BD6"/>
<path d="M392 15V437C392 445.28 385.28 452 377 452H362V75C362 50.19 341.81 30 317 30H60V15C60 6.72 66.72 0 75 0H377C385.28 0 392 6.72 392 15Z" fill="#3A9BD6"/>
</svg>
