<?xml version="1.0"?>
<svg xmlns="http://www.w3.org/2000/svg" xmlns:xlink="http://www.w3.org/1999/xlink" version="1.1" id="Capa_1" x="0px" y="0px" viewBox="0 0 464 464" style="enable-background:new 0 0 464 464;" xml:space="preserve" width="512px" height="512px" class=""><g transform="matrix(1 -2.44929e-16 2.44929e-16 1 -8.52651e-14 8.52651e-14)"><path style="fill:#D4E7FF" d="M56,463.448V368c0-65.816,49.696-119.976,113.6-127.136C149.056,223.256,136,197.176,136,168  c0-53.016,42.984-96,96-96s96,42.984,96,96c0,29.176-13.056,55.256-33.6,72.864C358.304,248.024,408,302.184,408,368v95.448  c31.56-3.944,56-30.816,56-63.448V64c0-35.344-28.656-64-64-64H64C28.656,0,0,28.656,0,64v336C0,432.632,24.44,459.504,56,463.448z" data-original="#EFECE8" class="" data-old_color="#EFECE8"/><g>
	<path style="fill:#F9EDE0" d="M408,464v-0.552c-2.624,0.328-5.288,0.552-8,0.552H408z" data-original="#F9EDE0" class=""/>
	<path style="fill:#F9EDE0" d="M56,464h8c-2.712,0-5.376-0.224-8-0.552V464z" data-original="#F9EDE0" class=""/>
</g><path style="fill:#8EA2F3" d="M294.4,240.864C314.944,223.256,328,197.176,328,168c0-53.016-42.984-96-96-96s-96,42.984-96,96  c0,29.176,13.056,55.256,33.6,72.864C105.696,248.024,56,302.184,56,368v95.448c2.624,0.328,5.288,0.552,8,0.552h336  c2.712,0,5.376-0.224,8-0.552V368C408,302.184,358.304,248.024,294.4,240.864z" data-original="#C6C3BD" class="active-path" data-old_color="#C6C3BD"/></g> </svg>
